G04 #@! TF.GenerationSoftware,KiCad,Pcbnew,(5.1.2)-2*
G04 #@! TF.CreationDate,2019-11-30T13:10:44+01:00*
G04 #@! TF.ProjectId,bikehub,62696b65-6875-4622-9e6b-696361645f70,rev?*
G04 #@! TF.SameCoordinates,Original*
G04 #@! TF.FileFunction,Legend,Top*
G04 #@! TF.FilePolarity,Positive*
%FSLAX46Y46*%
G04 Gerber Fmt 4.6, Leading zero omitted, Abs format (unit mm)*
G04 Created by KiCad (PCBNEW (5.1.2)-2) date 2019-11-30 13:10:44*
%MOMM*%
%LPD*%
G04 APERTURE LIST*
%ADD10C,0.050000*%
%ADD11C,0.120000*%
%ADD12C,0.150000*%
G04 APERTURE END LIST*
D10*
X125500000Y-52000000D02*
X48500000Y-52000000D01*
X125500000Y-66000000D02*
X125500000Y-52000000D01*
X91000000Y-66000000D02*
X125500000Y-66000000D01*
X90000000Y-67000000D02*
X91000000Y-66000000D01*
X90000000Y-99500000D02*
X90000000Y-67000000D01*
X48500000Y-99500000D02*
X90000000Y-99500000D01*
X48500000Y-52000000D02*
X48500000Y-99500000D01*
D11*
G04 #@! TO.C,SW1*
X87750000Y-99550000D02*
X84250000Y-99550000D01*
X84250000Y-96450000D02*
X87750000Y-96450000D01*
X85050000Y-100200000D02*
X85050000Y-99550000D01*
X86950000Y-100200000D02*
X85050000Y-100200000D01*
X86950000Y-99550000D02*
X86950000Y-100200000D01*
G04 #@! TO.C,U1*
X71140000Y-77090000D02*
X69850000Y-77090000D01*
X71140000Y-76640000D02*
X71140000Y-77090000D01*
X71590000Y-76640000D02*
X71140000Y-76640000D01*
X78360000Y-76640000D02*
X78360000Y-77090000D01*
X77910000Y-76640000D02*
X78360000Y-76640000D01*
X71140000Y-83860000D02*
X71140000Y-83410000D01*
X71590000Y-83860000D02*
X71140000Y-83860000D01*
X78360000Y-83860000D02*
X78360000Y-83410000D01*
X77910000Y-83860000D02*
X78360000Y-83860000D01*
G04 #@! TO.C,Y1*
X60450000Y-78750000D02*
X60450000Y-91350000D01*
X65550000Y-78750000D02*
X60450000Y-78750000D01*
X65550000Y-91350000D02*
X65550000Y-78750000D01*
G04 #@! TO.C,C2*
X58790000Y-89588748D02*
X58790000Y-90111252D01*
X60210000Y-89588748D02*
X60210000Y-90111252D01*
G04 #@! TO.C,J4*
X65130000Y-68330000D02*
X65130000Y-67000000D01*
X66460000Y-68330000D02*
X65130000Y-68330000D01*
X67730000Y-68330000D02*
X67730000Y-65670000D01*
X67730000Y-65670000D02*
X70330000Y-65670000D01*
X67730000Y-68330000D02*
X70330000Y-68330000D01*
X70330000Y-68330000D02*
X70330000Y-65670000D01*
G04 #@! TO.C,Y2*
X66500000Y-77950000D02*
G75*
G03X65500000Y-77950000I-500000J0D01*
G01*
X67800000Y-71850000D02*
X67800000Y-75650000D01*
X67800000Y-77950000D02*
X67800000Y-77350000D01*
X64200000Y-77950000D02*
X64200000Y-77350000D01*
X67800000Y-77950000D02*
X66500000Y-77950000D01*
X65500000Y-77950000D02*
X64200000Y-77950000D01*
X64200000Y-75650000D02*
X64200000Y-71850000D01*
X67800000Y-69550000D02*
X67800000Y-70150000D01*
X64200000Y-69550000D02*
X67800000Y-69550000D01*
X64200000Y-70150000D02*
X64200000Y-69550000D01*
G04 #@! TO.C,J2*
X75350000Y-88000000D02*
X78150000Y-88000000D01*
X78150000Y-88000000D02*
X78150000Y-90000000D01*
X78150000Y-90000000D02*
X75350000Y-90000000D01*
X75350000Y-90000000D02*
X75350000Y-88000000D01*
G04 #@! TO.C,J1*
X74600000Y-72250000D02*
X77400000Y-72250000D01*
X77400000Y-72250000D02*
X77400000Y-74250000D01*
X77400000Y-74250000D02*
X74600000Y-74250000D01*
X74600000Y-74250000D02*
X74600000Y-72250000D01*
G04 #@! TO.C,U4*
X82440000Y-63500000D02*
X82440000Y-66950000D01*
X82440000Y-63500000D02*
X82440000Y-61550000D01*
X87560000Y-63500000D02*
X87560000Y-65450000D01*
X87560000Y-63500000D02*
X87560000Y-61550000D01*
G04 #@! TO.C,U3*
X76830000Y-60740000D02*
X76830000Y-62200000D01*
X73670000Y-60740000D02*
X73670000Y-62900000D01*
X73670000Y-60740000D02*
X74600000Y-60740000D01*
X76830000Y-60740000D02*
X75900000Y-60740000D01*
G04 #@! TO.C,U2*
X67400000Y-59890000D02*
X64950000Y-59890000D01*
X65600000Y-63110000D02*
X67400000Y-63110000D01*
G04 #@! TO.C,R17*
X61790000Y-60738748D02*
X61790000Y-61261252D01*
X63210000Y-60738748D02*
X63210000Y-61261252D01*
G04 #@! TO.C,R16*
X61290000Y-71738748D02*
X61290000Y-72261252D01*
X62710000Y-71738748D02*
X62710000Y-72261252D01*
G04 #@! TO.C,R15*
X63210000Y-66511252D02*
X63210000Y-65988748D01*
X61790000Y-66511252D02*
X61790000Y-65988748D01*
G04 #@! TO.C,R14*
X66040000Y-81738748D02*
X66040000Y-82261252D01*
X67460000Y-81738748D02*
X67460000Y-82261252D01*
G04 #@! TO.C,R13*
X85040000Y-84488748D02*
X85040000Y-85011252D01*
X86460000Y-84488748D02*
X86460000Y-85011252D01*
G04 #@! TO.C,R12*
X84210000Y-89011252D02*
X84210000Y-88488748D01*
X82790000Y-89011252D02*
X82790000Y-88488748D01*
G04 #@! TO.C,R11*
X60210000Y-85611252D02*
X60210000Y-85088748D01*
X58790000Y-85611252D02*
X58790000Y-85088748D01*
G04 #@! TO.C,R10*
X70460000Y-61761252D02*
X70460000Y-61238748D01*
X69040000Y-61761252D02*
X69040000Y-61238748D01*
G04 #@! TO.C,R9*
X98790000Y-59738748D02*
X98790000Y-60261252D01*
X100210000Y-59738748D02*
X100210000Y-60261252D01*
G04 #@! TO.C,R8*
X110790000Y-59738748D02*
X110790000Y-60261252D01*
X112210000Y-59738748D02*
X112210000Y-60261252D01*
G04 #@! TO.C,R7*
X122790000Y-59738748D02*
X122790000Y-60261252D01*
X124210000Y-59738748D02*
X124210000Y-60261252D01*
G04 #@! TO.C,R6*
X82738748Y-80466000D02*
X83261252Y-80466000D01*
X82738748Y-79046000D02*
X83261252Y-79046000D01*
G04 #@! TO.C,R5*
X97710000Y-60286252D02*
X97710000Y-59763748D01*
X96290000Y-60286252D02*
X96290000Y-59763748D01*
G04 #@! TO.C,R4*
X121710000Y-60286252D02*
X121710000Y-59763748D01*
X120290000Y-60286252D02*
X120290000Y-59763748D01*
G04 #@! TO.C,R3*
X79960000Y-89511252D02*
X79960000Y-88988748D01*
X78540000Y-89511252D02*
X78540000Y-88988748D01*
G04 #@! TO.C,R2*
X109710000Y-60261252D02*
X109710000Y-59738748D01*
X108290000Y-60261252D02*
X108290000Y-59738748D01*
G04 #@! TO.C,R1*
X79290000Y-73738748D02*
X79290000Y-74261252D01*
X80710000Y-73738748D02*
X80710000Y-74261252D01*
G04 #@! TO.C,Q3*
X58240000Y-59420000D02*
X59700000Y-59420000D01*
X58240000Y-62580000D02*
X60400000Y-62580000D01*
X58240000Y-62580000D02*
X58240000Y-61650000D01*
X58240000Y-59420000D02*
X58240000Y-60350000D01*
G04 #@! TO.C,Q2*
X58240000Y-64670000D02*
X59700000Y-64670000D01*
X58240000Y-67830000D02*
X60400000Y-67830000D01*
X58240000Y-67830000D02*
X58240000Y-66900000D01*
X58240000Y-64670000D02*
X58240000Y-65600000D01*
G04 #@! TO.C,Q1*
X58240000Y-70420000D02*
X59700000Y-70420000D01*
X58240000Y-73580000D02*
X60400000Y-73580000D01*
X58240000Y-73580000D02*
X58240000Y-72650000D01*
X58240000Y-70420000D02*
X58240000Y-71350000D01*
G04 #@! TO.C,J8*
X67190000Y-99600000D02*
X67190000Y-99340000D01*
X67190000Y-97060000D02*
X67190000Y-95290000D01*
X67190000Y-95290000D02*
X67570000Y-95290000D01*
X74810000Y-95290000D02*
X74810000Y-97060000D01*
X74810000Y-99340000D02*
X74810000Y-99600000D01*
X74810000Y-95290000D02*
X74430000Y-95290000D01*
G04 #@! TO.C,J5*
X84899500Y-70993000D02*
X86169500Y-70993000D01*
X84899500Y-72263000D02*
X84899500Y-70993000D01*
X87212429Y-80263000D02*
X87609500Y-80263000D01*
X87212429Y-79503000D02*
X87609500Y-79503000D01*
X96269500Y-80263000D02*
X90269500Y-80263000D01*
X96269500Y-79503000D02*
X96269500Y-80263000D01*
X90269500Y-79503000D02*
X96269500Y-79503000D01*
X87609500Y-78613000D02*
X90269500Y-78613000D01*
X87212429Y-77723000D02*
X87609500Y-77723000D01*
X87212429Y-76963000D02*
X87609500Y-76963000D01*
X96269500Y-77723000D02*
X90269500Y-77723000D01*
X96269500Y-76963000D02*
X96269500Y-77723000D01*
X90269500Y-76963000D02*
X96269500Y-76963000D01*
X87609500Y-76073000D02*
X90269500Y-76073000D01*
X87212429Y-75183000D02*
X87609500Y-75183000D01*
X87212429Y-74423000D02*
X87609500Y-74423000D01*
X96269500Y-75183000D02*
X90269500Y-75183000D01*
X96269500Y-74423000D02*
X96269500Y-75183000D01*
X90269500Y-74423000D02*
X96269500Y-74423000D01*
X87609500Y-73533000D02*
X90269500Y-73533000D01*
X87279500Y-72643000D02*
X87609500Y-72643000D01*
X87279500Y-71883000D02*
X87609500Y-71883000D01*
X90269500Y-72543000D02*
X96269500Y-72543000D01*
X90269500Y-72423000D02*
X96269500Y-72423000D01*
X90269500Y-72303000D02*
X96269500Y-72303000D01*
X90269500Y-72183000D02*
X96269500Y-72183000D01*
X90269500Y-72063000D02*
X96269500Y-72063000D01*
X90269500Y-71943000D02*
X96269500Y-71943000D01*
X96269500Y-72643000D02*
X90269500Y-72643000D01*
X96269500Y-71883000D02*
X96269500Y-72643000D01*
X90269500Y-71883000D02*
X96269500Y-71883000D01*
X90269500Y-70933000D02*
X87609500Y-70933000D01*
X90269500Y-81213000D02*
X90269500Y-70933000D01*
X87609500Y-81213000D02*
X90269500Y-81213000D01*
X87609500Y-70933000D02*
X87609500Y-81213000D01*
G04 #@! TO.C,F3*
X93788130Y-59491422D02*
X93788130Y-60008578D01*
X95208130Y-59491422D02*
X95208130Y-60008578D01*
G04 #@! TO.C,F2*
X105790000Y-59741422D02*
X105790000Y-60258578D01*
X107210000Y-59741422D02*
X107210000Y-60258578D01*
G04 #@! TO.C,F1*
X117790000Y-59741422D02*
X117790000Y-60258578D01*
X119210000Y-59741422D02*
X119210000Y-60258578D01*
G04 #@! TO.C,D4*
X79250000Y-62500000D02*
X79250000Y-58600000D01*
X81250000Y-62500000D02*
X81250000Y-58600000D01*
X79250000Y-62500000D02*
X81250000Y-62500000D01*
G04 #@! TO.C,D3*
X69000000Y-65750000D02*
X65100000Y-65750000D01*
X69000000Y-63750000D02*
X65100000Y-63750000D01*
X69000000Y-65750000D02*
X69000000Y-63750000D01*
G04 #@! TO.C,D1*
X50960000Y-55940000D02*
X52170000Y-55940000D01*
X52170000Y-93020000D02*
X52170000Y-96230000D01*
X52170000Y-87940000D02*
X52170000Y-91500000D01*
X52170000Y-82860000D02*
X52170000Y-86420000D01*
X52170000Y-77780000D02*
X52170000Y-81340000D01*
X52170000Y-72700000D02*
X52170000Y-76260000D01*
X52170000Y-67620000D02*
X52170000Y-71180000D01*
X52170000Y-62540000D02*
X52170000Y-66100000D01*
X52170000Y-57460000D02*
X52170000Y-61020000D01*
X52170000Y-55270000D02*
X52170000Y-55940000D01*
X52170000Y-96230000D02*
X54830000Y-96230000D01*
X54830000Y-95560000D02*
X54830000Y-96230000D01*
X54830000Y-90480000D02*
X54830000Y-94040000D01*
X54830000Y-85400000D02*
X54830000Y-88960000D01*
X54830000Y-80320000D02*
X54830000Y-83880000D01*
X54830000Y-75240000D02*
X54830000Y-78800000D01*
X54830000Y-70160000D02*
X54830000Y-73720000D01*
X54830000Y-65080000D02*
X54830000Y-68640000D01*
X54830000Y-60000000D02*
X54830000Y-63560000D01*
X54830000Y-55270000D02*
X54830000Y-58480000D01*
X52170000Y-55270000D02*
X54830000Y-55270000D01*
G04 #@! TO.C,C9*
X75511252Y-63790000D02*
X74988748Y-63790000D01*
X75511252Y-65210000D02*
X74988748Y-65210000D01*
G04 #@! TO.C,C8*
X81290000Y-75738748D02*
X81290000Y-76261252D01*
X82710000Y-75738748D02*
X82710000Y-76261252D01*
G04 #@! TO.C,C7*
X60761252Y-75290000D02*
X60238748Y-75290000D01*
X60761252Y-76710000D02*
X60238748Y-76710000D01*
G04 #@! TO.C,C6*
X85040000Y-88488748D02*
X85040000Y-89011252D01*
X86460000Y-88488748D02*
X86460000Y-89011252D01*
G04 #@! TO.C,C5*
X70710000Y-73011252D02*
X70710000Y-72488748D01*
X69290000Y-73011252D02*
X69290000Y-72488748D01*
G04 #@! TO.C,C4*
X78960000Y-60261252D02*
X78960000Y-59738748D01*
X77540000Y-60261252D02*
X77540000Y-59738748D01*
G04 #@! TO.C,C3*
X71540000Y-60213748D02*
X71540000Y-60736252D01*
X72960000Y-60213748D02*
X72960000Y-60736252D01*
G04 #@! TO.C,C1*
X60210000Y-81111252D02*
X60210000Y-80588748D01*
X58790000Y-81111252D02*
X58790000Y-80588748D01*
G04 #@! TD*
G04 #@! TO.C,SW1*
D12*
X84666666Y-95904761D02*
X84809523Y-95952380D01*
X85047619Y-95952380D01*
X85142857Y-95904761D01*
X85190476Y-95857142D01*
X85238095Y-95761904D01*
X85238095Y-95666666D01*
X85190476Y-95571428D01*
X85142857Y-95523809D01*
X85047619Y-95476190D01*
X84857142Y-95428571D01*
X84761904Y-95380952D01*
X84714285Y-95333333D01*
X84666666Y-95238095D01*
X84666666Y-95142857D01*
X84714285Y-95047619D01*
X84761904Y-95000000D01*
X84857142Y-94952380D01*
X85095238Y-94952380D01*
X85238095Y-95000000D01*
X85571428Y-94952380D02*
X85809523Y-95952380D01*
X86000000Y-95238095D01*
X86190476Y-95952380D01*
X86428571Y-94952380D01*
X87333333Y-95952380D02*
X86761904Y-95952380D01*
X87047619Y-95952380D02*
X87047619Y-94952380D01*
X86952380Y-95095238D01*
X86857142Y-95190476D01*
X86761904Y-95238095D01*
G04 #@! TO.C,U1*
X69238095Y-75202380D02*
X69238095Y-76011904D01*
X69285714Y-76107142D01*
X69333333Y-76154761D01*
X69428571Y-76202380D01*
X69619047Y-76202380D01*
X69714285Y-76154761D01*
X69761904Y-76107142D01*
X69809523Y-76011904D01*
X69809523Y-75202380D01*
X70809523Y-76202380D02*
X70238095Y-76202380D01*
X70523809Y-76202380D02*
X70523809Y-75202380D01*
X70428571Y-75345238D01*
X70333333Y-75440476D01*
X70238095Y-75488095D01*
G04 #@! TO.C,Y1*
X66526190Y-85926190D02*
X67002380Y-85926190D01*
X66002380Y-86259523D02*
X66526190Y-85926190D01*
X66002380Y-85592857D01*
X67002380Y-84735714D02*
X67002380Y-85307142D01*
X67002380Y-85021428D02*
X66002380Y-85021428D01*
X66145238Y-85116666D01*
X66240476Y-85211904D01*
X66288095Y-85307142D01*
G04 #@! TO.C,C2*
X58107142Y-90016666D02*
X58154761Y-90064285D01*
X58202380Y-90207142D01*
X58202380Y-90302380D01*
X58154761Y-90445238D01*
X58059523Y-90540476D01*
X57964285Y-90588095D01*
X57773809Y-90635714D01*
X57630952Y-90635714D01*
X57440476Y-90588095D01*
X57345238Y-90540476D01*
X57250000Y-90445238D01*
X57202380Y-90302380D01*
X57202380Y-90207142D01*
X57250000Y-90064285D01*
X57297619Y-90016666D01*
X57297619Y-89635714D02*
X57250000Y-89588095D01*
X57202380Y-89492857D01*
X57202380Y-89254761D01*
X57250000Y-89159523D01*
X57297619Y-89111904D01*
X57392857Y-89064285D01*
X57488095Y-89064285D01*
X57630952Y-89111904D01*
X58202380Y-89683333D01*
X58202380Y-89064285D01*
G04 #@! TO.C,Y2*
X69476190Y-70226190D02*
X69952380Y-70226190D01*
X68952380Y-70559523D02*
X69476190Y-70226190D01*
X68952380Y-69892857D01*
X69047619Y-69607142D02*
X69000000Y-69559523D01*
X68952380Y-69464285D01*
X68952380Y-69226190D01*
X69000000Y-69130952D01*
X69047619Y-69083333D01*
X69142857Y-69035714D01*
X69238095Y-69035714D01*
X69380952Y-69083333D01*
X69952380Y-69654761D01*
X69952380Y-69035714D01*
G04 #@! TO.C,J2*
X76416666Y-86652380D02*
X76416666Y-87366666D01*
X76369047Y-87509523D01*
X76273809Y-87604761D01*
X76130952Y-87652380D01*
X76035714Y-87652380D01*
X76845238Y-86747619D02*
X76892857Y-86700000D01*
X76988095Y-86652380D01*
X77226190Y-86652380D01*
X77321428Y-86700000D01*
X77369047Y-86747619D01*
X77416666Y-86842857D01*
X77416666Y-86938095D01*
X77369047Y-87080952D01*
X76797619Y-87652380D01*
X77416666Y-87652380D01*
G04 #@! TO.C,J1*
X75666666Y-70902380D02*
X75666666Y-71616666D01*
X75619047Y-71759523D01*
X75523809Y-71854761D01*
X75380952Y-71902380D01*
X75285714Y-71902380D01*
X76666666Y-71902380D02*
X76095238Y-71902380D01*
X76380952Y-71902380D02*
X76380952Y-70902380D01*
X76285714Y-71045238D01*
X76190476Y-71140476D01*
X76095238Y-71188095D01*
G04 #@! TO.C,U4*
X80238095Y-65952380D02*
X80238095Y-66761904D01*
X80285714Y-66857142D01*
X80333333Y-66904761D01*
X80428571Y-66952380D01*
X80619047Y-66952380D01*
X80714285Y-66904761D01*
X80761904Y-66857142D01*
X80809523Y-66761904D01*
X80809523Y-65952380D01*
X81714285Y-66285714D02*
X81714285Y-66952380D01*
X81476190Y-65904761D02*
X81238095Y-66619047D01*
X81857142Y-66619047D01*
G04 #@! TO.C,U3*
X74238095Y-58452380D02*
X74238095Y-59261904D01*
X74285714Y-59357142D01*
X74333333Y-59404761D01*
X74428571Y-59452380D01*
X74619047Y-59452380D01*
X74714285Y-59404761D01*
X74761904Y-59357142D01*
X74809523Y-59261904D01*
X74809523Y-58452380D01*
X75190476Y-58452380D02*
X75809523Y-58452380D01*
X75476190Y-58833333D01*
X75619047Y-58833333D01*
X75714285Y-58880952D01*
X75761904Y-58928571D01*
X75809523Y-59023809D01*
X75809523Y-59261904D01*
X75761904Y-59357142D01*
X75714285Y-59404761D01*
X75619047Y-59452380D01*
X75333333Y-59452380D01*
X75238095Y-59404761D01*
X75190476Y-59357142D01*
G04 #@! TO.C,U2*
X65488095Y-58202380D02*
X65488095Y-59011904D01*
X65535714Y-59107142D01*
X65583333Y-59154761D01*
X65678571Y-59202380D01*
X65869047Y-59202380D01*
X65964285Y-59154761D01*
X66011904Y-59107142D01*
X66059523Y-59011904D01*
X66059523Y-58202380D01*
X66488095Y-58297619D02*
X66535714Y-58250000D01*
X66630952Y-58202380D01*
X66869047Y-58202380D01*
X66964285Y-58250000D01*
X67011904Y-58297619D01*
X67059523Y-58392857D01*
X67059523Y-58488095D01*
X67011904Y-58630952D01*
X66440476Y-59202380D01*
X67059523Y-59202380D01*
G04 #@! TO.C,R17*
X61607142Y-58702380D02*
X61273809Y-58226190D01*
X61035714Y-58702380D02*
X61035714Y-57702380D01*
X61416666Y-57702380D01*
X61511904Y-57750000D01*
X61559523Y-57797619D01*
X61607142Y-57892857D01*
X61607142Y-58035714D01*
X61559523Y-58130952D01*
X61511904Y-58178571D01*
X61416666Y-58226190D01*
X61035714Y-58226190D01*
X62559523Y-58702380D02*
X61988095Y-58702380D01*
X62273809Y-58702380D02*
X62273809Y-57702380D01*
X62178571Y-57845238D01*
X62083333Y-57940476D01*
X61988095Y-57988095D01*
X62892857Y-57702380D02*
X63559523Y-57702380D01*
X63130952Y-58702380D01*
G04 #@! TO.C,R16*
X60857142Y-70202380D02*
X60523809Y-69726190D01*
X60285714Y-70202380D02*
X60285714Y-69202380D01*
X60666666Y-69202380D01*
X60761904Y-69250000D01*
X60809523Y-69297619D01*
X60857142Y-69392857D01*
X60857142Y-69535714D01*
X60809523Y-69630952D01*
X60761904Y-69678571D01*
X60666666Y-69726190D01*
X60285714Y-69726190D01*
X61809523Y-70202380D02*
X61238095Y-70202380D01*
X61523809Y-70202380D02*
X61523809Y-69202380D01*
X61428571Y-69345238D01*
X61333333Y-69440476D01*
X61238095Y-69488095D01*
X62666666Y-69202380D02*
X62476190Y-69202380D01*
X62380952Y-69250000D01*
X62333333Y-69297619D01*
X62238095Y-69440476D01*
X62190476Y-69630952D01*
X62190476Y-70011904D01*
X62238095Y-70107142D01*
X62285714Y-70154761D01*
X62380952Y-70202380D01*
X62571428Y-70202380D01*
X62666666Y-70154761D01*
X62714285Y-70107142D01*
X62761904Y-70011904D01*
X62761904Y-69773809D01*
X62714285Y-69678571D01*
X62666666Y-69630952D01*
X62571428Y-69583333D01*
X62380952Y-69583333D01*
X62285714Y-69630952D01*
X62238095Y-69678571D01*
X62190476Y-69773809D01*
G04 #@! TO.C,R15*
X61857142Y-69202380D02*
X61523809Y-68726190D01*
X61285714Y-69202380D02*
X61285714Y-68202380D01*
X61666666Y-68202380D01*
X61761904Y-68250000D01*
X61809523Y-68297619D01*
X61857142Y-68392857D01*
X61857142Y-68535714D01*
X61809523Y-68630952D01*
X61761904Y-68678571D01*
X61666666Y-68726190D01*
X61285714Y-68726190D01*
X62809523Y-69202380D02*
X62238095Y-69202380D01*
X62523809Y-69202380D02*
X62523809Y-68202380D01*
X62428571Y-68345238D01*
X62333333Y-68440476D01*
X62238095Y-68488095D01*
X63714285Y-68202380D02*
X63238095Y-68202380D01*
X63190476Y-68678571D01*
X63238095Y-68630952D01*
X63333333Y-68583333D01*
X63571428Y-68583333D01*
X63666666Y-68630952D01*
X63714285Y-68678571D01*
X63761904Y-68773809D01*
X63761904Y-69011904D01*
X63714285Y-69107142D01*
X63666666Y-69154761D01*
X63571428Y-69202380D01*
X63333333Y-69202380D01*
X63238095Y-69154761D01*
X63190476Y-69107142D01*
G04 #@! TO.C,R14*
X68852380Y-82642857D02*
X68376190Y-82976190D01*
X68852380Y-83214285D02*
X67852380Y-83214285D01*
X67852380Y-82833333D01*
X67900000Y-82738095D01*
X67947619Y-82690476D01*
X68042857Y-82642857D01*
X68185714Y-82642857D01*
X68280952Y-82690476D01*
X68328571Y-82738095D01*
X68376190Y-82833333D01*
X68376190Y-83214285D01*
X68852380Y-81690476D02*
X68852380Y-82261904D01*
X68852380Y-81976190D02*
X67852380Y-81976190D01*
X67995238Y-82071428D01*
X68090476Y-82166666D01*
X68138095Y-82261904D01*
X68185714Y-80833333D02*
X68852380Y-80833333D01*
X67804761Y-81071428D02*
X68519047Y-81309523D01*
X68519047Y-80690476D01*
G04 #@! TO.C,R13*
X87852380Y-85392857D02*
X87376190Y-85726190D01*
X87852380Y-85964285D02*
X86852380Y-85964285D01*
X86852380Y-85583333D01*
X86900000Y-85488095D01*
X86947619Y-85440476D01*
X87042857Y-85392857D01*
X87185714Y-85392857D01*
X87280952Y-85440476D01*
X87328571Y-85488095D01*
X87376190Y-85583333D01*
X87376190Y-85964285D01*
X87852380Y-84440476D02*
X87852380Y-85011904D01*
X87852380Y-84726190D02*
X86852380Y-84726190D01*
X86995238Y-84821428D01*
X87090476Y-84916666D01*
X87138095Y-85011904D01*
X86852380Y-84107142D02*
X86852380Y-83488095D01*
X87233333Y-83821428D01*
X87233333Y-83678571D01*
X87280952Y-83583333D01*
X87328571Y-83535714D01*
X87423809Y-83488095D01*
X87661904Y-83488095D01*
X87757142Y-83535714D01*
X87804761Y-83583333D01*
X87852380Y-83678571D01*
X87852380Y-83964285D01*
X87804761Y-84059523D01*
X87757142Y-84107142D01*
G04 #@! TO.C,R12*
X83952380Y-85642857D02*
X83476190Y-85976190D01*
X83952380Y-86214285D02*
X82952380Y-86214285D01*
X82952380Y-85833333D01*
X83000000Y-85738095D01*
X83047619Y-85690476D01*
X83142857Y-85642857D01*
X83285714Y-85642857D01*
X83380952Y-85690476D01*
X83428571Y-85738095D01*
X83476190Y-85833333D01*
X83476190Y-86214285D01*
X83952380Y-84690476D02*
X83952380Y-85261904D01*
X83952380Y-84976190D02*
X82952380Y-84976190D01*
X83095238Y-85071428D01*
X83190476Y-85166666D01*
X83238095Y-85261904D01*
X83047619Y-84309523D02*
X83000000Y-84261904D01*
X82952380Y-84166666D01*
X82952380Y-83928571D01*
X83000000Y-83833333D01*
X83047619Y-83785714D01*
X83142857Y-83738095D01*
X83238095Y-83738095D01*
X83380952Y-83785714D01*
X83952380Y-84357142D01*
X83952380Y-83738095D01*
G04 #@! TO.C,R11*
X58302380Y-85992857D02*
X57826190Y-86326190D01*
X58302380Y-86564285D02*
X57302380Y-86564285D01*
X57302380Y-86183333D01*
X57350000Y-86088095D01*
X57397619Y-86040476D01*
X57492857Y-85992857D01*
X57635714Y-85992857D01*
X57730952Y-86040476D01*
X57778571Y-86088095D01*
X57826190Y-86183333D01*
X57826190Y-86564285D01*
X58302380Y-85040476D02*
X58302380Y-85611904D01*
X58302380Y-85326190D02*
X57302380Y-85326190D01*
X57445238Y-85421428D01*
X57540476Y-85516666D01*
X57588095Y-85611904D01*
X58302380Y-84088095D02*
X58302380Y-84659523D01*
X58302380Y-84373809D02*
X57302380Y-84373809D01*
X57445238Y-84469047D01*
X57540476Y-84564285D01*
X57588095Y-84659523D01*
G04 #@! TO.C,R10*
X68857142Y-59202380D02*
X68523809Y-58726190D01*
X68285714Y-59202380D02*
X68285714Y-58202380D01*
X68666666Y-58202380D01*
X68761904Y-58250000D01*
X68809523Y-58297619D01*
X68857142Y-58392857D01*
X68857142Y-58535714D01*
X68809523Y-58630952D01*
X68761904Y-58678571D01*
X68666666Y-58726190D01*
X68285714Y-58726190D01*
X69809523Y-59202380D02*
X69238095Y-59202380D01*
X69523809Y-59202380D02*
X69523809Y-58202380D01*
X69428571Y-58345238D01*
X69333333Y-58440476D01*
X69238095Y-58488095D01*
X70428571Y-58202380D02*
X70523809Y-58202380D01*
X70619047Y-58250000D01*
X70666666Y-58297619D01*
X70714285Y-58392857D01*
X70761904Y-58583333D01*
X70761904Y-58821428D01*
X70714285Y-59011904D01*
X70666666Y-59107142D01*
X70619047Y-59154761D01*
X70523809Y-59202380D01*
X70428571Y-59202380D01*
X70333333Y-59154761D01*
X70285714Y-59107142D01*
X70238095Y-59011904D01*
X70190476Y-58821428D01*
X70190476Y-58583333D01*
X70238095Y-58392857D01*
X70285714Y-58297619D01*
X70333333Y-58250000D01*
X70428571Y-58202380D01*
G04 #@! TO.C,R9*
X99333333Y-63202380D02*
X99000000Y-62726190D01*
X98761904Y-63202380D02*
X98761904Y-62202380D01*
X99142857Y-62202380D01*
X99238095Y-62250000D01*
X99285714Y-62297619D01*
X99333333Y-62392857D01*
X99333333Y-62535714D01*
X99285714Y-62630952D01*
X99238095Y-62678571D01*
X99142857Y-62726190D01*
X98761904Y-62726190D01*
X99809523Y-63202380D02*
X100000000Y-63202380D01*
X100095238Y-63154761D01*
X100142857Y-63107142D01*
X100238095Y-62964285D01*
X100285714Y-62773809D01*
X100285714Y-62392857D01*
X100238095Y-62297619D01*
X100190476Y-62250000D01*
X100095238Y-62202380D01*
X99904761Y-62202380D01*
X99809523Y-62250000D01*
X99761904Y-62297619D01*
X99714285Y-62392857D01*
X99714285Y-62630952D01*
X99761904Y-62726190D01*
X99809523Y-62773809D01*
X99904761Y-62821428D01*
X100095238Y-62821428D01*
X100190476Y-62773809D01*
X100238095Y-62726190D01*
X100285714Y-62630952D01*
G04 #@! TO.C,R8*
X111333333Y-63202380D02*
X111000000Y-62726190D01*
X110761904Y-63202380D02*
X110761904Y-62202380D01*
X111142857Y-62202380D01*
X111238095Y-62250000D01*
X111285714Y-62297619D01*
X111333333Y-62392857D01*
X111333333Y-62535714D01*
X111285714Y-62630952D01*
X111238095Y-62678571D01*
X111142857Y-62726190D01*
X110761904Y-62726190D01*
X111904761Y-62630952D02*
X111809523Y-62583333D01*
X111761904Y-62535714D01*
X111714285Y-62440476D01*
X111714285Y-62392857D01*
X111761904Y-62297619D01*
X111809523Y-62250000D01*
X111904761Y-62202380D01*
X112095238Y-62202380D01*
X112190476Y-62250000D01*
X112238095Y-62297619D01*
X112285714Y-62392857D01*
X112285714Y-62440476D01*
X112238095Y-62535714D01*
X112190476Y-62583333D01*
X112095238Y-62630952D01*
X111904761Y-62630952D01*
X111809523Y-62678571D01*
X111761904Y-62726190D01*
X111714285Y-62821428D01*
X111714285Y-63011904D01*
X111761904Y-63107142D01*
X111809523Y-63154761D01*
X111904761Y-63202380D01*
X112095238Y-63202380D01*
X112190476Y-63154761D01*
X112238095Y-63107142D01*
X112285714Y-63011904D01*
X112285714Y-62821428D01*
X112238095Y-62726190D01*
X112190476Y-62678571D01*
X112095238Y-62630952D01*
G04 #@! TO.C,R7*
X123333333Y-63202380D02*
X123000000Y-62726190D01*
X122761904Y-63202380D02*
X122761904Y-62202380D01*
X123142857Y-62202380D01*
X123238095Y-62250000D01*
X123285714Y-62297619D01*
X123333333Y-62392857D01*
X123333333Y-62535714D01*
X123285714Y-62630952D01*
X123238095Y-62678571D01*
X123142857Y-62726190D01*
X122761904Y-62726190D01*
X123666666Y-62202380D02*
X124333333Y-62202380D01*
X123904761Y-63202380D01*
G04 #@! TO.C,R6*
X82833333Y-81952380D02*
X82500000Y-81476190D01*
X82261904Y-81952380D02*
X82261904Y-80952380D01*
X82642857Y-80952380D01*
X82738095Y-81000000D01*
X82785714Y-81047619D01*
X82833333Y-81142857D01*
X82833333Y-81285714D01*
X82785714Y-81380952D01*
X82738095Y-81428571D01*
X82642857Y-81476190D01*
X82261904Y-81476190D01*
X83690476Y-80952380D02*
X83500000Y-80952380D01*
X83404761Y-81000000D01*
X83357142Y-81047619D01*
X83261904Y-81190476D01*
X83214285Y-81380952D01*
X83214285Y-81761904D01*
X83261904Y-81857142D01*
X83309523Y-81904761D01*
X83404761Y-81952380D01*
X83595238Y-81952380D01*
X83690476Y-81904761D01*
X83738095Y-81857142D01*
X83785714Y-81761904D01*
X83785714Y-81523809D01*
X83738095Y-81428571D01*
X83690476Y-81380952D01*
X83595238Y-81333333D01*
X83404761Y-81333333D01*
X83309523Y-81380952D01*
X83261904Y-81428571D01*
X83214285Y-81523809D01*
G04 #@! TO.C,R5*
X96833333Y-63202380D02*
X96500000Y-62726190D01*
X96261904Y-63202380D02*
X96261904Y-62202380D01*
X96642857Y-62202380D01*
X96738095Y-62250000D01*
X96785714Y-62297619D01*
X96833333Y-62392857D01*
X96833333Y-62535714D01*
X96785714Y-62630952D01*
X96738095Y-62678571D01*
X96642857Y-62726190D01*
X96261904Y-62726190D01*
X97738095Y-62202380D02*
X97261904Y-62202380D01*
X97214285Y-62678571D01*
X97261904Y-62630952D01*
X97357142Y-62583333D01*
X97595238Y-62583333D01*
X97690476Y-62630952D01*
X97738095Y-62678571D01*
X97785714Y-62773809D01*
X97785714Y-63011904D01*
X97738095Y-63107142D01*
X97690476Y-63154761D01*
X97595238Y-63202380D01*
X97357142Y-63202380D01*
X97261904Y-63154761D01*
X97214285Y-63107142D01*
G04 #@! TO.C,R4*
X120833333Y-63202380D02*
X120500000Y-62726190D01*
X120261904Y-63202380D02*
X120261904Y-62202380D01*
X120642857Y-62202380D01*
X120738095Y-62250000D01*
X120785714Y-62297619D01*
X120833333Y-62392857D01*
X120833333Y-62535714D01*
X120785714Y-62630952D01*
X120738095Y-62678571D01*
X120642857Y-62726190D01*
X120261904Y-62726190D01*
X121690476Y-62535714D02*
X121690476Y-63202380D01*
X121452380Y-62154761D02*
X121214285Y-62869047D01*
X121833333Y-62869047D01*
G04 #@! TO.C,R3*
X79952380Y-86416666D02*
X79476190Y-86750000D01*
X79952380Y-86988095D02*
X78952380Y-86988095D01*
X78952380Y-86607142D01*
X79000000Y-86511904D01*
X79047619Y-86464285D01*
X79142857Y-86416666D01*
X79285714Y-86416666D01*
X79380952Y-86464285D01*
X79428571Y-86511904D01*
X79476190Y-86607142D01*
X79476190Y-86988095D01*
X78952380Y-86083333D02*
X78952380Y-85464285D01*
X79333333Y-85797619D01*
X79333333Y-85654761D01*
X79380952Y-85559523D01*
X79428571Y-85511904D01*
X79523809Y-85464285D01*
X79761904Y-85464285D01*
X79857142Y-85511904D01*
X79904761Y-85559523D01*
X79952380Y-85654761D01*
X79952380Y-85940476D01*
X79904761Y-86035714D01*
X79857142Y-86083333D01*
G04 #@! TO.C,R2*
X108833333Y-63202380D02*
X108500000Y-62726190D01*
X108261904Y-63202380D02*
X108261904Y-62202380D01*
X108642857Y-62202380D01*
X108738095Y-62250000D01*
X108785714Y-62297619D01*
X108833333Y-62392857D01*
X108833333Y-62535714D01*
X108785714Y-62630952D01*
X108738095Y-62678571D01*
X108642857Y-62726190D01*
X108261904Y-62726190D01*
X109214285Y-62297619D02*
X109261904Y-62250000D01*
X109357142Y-62202380D01*
X109595238Y-62202380D01*
X109690476Y-62250000D01*
X109738095Y-62297619D01*
X109785714Y-62392857D01*
X109785714Y-62488095D01*
X109738095Y-62630952D01*
X109166666Y-63202380D01*
X109785714Y-63202380D01*
G04 #@! TO.C,R1*
X82102380Y-73166666D02*
X81626190Y-73500000D01*
X82102380Y-73738095D02*
X81102380Y-73738095D01*
X81102380Y-73357142D01*
X81150000Y-73261904D01*
X81197619Y-73214285D01*
X81292857Y-73166666D01*
X81435714Y-73166666D01*
X81530952Y-73214285D01*
X81578571Y-73261904D01*
X81626190Y-73357142D01*
X81626190Y-73738095D01*
X82102380Y-72214285D02*
X82102380Y-72785714D01*
X82102380Y-72500000D02*
X81102380Y-72500000D01*
X81245238Y-72595238D01*
X81340476Y-72690476D01*
X81388095Y-72785714D01*
G04 #@! TO.C,Q3*
X58654761Y-58797619D02*
X58559523Y-58750000D01*
X58464285Y-58654761D01*
X58321428Y-58511904D01*
X58226190Y-58464285D01*
X58130952Y-58464285D01*
X58178571Y-58702380D02*
X58083333Y-58654761D01*
X57988095Y-58559523D01*
X57940476Y-58369047D01*
X57940476Y-58035714D01*
X57988095Y-57845238D01*
X58083333Y-57750000D01*
X58178571Y-57702380D01*
X58369047Y-57702380D01*
X58464285Y-57750000D01*
X58559523Y-57845238D01*
X58607142Y-58035714D01*
X58607142Y-58369047D01*
X58559523Y-58559523D01*
X58464285Y-58654761D01*
X58369047Y-58702380D01*
X58178571Y-58702380D01*
X58940476Y-57702380D02*
X59559523Y-57702380D01*
X59226190Y-58083333D01*
X59369047Y-58083333D01*
X59464285Y-58130952D01*
X59511904Y-58178571D01*
X59559523Y-58273809D01*
X59559523Y-58511904D01*
X59511904Y-58607142D01*
X59464285Y-58654761D01*
X59369047Y-58702380D01*
X59083333Y-58702380D01*
X58988095Y-58654761D01*
X58940476Y-58607142D01*
G04 #@! TO.C,Q2*
X58904761Y-69297619D02*
X58809523Y-69250000D01*
X58714285Y-69154761D01*
X58571428Y-69011904D01*
X58476190Y-68964285D01*
X58380952Y-68964285D01*
X58428571Y-69202380D02*
X58333333Y-69154761D01*
X58238095Y-69059523D01*
X58190476Y-68869047D01*
X58190476Y-68535714D01*
X58238095Y-68345238D01*
X58333333Y-68250000D01*
X58428571Y-68202380D01*
X58619047Y-68202380D01*
X58714285Y-68250000D01*
X58809523Y-68345238D01*
X58857142Y-68535714D01*
X58857142Y-68869047D01*
X58809523Y-69059523D01*
X58714285Y-69154761D01*
X58619047Y-69202380D01*
X58428571Y-69202380D01*
X59238095Y-68297619D02*
X59285714Y-68250000D01*
X59380952Y-68202380D01*
X59619047Y-68202380D01*
X59714285Y-68250000D01*
X59761904Y-68297619D01*
X59809523Y-68392857D01*
X59809523Y-68488095D01*
X59761904Y-68630952D01*
X59190476Y-69202380D01*
X59809523Y-69202380D01*
G04 #@! TO.C,Q1*
X58904761Y-75047619D02*
X58809523Y-75000000D01*
X58714285Y-74904761D01*
X58571428Y-74761904D01*
X58476190Y-74714285D01*
X58380952Y-74714285D01*
X58428571Y-74952380D02*
X58333333Y-74904761D01*
X58238095Y-74809523D01*
X58190476Y-74619047D01*
X58190476Y-74285714D01*
X58238095Y-74095238D01*
X58333333Y-74000000D01*
X58428571Y-73952380D01*
X58619047Y-73952380D01*
X58714285Y-74000000D01*
X58809523Y-74095238D01*
X58857142Y-74285714D01*
X58857142Y-74619047D01*
X58809523Y-74809523D01*
X58714285Y-74904761D01*
X58619047Y-74952380D01*
X58428571Y-74952380D01*
X59809523Y-74952380D02*
X59238095Y-74952380D01*
X59523809Y-74952380D02*
X59523809Y-73952380D01*
X59428571Y-74095238D01*
X59333333Y-74190476D01*
X59238095Y-74238095D01*
G04 #@! TO.C,J8*
X64666666Y-97452380D02*
X64666666Y-98166666D01*
X64619047Y-98309523D01*
X64523809Y-98404761D01*
X64380952Y-98452380D01*
X64285714Y-98452380D01*
X65285714Y-97880952D02*
X65190476Y-97833333D01*
X65142857Y-97785714D01*
X65095238Y-97690476D01*
X65095238Y-97642857D01*
X65142857Y-97547619D01*
X65190476Y-97500000D01*
X65285714Y-97452380D01*
X65476190Y-97452380D01*
X65571428Y-97500000D01*
X65619047Y-97547619D01*
X65666666Y-97642857D01*
X65666666Y-97690476D01*
X65619047Y-97785714D01*
X65571428Y-97833333D01*
X65476190Y-97880952D01*
X65285714Y-97880952D01*
X65190476Y-97928571D01*
X65142857Y-97976190D01*
X65095238Y-98071428D01*
X65095238Y-98261904D01*
X65142857Y-98357142D01*
X65190476Y-98404761D01*
X65285714Y-98452380D01*
X65476190Y-98452380D01*
X65571428Y-98404761D01*
X65619047Y-98357142D01*
X65666666Y-98261904D01*
X65666666Y-98071428D01*
X65619047Y-97976190D01*
X65571428Y-97928571D01*
X65476190Y-97880952D01*
G04 #@! TO.C,J5*
X86166666Y-69202380D02*
X86166666Y-69916666D01*
X86119047Y-70059523D01*
X86023809Y-70154761D01*
X85880952Y-70202380D01*
X85785714Y-70202380D01*
X87119047Y-69202380D02*
X86642857Y-69202380D01*
X86595238Y-69678571D01*
X86642857Y-69630952D01*
X86738095Y-69583333D01*
X86976190Y-69583333D01*
X87071428Y-69630952D01*
X87119047Y-69678571D01*
X87166666Y-69773809D01*
X87166666Y-70011904D01*
X87119047Y-70107142D01*
X87071428Y-70154761D01*
X86976190Y-70202380D01*
X86738095Y-70202380D01*
X86642857Y-70154761D01*
X86595238Y-70107142D01*
G04 #@! TO.C,F3*
X94166666Y-62678571D02*
X93833333Y-62678571D01*
X93833333Y-63202380D02*
X93833333Y-62202380D01*
X94309523Y-62202380D01*
X94595238Y-62202380D02*
X95214285Y-62202380D01*
X94880952Y-62583333D01*
X95023809Y-62583333D01*
X95119047Y-62630952D01*
X95166666Y-62678571D01*
X95214285Y-62773809D01*
X95214285Y-63011904D01*
X95166666Y-63107142D01*
X95119047Y-63154761D01*
X95023809Y-63202380D01*
X94738095Y-63202380D01*
X94642857Y-63154761D01*
X94595238Y-63107142D01*
G04 #@! TO.C,F2*
X106166666Y-62678571D02*
X105833333Y-62678571D01*
X105833333Y-63202380D02*
X105833333Y-62202380D01*
X106309523Y-62202380D01*
X106642857Y-62297619D02*
X106690476Y-62250000D01*
X106785714Y-62202380D01*
X107023809Y-62202380D01*
X107119047Y-62250000D01*
X107166666Y-62297619D01*
X107214285Y-62392857D01*
X107214285Y-62488095D01*
X107166666Y-62630952D01*
X106595238Y-63202380D01*
X107214285Y-63202380D01*
G04 #@! TO.C,F1*
X118166666Y-62678571D02*
X117833333Y-62678571D01*
X117833333Y-63202380D02*
X117833333Y-62202380D01*
X118309523Y-62202380D01*
X119214285Y-63202380D02*
X118642857Y-63202380D01*
X118928571Y-63202380D02*
X118928571Y-62202380D01*
X118833333Y-62345238D01*
X118738095Y-62440476D01*
X118642857Y-62488095D01*
G04 #@! TO.C,D4*
X79511904Y-63952380D02*
X79511904Y-62952380D01*
X79750000Y-62952380D01*
X79892857Y-63000000D01*
X79988095Y-63095238D01*
X80035714Y-63190476D01*
X80083333Y-63380952D01*
X80083333Y-63523809D01*
X80035714Y-63714285D01*
X79988095Y-63809523D01*
X79892857Y-63904761D01*
X79750000Y-63952380D01*
X79511904Y-63952380D01*
X80940476Y-63285714D02*
X80940476Y-63952380D01*
X80702380Y-62904761D02*
X80464285Y-63619047D01*
X81083333Y-63619047D01*
G04 #@! TO.C,D3*
X69511904Y-65202380D02*
X69511904Y-64202380D01*
X69750000Y-64202380D01*
X69892857Y-64250000D01*
X69988095Y-64345238D01*
X70035714Y-64440476D01*
X70083333Y-64630952D01*
X70083333Y-64773809D01*
X70035714Y-64964285D01*
X69988095Y-65059523D01*
X69892857Y-65154761D01*
X69750000Y-65202380D01*
X69511904Y-65202380D01*
X70416666Y-64202380D02*
X71035714Y-64202380D01*
X70702380Y-64583333D01*
X70845238Y-64583333D01*
X70940476Y-64630952D01*
X70988095Y-64678571D01*
X71035714Y-64773809D01*
X71035714Y-65011904D01*
X70988095Y-65107142D01*
X70940476Y-65154761D01*
X70845238Y-65202380D01*
X70559523Y-65202380D01*
X70464285Y-65154761D01*
X70416666Y-65107142D01*
G04 #@! TO.C,D1*
X52761904Y-54282380D02*
X52761904Y-53282380D01*
X53000000Y-53282380D01*
X53142857Y-53330000D01*
X53238095Y-53425238D01*
X53285714Y-53520476D01*
X53333333Y-53710952D01*
X53333333Y-53853809D01*
X53285714Y-54044285D01*
X53238095Y-54139523D01*
X53142857Y-54234761D01*
X53000000Y-54282380D01*
X52761904Y-54282380D01*
X54285714Y-54282380D02*
X53714285Y-54282380D01*
X54000000Y-54282380D02*
X54000000Y-53282380D01*
X53904761Y-53425238D01*
X53809523Y-53520476D01*
X53714285Y-53568095D01*
G04 #@! TO.C,C9*
X74833333Y-66607142D02*
X74785714Y-66654761D01*
X74642857Y-66702380D01*
X74547619Y-66702380D01*
X74404761Y-66654761D01*
X74309523Y-66559523D01*
X74261904Y-66464285D01*
X74214285Y-66273809D01*
X74214285Y-66130952D01*
X74261904Y-65940476D01*
X74309523Y-65845238D01*
X74404761Y-65750000D01*
X74547619Y-65702380D01*
X74642857Y-65702380D01*
X74785714Y-65750000D01*
X74833333Y-65797619D01*
X75309523Y-66702380D02*
X75500000Y-66702380D01*
X75595238Y-66654761D01*
X75642857Y-66607142D01*
X75738095Y-66464285D01*
X75785714Y-66273809D01*
X75785714Y-65892857D01*
X75738095Y-65797619D01*
X75690476Y-65750000D01*
X75595238Y-65702380D01*
X75404761Y-65702380D01*
X75309523Y-65750000D01*
X75261904Y-65797619D01*
X75214285Y-65892857D01*
X75214285Y-66130952D01*
X75261904Y-66226190D01*
X75309523Y-66273809D01*
X75404761Y-66321428D01*
X75595238Y-66321428D01*
X75690476Y-66273809D01*
X75738095Y-66226190D01*
X75785714Y-66130952D01*
G04 #@! TO.C,C8*
X84007142Y-75916666D02*
X84054761Y-75964285D01*
X84102380Y-76107142D01*
X84102380Y-76202380D01*
X84054761Y-76345238D01*
X83959523Y-76440476D01*
X83864285Y-76488095D01*
X83673809Y-76535714D01*
X83530952Y-76535714D01*
X83340476Y-76488095D01*
X83245238Y-76440476D01*
X83150000Y-76345238D01*
X83102380Y-76202380D01*
X83102380Y-76107142D01*
X83150000Y-75964285D01*
X83197619Y-75916666D01*
X83530952Y-75345238D02*
X83483333Y-75440476D01*
X83435714Y-75488095D01*
X83340476Y-75535714D01*
X83292857Y-75535714D01*
X83197619Y-75488095D01*
X83150000Y-75440476D01*
X83102380Y-75345238D01*
X83102380Y-75154761D01*
X83150000Y-75059523D01*
X83197619Y-75011904D01*
X83292857Y-74964285D01*
X83340476Y-74964285D01*
X83435714Y-75011904D01*
X83483333Y-75059523D01*
X83530952Y-75154761D01*
X83530952Y-75345238D01*
X83578571Y-75440476D01*
X83626190Y-75488095D01*
X83721428Y-75535714D01*
X83911904Y-75535714D01*
X84007142Y-75488095D01*
X84054761Y-75440476D01*
X84102380Y-75345238D01*
X84102380Y-75154761D01*
X84054761Y-75059523D01*
X84007142Y-75011904D01*
X83911904Y-74964285D01*
X83721428Y-74964285D01*
X83626190Y-75011904D01*
X83578571Y-75059523D01*
X83530952Y-75154761D01*
G04 #@! TO.C,C7*
X60333333Y-78007142D02*
X60285714Y-78054761D01*
X60142857Y-78102380D01*
X60047619Y-78102380D01*
X59904761Y-78054761D01*
X59809523Y-77959523D01*
X59761904Y-77864285D01*
X59714285Y-77673809D01*
X59714285Y-77530952D01*
X59761904Y-77340476D01*
X59809523Y-77245238D01*
X59904761Y-77150000D01*
X60047619Y-77102380D01*
X60142857Y-77102380D01*
X60285714Y-77150000D01*
X60333333Y-77197619D01*
X60666666Y-77102380D02*
X61333333Y-77102380D01*
X60904761Y-78102380D01*
G04 #@! TO.C,C6*
X87757142Y-88916666D02*
X87804761Y-88964285D01*
X87852380Y-89107142D01*
X87852380Y-89202380D01*
X87804761Y-89345238D01*
X87709523Y-89440476D01*
X87614285Y-89488095D01*
X87423809Y-89535714D01*
X87280952Y-89535714D01*
X87090476Y-89488095D01*
X86995238Y-89440476D01*
X86900000Y-89345238D01*
X86852380Y-89202380D01*
X86852380Y-89107142D01*
X86900000Y-88964285D01*
X86947619Y-88916666D01*
X86852380Y-88059523D02*
X86852380Y-88250000D01*
X86900000Y-88345238D01*
X86947619Y-88392857D01*
X87090476Y-88488095D01*
X87280952Y-88535714D01*
X87661904Y-88535714D01*
X87757142Y-88488095D01*
X87804761Y-88440476D01*
X87852380Y-88345238D01*
X87852380Y-88154761D01*
X87804761Y-88059523D01*
X87757142Y-88011904D01*
X87661904Y-87964285D01*
X87423809Y-87964285D01*
X87328571Y-88011904D01*
X87280952Y-88059523D01*
X87233333Y-88154761D01*
X87233333Y-88345238D01*
X87280952Y-88440476D01*
X87328571Y-88488095D01*
X87423809Y-88535714D01*
G04 #@! TO.C,C5*
X72107142Y-72916666D02*
X72154761Y-72964285D01*
X72202380Y-73107142D01*
X72202380Y-73202380D01*
X72154761Y-73345238D01*
X72059523Y-73440476D01*
X71964285Y-73488095D01*
X71773809Y-73535714D01*
X71630952Y-73535714D01*
X71440476Y-73488095D01*
X71345238Y-73440476D01*
X71250000Y-73345238D01*
X71202380Y-73202380D01*
X71202380Y-73107142D01*
X71250000Y-72964285D01*
X71297619Y-72916666D01*
X71202380Y-72011904D02*
X71202380Y-72488095D01*
X71678571Y-72535714D01*
X71630952Y-72488095D01*
X71583333Y-72392857D01*
X71583333Y-72154761D01*
X71630952Y-72059523D01*
X71678571Y-72011904D01*
X71773809Y-71964285D01*
X72011904Y-71964285D01*
X72107142Y-72011904D01*
X72154761Y-72059523D01*
X72202380Y-72154761D01*
X72202380Y-72392857D01*
X72154761Y-72488095D01*
X72107142Y-72535714D01*
G04 #@! TO.C,C4*
X77833333Y-63107142D02*
X77785714Y-63154761D01*
X77642857Y-63202380D01*
X77547619Y-63202380D01*
X77404761Y-63154761D01*
X77309523Y-63059523D01*
X77261904Y-62964285D01*
X77214285Y-62773809D01*
X77214285Y-62630952D01*
X77261904Y-62440476D01*
X77309523Y-62345238D01*
X77404761Y-62250000D01*
X77547619Y-62202380D01*
X77642857Y-62202380D01*
X77785714Y-62250000D01*
X77833333Y-62297619D01*
X78690476Y-62535714D02*
X78690476Y-63202380D01*
X78452380Y-62154761D02*
X78214285Y-62869047D01*
X78833333Y-62869047D01*
G04 #@! TO.C,C3*
X72083333Y-63607142D02*
X72035714Y-63654761D01*
X71892857Y-63702380D01*
X71797619Y-63702380D01*
X71654761Y-63654761D01*
X71559523Y-63559523D01*
X71511904Y-63464285D01*
X71464285Y-63273809D01*
X71464285Y-63130952D01*
X71511904Y-62940476D01*
X71559523Y-62845238D01*
X71654761Y-62750000D01*
X71797619Y-62702380D01*
X71892857Y-62702380D01*
X72035714Y-62750000D01*
X72083333Y-62797619D01*
X72416666Y-62702380D02*
X73035714Y-62702380D01*
X72702380Y-63083333D01*
X72845238Y-63083333D01*
X72940476Y-63130952D01*
X72988095Y-63178571D01*
X73035714Y-63273809D01*
X73035714Y-63511904D01*
X72988095Y-63607142D01*
X72940476Y-63654761D01*
X72845238Y-63702380D01*
X72559523Y-63702380D01*
X72464285Y-63654761D01*
X72416666Y-63607142D01*
G04 #@! TO.C,C1*
X58207142Y-81016666D02*
X58254761Y-81064285D01*
X58302380Y-81207142D01*
X58302380Y-81302380D01*
X58254761Y-81445238D01*
X58159523Y-81540476D01*
X58064285Y-81588095D01*
X57873809Y-81635714D01*
X57730952Y-81635714D01*
X57540476Y-81588095D01*
X57445238Y-81540476D01*
X57350000Y-81445238D01*
X57302380Y-81302380D01*
X57302380Y-81207142D01*
X57350000Y-81064285D01*
X57397619Y-81016666D01*
X58302380Y-80064285D02*
X58302380Y-80635714D01*
X58302380Y-80350000D02*
X57302380Y-80350000D01*
X57445238Y-80445238D01*
X57540476Y-80540476D01*
X57588095Y-80635714D01*
G04 #@! TD*
M02*
