M48
; DRILL file {KiCad (5.1.2)-2} date 11/30/2019 1:11:43 PM
; FORMAT={-:-/ absolute / inch / decimal}
; #@! TF.CreationDate,2019-11-30T13:11:43+01:00
; #@! TF.GenerationSoftware,Kicad,Pcbnew,(5.1.2)-2
FMAT,2
INCH
T1C0.0157
T2C0.0236
T3C0.0374
T4C0.0394
%
G90
G05
T1
X1.9685Y-3.5433
X1.9685Y-3.6417
X1.9685Y-3.7402
X1.9685Y-3.8386
X2.0079Y-2.126
X2.0276Y-2.4803
X2.0374Y-2.687
X2.0374Y-3.1693
X2.0394Y-2.7323
X2.0472Y-2.3228
X2.0669Y-3.8386
X2.0768Y-3.1102
X2.1161Y-3.1398
X2.1181Y-2.5748
X2.1654Y-2.2047
X2.1654Y-3.8386
X2.2343Y-3.0807
X2.2598Y-3.0
X2.2638Y-3.5531
X2.2638Y-3.8386
X2.2677Y-3.1988
X2.2835Y-2.9232
X2.3622Y-3.8386
X2.4125Y-2.5125
X2.4125Y-3.6375
X2.4409Y-2.7165
X2.4606Y-3.8386
X2.51Y-2.3
X2.5591Y-3.8386
X2.57Y-2.925
X2.6083Y-2.7362
X2.616Y-2.888
X2.6378Y-3.376
X2.687Y-3.1988
X2.7559Y-3.5236
X2.7559Y-3.5827
X2.7854Y-3.5531
X2.7953Y-2.5591
X2.7953Y-2.6378
X2.8051Y-2.7362
X2.815Y-3.4449
X2.8346Y-2.5197
X2.8346Y-2.5984
X2.8351Y-2.7072
X2.8445Y-3.4252
X2.874Y-2.5591
X2.874Y-3.0807
X2.88Y-2.7525
X2.8839Y-3.4252
X2.9035Y-3.1102
X2.9232Y-3.189
X2.937Y-3.6457
X2.9475Y-2.6925
X2.9528Y-3.2185
X2.9921Y-3.1299
X3.002Y-3.0906
X3.002Y-3.2185
X3.0113Y-3.2574
X3.0157Y-3.6457
X3.0217Y-3.435
X3.0222Y-3.3952
X3.0325Y-2.6925
X3.0709Y-2.4705
X3.0709Y-3.3957
X3.0825Y-2.8775
X3.0825Y-2.945
X3.086Y-3.324
X3.0866Y-3.622
X3.125Y-2.6625
X3.1496Y-3.6693
X3.1693Y-3.2677
X3.1811Y-3.3937
X3.1969Y-3.622
X3.2225Y-2.3975
X3.2275Y-2.87
X3.2579Y-3.2677
X3.2972Y-3.0217
X3.3071Y-2.6772
X3.3957Y-3.2382
X3.435Y-3.4646
X3.4646Y-3.4941
X3.495Y-2.365
X3.5039Y-2.2441
X3.5039Y-3.5236
X3.9764Y-2.5591
X4.0157Y-2.2441
X4.1339Y-2.5591
X4.2126Y-2.5591
X4.6063Y-2.5197
X4.7244Y-2.5197
X4.8425Y-2.5197
T2
X3.6294Y-2.3991
X4.1142Y-2.3622
X4.5866Y-2.3622
T3
X2.6575Y-2.2047
X2.7559Y-2.2047
X2.8543Y-2.2047
X2.9528Y-2.2047
X3.0512Y-2.2047
X3.1496Y-2.2047
X3.248Y-2.2047
X3.3465Y-2.2047
X4.5669Y-2.2047
X4.6654Y-2.2047
X4.7638Y-2.2047
X4.0945Y-2.2047
X4.1929Y-2.2047
X4.2913Y-2.2047
X3.622Y-2.2047
X3.7205Y-2.2047
X3.8189Y-2.2047
T4
X3.3925Y-2.845
X3.3925Y-2.945
X3.3925Y-3.045
X3.3925Y-3.145
X2.6165Y-2.6378
X2.7165Y-2.6378
X2.2835Y-2.2047
X2.3819Y-2.2047
T0
M30
