G04 #@! TF.GenerationSoftware,KiCad,Pcbnew,(5.1.2)-2*
G04 #@! TF.CreationDate,2019-11-30T13:10:44+01:00*
G04 #@! TF.ProjectId,bikehub,62696b65-6875-4622-9e6b-696361645f70,rev?*
G04 #@! TF.SameCoordinates,Original*
G04 #@! TF.FileFunction,Soldermask,Top*
G04 #@! TF.FilePolarity,Negative*
%FSLAX46Y46*%
G04 Gerber Fmt 4.6, Leading zero omitted, Abs format (unit mm)*
G04 Created by KiCad (PCBNEW (5.1.2)-2) date 2019-11-30 13:10:44*
%MOMM*%
%LPD*%
G04 APERTURE LIST*
%ADD10C,0.050000*%
%ADD11C,0.150000*%
G04 APERTURE END LIST*
D10*
X125500000Y-52000000D02*
X48500000Y-52000000D01*
X125500000Y-66000000D02*
X125500000Y-52000000D01*
X91000000Y-66000000D02*
X125500000Y-66000000D01*
X90000000Y-67000000D02*
X91000000Y-66000000D01*
X90000000Y-99500000D02*
X90000000Y-67000000D01*
X48500000Y-99500000D02*
X90000000Y-99500000D01*
X48500000Y-52000000D02*
X48500000Y-99500000D01*
D11*
G36*
X88551000Y-99296000D02*
G01*
X87049000Y-99296000D01*
X87049000Y-98144000D01*
X88551000Y-98144000D01*
X88551000Y-99296000D01*
X88551000Y-99296000D01*
G37*
G36*
X84951000Y-99296000D02*
G01*
X83449000Y-99296000D01*
X83449000Y-98144000D01*
X84951000Y-98144000D01*
X84951000Y-99296000D01*
X84951000Y-99296000D01*
G37*
G36*
X74251000Y-97074001D02*
G01*
X74253402Y-97098387D01*
X74260515Y-97121836D01*
X74272066Y-97143447D01*
X74287611Y-97162389D01*
X74306553Y-97177934D01*
X74328164Y-97189485D01*
X74351613Y-97196598D01*
X74375999Y-97199000D01*
X75148500Y-97199000D01*
X75148500Y-99201000D01*
X71201500Y-99201000D01*
X71201500Y-97199000D01*
X72549001Y-97199000D01*
X72573387Y-97196598D01*
X72596836Y-97189485D01*
X72618447Y-97177934D01*
X72637389Y-97162389D01*
X72652934Y-97143447D01*
X72664485Y-97121836D01*
X72671598Y-97098387D01*
X72674000Y-97074001D01*
X72674000Y-96405999D01*
X72671598Y-96381613D01*
X72664485Y-96358164D01*
X72652934Y-96336553D01*
X72637389Y-96317611D01*
X72618447Y-96302066D01*
X72596836Y-96290515D01*
X72573387Y-96283402D01*
X72549001Y-96281000D01*
X69450999Y-96281000D01*
X69426613Y-96283402D01*
X69403164Y-96290515D01*
X69381553Y-96302066D01*
X69362611Y-96317611D01*
X69347066Y-96336553D01*
X69335515Y-96358164D01*
X69328402Y-96381613D01*
X69326000Y-96405999D01*
X69326000Y-97074001D01*
X69328402Y-97098387D01*
X69335515Y-97121836D01*
X69347066Y-97143447D01*
X69362611Y-97162389D01*
X69381553Y-97177934D01*
X69403164Y-97189485D01*
X69426613Y-97196598D01*
X69450999Y-97199000D01*
X70798500Y-97199000D01*
X70798500Y-99201000D01*
X66851500Y-99201000D01*
X66851500Y-97199000D01*
X67624001Y-97199000D01*
X67648387Y-97196598D01*
X67671836Y-97189485D01*
X67693447Y-97177934D01*
X67712389Y-97162389D01*
X67727934Y-97143447D01*
X67739485Y-97121836D01*
X67746598Y-97098387D01*
X67749000Y-97074001D01*
X67749000Y-94799000D01*
X74251000Y-94799000D01*
X74251000Y-97074001D01*
X74251000Y-97074001D01*
G37*
G36*
X88551000Y-97856000D02*
G01*
X87049000Y-97856000D01*
X87049000Y-96704000D01*
X88551000Y-96704000D01*
X88551000Y-97856000D01*
X88551000Y-97856000D01*
G37*
G36*
X84951000Y-97856000D02*
G01*
X83449000Y-97856000D01*
X83449000Y-96704000D01*
X84951000Y-96704000D01*
X84951000Y-97856000D01*
X84951000Y-97856000D01*
G37*
G36*
X56151000Y-95351000D02*
G01*
X54149000Y-95351000D01*
X54149000Y-94249000D01*
X56151000Y-94249000D01*
X56151000Y-95351000D01*
X56151000Y-95351000D01*
G37*
G36*
X52851000Y-92811000D02*
G01*
X50849000Y-92811000D01*
X50849000Y-91709000D01*
X52851000Y-91709000D01*
X52851000Y-92811000D01*
X52851000Y-92811000D01*
G37*
G36*
X64051000Y-92001000D02*
G01*
X61949000Y-92001000D01*
X61949000Y-87399000D01*
X64051000Y-87399000D01*
X64051000Y-92001000D01*
X64051000Y-92001000D01*
G37*
G36*
X60088674Y-90253465D02*
G01*
X60126367Y-90264899D01*
X60161103Y-90283466D01*
X60191548Y-90308452D01*
X60216534Y-90338897D01*
X60235101Y-90373633D01*
X60246535Y-90411326D01*
X60251000Y-90456661D01*
X60251000Y-91293339D01*
X60246535Y-91338674D01*
X60235101Y-91376367D01*
X60216534Y-91411103D01*
X60191548Y-91441548D01*
X60161103Y-91466534D01*
X60126367Y-91485101D01*
X60088674Y-91496535D01*
X60043339Y-91501000D01*
X58956661Y-91501000D01*
X58911326Y-91496535D01*
X58873633Y-91485101D01*
X58838897Y-91466534D01*
X58808452Y-91441548D01*
X58783466Y-91411103D01*
X58764899Y-91376367D01*
X58753465Y-91338674D01*
X58749000Y-91293339D01*
X58749000Y-90456661D01*
X58753465Y-90411326D01*
X58764899Y-90373633D01*
X58783466Y-90338897D01*
X58808452Y-90308452D01*
X58838897Y-90283466D01*
X58873633Y-90264899D01*
X58911326Y-90253465D01*
X58956661Y-90249000D01*
X60043339Y-90249000D01*
X60088674Y-90253465D01*
X60088674Y-90253465D01*
G37*
G36*
X79838674Y-89653465D02*
G01*
X79876367Y-89664899D01*
X79911103Y-89683466D01*
X79941548Y-89708452D01*
X79966534Y-89738897D01*
X79985101Y-89773633D01*
X79996535Y-89811326D01*
X80001000Y-89856661D01*
X80001000Y-90693339D01*
X79996535Y-90738674D01*
X79985101Y-90776367D01*
X79966534Y-90811103D01*
X79941548Y-90841548D01*
X79911103Y-90866534D01*
X79876367Y-90885101D01*
X79838674Y-90896535D01*
X79793339Y-90901000D01*
X78706661Y-90901000D01*
X78661326Y-90896535D01*
X78623633Y-90885101D01*
X78588897Y-90866534D01*
X78558452Y-90841548D01*
X78533466Y-90811103D01*
X78514899Y-90776367D01*
X78503465Y-90738674D01*
X78499000Y-90693339D01*
X78499000Y-89856661D01*
X78503465Y-89811326D01*
X78514899Y-89773633D01*
X78533466Y-89738897D01*
X78558452Y-89708452D01*
X78588897Y-89683466D01*
X78623633Y-89664899D01*
X78661326Y-89653465D01*
X78706661Y-89649000D01*
X79793339Y-89649000D01*
X79838674Y-89653465D01*
X79838674Y-89653465D01*
G37*
G36*
X84088674Y-89153465D02*
G01*
X84126367Y-89164899D01*
X84161103Y-89183466D01*
X84191548Y-89208452D01*
X84216534Y-89238897D01*
X84235101Y-89273633D01*
X84246535Y-89311326D01*
X84251000Y-89356661D01*
X84251000Y-90193339D01*
X84246535Y-90238674D01*
X84235101Y-90276367D01*
X84216534Y-90311103D01*
X84191548Y-90341548D01*
X84161103Y-90366534D01*
X84126367Y-90385101D01*
X84088674Y-90396535D01*
X84043339Y-90401000D01*
X82956661Y-90401000D01*
X82911326Y-90396535D01*
X82873633Y-90385101D01*
X82838897Y-90366534D01*
X82808452Y-90341548D01*
X82783466Y-90311103D01*
X82764899Y-90276367D01*
X82753465Y-90238674D01*
X82749000Y-90193339D01*
X82749000Y-89356661D01*
X82753465Y-89311326D01*
X82764899Y-89273633D01*
X82783466Y-89238897D01*
X82808452Y-89208452D01*
X82838897Y-89183466D01*
X82873633Y-89164899D01*
X82911326Y-89153465D01*
X82956661Y-89149000D01*
X84043339Y-89149000D01*
X84088674Y-89153465D01*
X84088674Y-89153465D01*
G37*
G36*
X86338674Y-89153465D02*
G01*
X86376367Y-89164899D01*
X86411103Y-89183466D01*
X86441548Y-89208452D01*
X86466534Y-89238897D01*
X86485101Y-89273633D01*
X86496535Y-89311326D01*
X86501000Y-89356661D01*
X86501000Y-90193339D01*
X86496535Y-90238674D01*
X86485101Y-90276367D01*
X86466534Y-90311103D01*
X86441548Y-90341548D01*
X86411103Y-90366534D01*
X86376367Y-90385101D01*
X86338674Y-90396535D01*
X86293339Y-90401000D01*
X85206661Y-90401000D01*
X85161326Y-90396535D01*
X85123633Y-90385101D01*
X85088897Y-90366534D01*
X85058452Y-90341548D01*
X85033466Y-90311103D01*
X85014899Y-90276367D01*
X85003465Y-90238674D01*
X84999000Y-90193339D01*
X84999000Y-89356661D01*
X85003465Y-89311326D01*
X85014899Y-89273633D01*
X85033466Y-89238897D01*
X85058452Y-89208452D01*
X85088897Y-89183466D01*
X85123633Y-89164899D01*
X85161326Y-89153465D01*
X85206661Y-89149000D01*
X86293339Y-89149000D01*
X86338674Y-89153465D01*
X86338674Y-89153465D01*
G37*
G36*
X56151000Y-90271000D02*
G01*
X54149000Y-90271000D01*
X54149000Y-89169000D01*
X56151000Y-89169000D01*
X56151000Y-90271000D01*
X56151000Y-90271000D01*
G37*
G36*
X76534999Y-88199737D02*
G01*
X76544608Y-88202652D01*
X76553472Y-88207390D01*
X76561212Y-88213742D01*
X76561213Y-88213743D01*
X76561237Y-88213763D01*
X76567640Y-88221573D01*
X76567677Y-88221628D01*
X76575480Y-88231147D01*
X76575511Y-88231122D01*
X76586853Y-88244972D01*
X76605779Y-88260537D01*
X76627377Y-88272111D01*
X76650819Y-88279249D01*
X76675202Y-88281676D01*
X76699591Y-88279300D01*
X76723047Y-88272211D01*
X76744670Y-88260682D01*
X76763628Y-88245157D01*
X76779193Y-88226231D01*
X76781029Y-88223175D01*
X76782418Y-88221486D01*
X76782419Y-88221484D01*
X76788801Y-88213725D01*
X76796573Y-88207360D01*
X76796575Y-88207358D01*
X76805399Y-88202654D01*
X76805438Y-88202633D01*
X76815055Y-88199727D01*
X76815085Y-88199718D01*
X76831113Y-88198148D01*
X77968860Y-88198148D01*
X77984999Y-88199737D01*
X77994608Y-88202652D01*
X78003472Y-88207390D01*
X78011237Y-88213763D01*
X78017610Y-88221528D01*
X78022348Y-88230392D01*
X78025263Y-88240001D01*
X78026852Y-88256140D01*
X78026852Y-89743860D01*
X78025263Y-89759999D01*
X78022348Y-89769608D01*
X78017610Y-89778472D01*
X78011237Y-89786237D01*
X78003472Y-89792610D01*
X77994608Y-89797348D01*
X77984999Y-89800263D01*
X77968860Y-89801852D01*
X76831140Y-89801852D01*
X76815001Y-89800263D01*
X76805392Y-89797348D01*
X76796528Y-89792610D01*
X76788763Y-89786237D01*
X76778116Y-89773263D01*
X76771947Y-89764032D01*
X76754619Y-89746706D01*
X76734244Y-89733093D01*
X76711605Y-89723717D01*
X76687572Y-89718937D01*
X76663068Y-89718938D01*
X76639035Y-89723720D01*
X76616396Y-89733098D01*
X76596022Y-89746713D01*
X76578696Y-89764041D01*
X76571825Y-89773317D01*
X76567640Y-89778427D01*
X76561275Y-89786199D01*
X76553516Y-89792581D01*
X76544661Y-89797326D01*
X76541623Y-89798251D01*
X76535085Y-89800242D01*
X76535082Y-89800242D01*
X76535050Y-89800252D01*
X76525000Y-89801247D01*
X76524935Y-89801247D01*
X76518825Y-89801852D01*
X75531140Y-89801852D01*
X75515001Y-89800263D01*
X75505392Y-89797348D01*
X75496528Y-89792610D01*
X75488763Y-89786237D01*
X75482390Y-89778472D01*
X75477652Y-89769608D01*
X75474737Y-89759999D01*
X75473148Y-89743860D01*
X75473148Y-88256140D01*
X75474737Y-88240001D01*
X75477652Y-88230392D01*
X75482390Y-88221528D01*
X75488763Y-88213763D01*
X75496528Y-88207390D01*
X75505392Y-88202652D01*
X75515001Y-88199737D01*
X75531140Y-88198148D01*
X76518860Y-88198148D01*
X76534999Y-88199737D01*
X76534999Y-88199737D01*
G37*
G36*
X60088674Y-88203465D02*
G01*
X60126367Y-88214899D01*
X60161103Y-88233466D01*
X60191548Y-88258452D01*
X60216534Y-88288897D01*
X60235101Y-88323633D01*
X60246535Y-88361326D01*
X60251000Y-88406661D01*
X60251000Y-89243339D01*
X60246535Y-89288674D01*
X60235101Y-89326367D01*
X60216534Y-89361103D01*
X60191548Y-89391548D01*
X60161103Y-89416534D01*
X60126367Y-89435101D01*
X60088674Y-89446535D01*
X60043339Y-89451000D01*
X58956661Y-89451000D01*
X58911326Y-89446535D01*
X58873633Y-89435101D01*
X58838897Y-89416534D01*
X58808452Y-89391548D01*
X58783466Y-89361103D01*
X58764899Y-89326367D01*
X58753465Y-89288674D01*
X58749000Y-89243339D01*
X58749000Y-88406661D01*
X58753465Y-88361326D01*
X58764899Y-88323633D01*
X58783466Y-88288897D01*
X58808452Y-88258452D01*
X58838897Y-88233466D01*
X58873633Y-88214899D01*
X58911326Y-88203465D01*
X58956661Y-88199000D01*
X60043339Y-88199000D01*
X60088674Y-88203465D01*
X60088674Y-88203465D01*
G37*
G36*
X79838674Y-87603465D02*
G01*
X79876367Y-87614899D01*
X79911103Y-87633466D01*
X79941548Y-87658452D01*
X79966534Y-87688897D01*
X79985101Y-87723633D01*
X79996535Y-87761326D01*
X80001000Y-87806661D01*
X80001000Y-88643339D01*
X79996535Y-88688674D01*
X79985101Y-88726367D01*
X79966534Y-88761103D01*
X79941548Y-88791548D01*
X79911103Y-88816534D01*
X79876367Y-88835101D01*
X79838674Y-88846535D01*
X79793339Y-88851000D01*
X78706661Y-88851000D01*
X78661326Y-88846535D01*
X78623633Y-88835101D01*
X78588897Y-88816534D01*
X78558452Y-88791548D01*
X78533466Y-88761103D01*
X78514899Y-88726367D01*
X78503465Y-88688674D01*
X78499000Y-88643339D01*
X78499000Y-87806661D01*
X78503465Y-87761326D01*
X78514899Y-87723633D01*
X78533466Y-87688897D01*
X78558452Y-87658452D01*
X78588897Y-87633466D01*
X78623633Y-87614899D01*
X78661326Y-87603465D01*
X78706661Y-87599000D01*
X79793339Y-87599000D01*
X79838674Y-87603465D01*
X79838674Y-87603465D01*
G37*
G36*
X86338674Y-87103465D02*
G01*
X86376367Y-87114899D01*
X86411103Y-87133466D01*
X86441548Y-87158452D01*
X86466534Y-87188897D01*
X86485101Y-87223633D01*
X86496535Y-87261326D01*
X86501000Y-87306661D01*
X86501000Y-88143339D01*
X86496535Y-88188674D01*
X86485101Y-88226367D01*
X86466534Y-88261103D01*
X86441548Y-88291548D01*
X86411103Y-88316534D01*
X86376367Y-88335101D01*
X86338674Y-88346535D01*
X86293339Y-88351000D01*
X85206661Y-88351000D01*
X85161326Y-88346535D01*
X85123633Y-88335101D01*
X85088897Y-88316534D01*
X85058452Y-88291548D01*
X85033466Y-88261103D01*
X85014899Y-88226367D01*
X85003465Y-88188674D01*
X84999000Y-88143339D01*
X84999000Y-87306661D01*
X85003465Y-87261326D01*
X85014899Y-87223633D01*
X85033466Y-87188897D01*
X85058452Y-87158452D01*
X85088897Y-87133466D01*
X85123633Y-87114899D01*
X85161326Y-87103465D01*
X85206661Y-87099000D01*
X86293339Y-87099000D01*
X86338674Y-87103465D01*
X86338674Y-87103465D01*
G37*
G36*
X84088674Y-87103465D02*
G01*
X84126367Y-87114899D01*
X84161103Y-87133466D01*
X84191548Y-87158452D01*
X84216534Y-87188897D01*
X84235101Y-87223633D01*
X84246535Y-87261326D01*
X84251000Y-87306661D01*
X84251000Y-88143339D01*
X84246535Y-88188674D01*
X84235101Y-88226367D01*
X84216534Y-88261103D01*
X84191548Y-88291548D01*
X84161103Y-88316534D01*
X84126367Y-88335101D01*
X84088674Y-88346535D01*
X84043339Y-88351000D01*
X82956661Y-88351000D01*
X82911326Y-88346535D01*
X82873633Y-88335101D01*
X82838897Y-88316534D01*
X82808452Y-88291548D01*
X82783466Y-88261103D01*
X82764899Y-88226367D01*
X82753465Y-88188674D01*
X82749000Y-88143339D01*
X82749000Y-87306661D01*
X82753465Y-87261326D01*
X82764899Y-87223633D01*
X82783466Y-87188897D01*
X82808452Y-87158452D01*
X82838897Y-87133466D01*
X82873633Y-87114899D01*
X82911326Y-87103465D01*
X82956661Y-87099000D01*
X84043339Y-87099000D01*
X84088674Y-87103465D01*
X84088674Y-87103465D01*
G37*
G36*
X52851000Y-87731000D02*
G01*
X50849000Y-87731000D01*
X50849000Y-86629000D01*
X52851000Y-86629000D01*
X52851000Y-87731000D01*
X52851000Y-87731000D01*
G37*
G36*
X60088674Y-85753465D02*
G01*
X60126367Y-85764899D01*
X60161103Y-85783466D01*
X60191548Y-85808452D01*
X60216534Y-85838897D01*
X60235101Y-85873633D01*
X60246535Y-85911326D01*
X60251000Y-85956661D01*
X60251000Y-86793339D01*
X60246535Y-86838674D01*
X60235101Y-86876367D01*
X60216534Y-86911103D01*
X60191548Y-86941548D01*
X60161103Y-86966534D01*
X60126367Y-86985101D01*
X60088674Y-86996535D01*
X60043339Y-87001000D01*
X58956661Y-87001000D01*
X58911326Y-86996535D01*
X58873633Y-86985101D01*
X58838897Y-86966534D01*
X58808452Y-86941548D01*
X58783466Y-86911103D01*
X58764899Y-86876367D01*
X58753465Y-86838674D01*
X58749000Y-86793339D01*
X58749000Y-85956661D01*
X58753465Y-85911326D01*
X58764899Y-85873633D01*
X58783466Y-85838897D01*
X58808452Y-85808452D01*
X58838897Y-85783466D01*
X58873633Y-85764899D01*
X58911326Y-85753465D01*
X58956661Y-85749000D01*
X60043339Y-85749000D01*
X60088674Y-85753465D01*
X60088674Y-85753465D01*
G37*
G36*
X86338674Y-85153465D02*
G01*
X86376367Y-85164899D01*
X86411103Y-85183466D01*
X86441548Y-85208452D01*
X86466534Y-85238897D01*
X86485101Y-85273633D01*
X86496535Y-85311326D01*
X86501000Y-85356661D01*
X86501000Y-86193339D01*
X86496535Y-86238674D01*
X86485101Y-86276367D01*
X86466534Y-86311103D01*
X86441548Y-86341548D01*
X86411103Y-86366534D01*
X86376367Y-86385101D01*
X86338674Y-86396535D01*
X86293339Y-86401000D01*
X85206661Y-86401000D01*
X85161326Y-86396535D01*
X85123633Y-86385101D01*
X85088897Y-86366534D01*
X85058452Y-86341548D01*
X85033466Y-86311103D01*
X85014899Y-86276367D01*
X85003465Y-86238674D01*
X84999000Y-86193339D01*
X84999000Y-85356661D01*
X85003465Y-85311326D01*
X85014899Y-85273633D01*
X85033466Y-85238897D01*
X85058452Y-85208452D01*
X85088897Y-85183466D01*
X85123633Y-85164899D01*
X85161326Y-85153465D01*
X85206661Y-85149000D01*
X86293339Y-85149000D01*
X86338674Y-85153465D01*
X86338674Y-85153465D01*
G37*
G36*
X72170295Y-83625323D02*
G01*
X72177309Y-83627451D01*
X72191077Y-83634810D01*
X72213716Y-83644187D01*
X72237749Y-83648967D01*
X72262253Y-83648967D01*
X72286286Y-83644186D01*
X72308923Y-83634810D01*
X72322691Y-83627451D01*
X72329705Y-83625323D01*
X72343140Y-83624000D01*
X72656860Y-83624000D01*
X72670295Y-83625323D01*
X72677309Y-83627451D01*
X72691077Y-83634810D01*
X72713716Y-83644187D01*
X72737749Y-83648967D01*
X72762253Y-83648967D01*
X72786286Y-83644186D01*
X72808923Y-83634810D01*
X72822691Y-83627451D01*
X72829705Y-83625323D01*
X72843140Y-83624000D01*
X73156860Y-83624000D01*
X73170295Y-83625323D01*
X73177309Y-83627451D01*
X73191077Y-83634810D01*
X73213716Y-83644187D01*
X73237749Y-83648967D01*
X73262253Y-83648967D01*
X73286286Y-83644186D01*
X73308923Y-83634810D01*
X73322691Y-83627451D01*
X73329705Y-83625323D01*
X73343140Y-83624000D01*
X73656860Y-83624000D01*
X73670295Y-83625323D01*
X73677309Y-83627451D01*
X73691077Y-83634810D01*
X73713716Y-83644187D01*
X73737749Y-83648967D01*
X73762253Y-83648967D01*
X73786286Y-83644186D01*
X73808923Y-83634810D01*
X73822691Y-83627451D01*
X73829705Y-83625323D01*
X73843140Y-83624000D01*
X74156860Y-83624000D01*
X74170295Y-83625323D01*
X74177309Y-83627451D01*
X74191077Y-83634810D01*
X74213716Y-83644187D01*
X74237749Y-83648967D01*
X74262253Y-83648967D01*
X74286286Y-83644186D01*
X74308923Y-83634810D01*
X74322691Y-83627451D01*
X74329705Y-83625323D01*
X74343140Y-83624000D01*
X74656860Y-83624000D01*
X74670295Y-83625323D01*
X74677309Y-83627451D01*
X74691077Y-83634810D01*
X74713716Y-83644187D01*
X74737749Y-83648967D01*
X74762253Y-83648967D01*
X74786286Y-83644186D01*
X74808923Y-83634810D01*
X74822691Y-83627451D01*
X74829705Y-83625323D01*
X74843140Y-83624000D01*
X75156860Y-83624000D01*
X75170295Y-83625323D01*
X75177309Y-83627451D01*
X75191077Y-83634810D01*
X75213716Y-83644187D01*
X75237749Y-83648967D01*
X75262253Y-83648967D01*
X75286286Y-83644186D01*
X75308923Y-83634810D01*
X75322691Y-83627451D01*
X75329705Y-83625323D01*
X75343140Y-83624000D01*
X75656860Y-83624000D01*
X75670295Y-83625323D01*
X75677309Y-83627451D01*
X75691077Y-83634810D01*
X75713716Y-83644187D01*
X75737749Y-83648967D01*
X75762253Y-83648967D01*
X75786286Y-83644186D01*
X75808923Y-83634810D01*
X75822691Y-83627451D01*
X75829705Y-83625323D01*
X75843140Y-83624000D01*
X76156860Y-83624000D01*
X76170295Y-83625323D01*
X76177309Y-83627451D01*
X76191077Y-83634810D01*
X76213716Y-83644187D01*
X76237749Y-83648967D01*
X76262253Y-83648967D01*
X76286286Y-83644186D01*
X76308923Y-83634810D01*
X76322691Y-83627451D01*
X76329705Y-83625323D01*
X76343140Y-83624000D01*
X76656860Y-83624000D01*
X76670295Y-83625323D01*
X76677309Y-83627451D01*
X76691077Y-83634810D01*
X76713716Y-83644187D01*
X76737749Y-83648967D01*
X76762253Y-83648967D01*
X76786286Y-83644186D01*
X76808923Y-83634810D01*
X76822691Y-83627451D01*
X76829705Y-83625323D01*
X76843140Y-83624000D01*
X77156860Y-83624000D01*
X77170295Y-83625323D01*
X77177309Y-83627451D01*
X77191077Y-83634810D01*
X77213716Y-83644187D01*
X77237749Y-83648967D01*
X77262253Y-83648967D01*
X77286286Y-83644186D01*
X77308923Y-83634810D01*
X77322691Y-83627451D01*
X77329705Y-83625323D01*
X77343140Y-83624000D01*
X77656860Y-83624000D01*
X77670295Y-83625323D01*
X77677310Y-83627451D01*
X77683776Y-83630908D01*
X77689442Y-83635558D01*
X77694092Y-83641224D01*
X77697549Y-83647690D01*
X77699677Y-83654705D01*
X77701000Y-83668140D01*
X77701000Y-85156860D01*
X77699677Y-85170295D01*
X77697549Y-85177310D01*
X77694092Y-85183776D01*
X77689442Y-85189442D01*
X77683776Y-85194092D01*
X77677310Y-85197549D01*
X77670295Y-85199677D01*
X77656860Y-85201000D01*
X77343140Y-85201000D01*
X77329705Y-85199677D01*
X77322691Y-85197549D01*
X77308923Y-85190190D01*
X77286284Y-85180813D01*
X77262251Y-85176033D01*
X77237747Y-85176033D01*
X77213714Y-85180814D01*
X77191077Y-85190190D01*
X77177309Y-85197549D01*
X77170295Y-85199677D01*
X77156860Y-85201000D01*
X76843140Y-85201000D01*
X76829705Y-85199677D01*
X76822691Y-85197549D01*
X76808923Y-85190190D01*
X76786284Y-85180813D01*
X76762251Y-85176033D01*
X76737747Y-85176033D01*
X76713714Y-85180814D01*
X76691077Y-85190190D01*
X76677309Y-85197549D01*
X76670295Y-85199677D01*
X76656860Y-85201000D01*
X76343140Y-85201000D01*
X76329705Y-85199677D01*
X76322691Y-85197549D01*
X76308923Y-85190190D01*
X76286284Y-85180813D01*
X76262251Y-85176033D01*
X76237747Y-85176033D01*
X76213714Y-85180814D01*
X76191077Y-85190190D01*
X76177309Y-85197549D01*
X76170295Y-85199677D01*
X76156860Y-85201000D01*
X75843140Y-85201000D01*
X75829705Y-85199677D01*
X75822691Y-85197549D01*
X75808923Y-85190190D01*
X75786284Y-85180813D01*
X75762251Y-85176033D01*
X75737747Y-85176033D01*
X75713714Y-85180814D01*
X75691077Y-85190190D01*
X75677309Y-85197549D01*
X75670295Y-85199677D01*
X75656860Y-85201000D01*
X75343140Y-85201000D01*
X75329705Y-85199677D01*
X75322691Y-85197549D01*
X75308923Y-85190190D01*
X75286284Y-85180813D01*
X75262251Y-85176033D01*
X75237747Y-85176033D01*
X75213714Y-85180814D01*
X75191077Y-85190190D01*
X75177309Y-85197549D01*
X75170295Y-85199677D01*
X75156860Y-85201000D01*
X74843140Y-85201000D01*
X74829705Y-85199677D01*
X74822691Y-85197549D01*
X74808923Y-85190190D01*
X74786284Y-85180813D01*
X74762251Y-85176033D01*
X74737747Y-85176033D01*
X74713714Y-85180814D01*
X74691077Y-85190190D01*
X74677309Y-85197549D01*
X74670295Y-85199677D01*
X74656860Y-85201000D01*
X74343140Y-85201000D01*
X74329705Y-85199677D01*
X74322691Y-85197549D01*
X74308923Y-85190190D01*
X74286284Y-85180813D01*
X74262251Y-85176033D01*
X74237747Y-85176033D01*
X74213714Y-85180814D01*
X74191077Y-85190190D01*
X74177309Y-85197549D01*
X74170295Y-85199677D01*
X74156860Y-85201000D01*
X73843140Y-85201000D01*
X73829705Y-85199677D01*
X73822691Y-85197549D01*
X73808923Y-85190190D01*
X73786284Y-85180813D01*
X73762251Y-85176033D01*
X73737747Y-85176033D01*
X73713714Y-85180814D01*
X73691077Y-85190190D01*
X73677309Y-85197549D01*
X73670295Y-85199677D01*
X73656860Y-85201000D01*
X73343140Y-85201000D01*
X73329705Y-85199677D01*
X73322691Y-85197549D01*
X73308923Y-85190190D01*
X73286284Y-85180813D01*
X73262251Y-85176033D01*
X73237747Y-85176033D01*
X73213714Y-85180814D01*
X73191077Y-85190190D01*
X73177309Y-85197549D01*
X73170295Y-85199677D01*
X73156860Y-85201000D01*
X72843140Y-85201000D01*
X72829705Y-85199677D01*
X72822691Y-85197549D01*
X72808923Y-85190190D01*
X72786284Y-85180813D01*
X72762251Y-85176033D01*
X72737747Y-85176033D01*
X72713714Y-85180814D01*
X72691077Y-85190190D01*
X72677309Y-85197549D01*
X72670295Y-85199677D01*
X72656860Y-85201000D01*
X72343140Y-85201000D01*
X72329705Y-85199677D01*
X72322691Y-85197549D01*
X72308923Y-85190190D01*
X72286284Y-85180813D01*
X72262251Y-85176033D01*
X72237747Y-85176033D01*
X72213714Y-85180814D01*
X72191077Y-85190190D01*
X72177309Y-85197549D01*
X72170295Y-85199677D01*
X72156860Y-85201000D01*
X71843140Y-85201000D01*
X71829705Y-85199677D01*
X71822690Y-85197549D01*
X71816224Y-85194092D01*
X71810558Y-85189442D01*
X71805908Y-85183776D01*
X71802451Y-85177310D01*
X71800323Y-85170295D01*
X71799000Y-85156860D01*
X71799000Y-83668140D01*
X71800323Y-83654705D01*
X71802451Y-83647690D01*
X71805908Y-83641224D01*
X71810558Y-83635558D01*
X71816224Y-83630908D01*
X71822690Y-83627451D01*
X71829705Y-83625323D01*
X71843140Y-83624000D01*
X72156860Y-83624000D01*
X72170295Y-83625323D01*
X72170295Y-83625323D01*
G37*
G36*
X56151000Y-85191000D02*
G01*
X54149000Y-85191000D01*
X54149000Y-84089000D01*
X56151000Y-84089000D01*
X56151000Y-85191000D01*
X56151000Y-85191000D01*
G37*
G36*
X60088674Y-83703465D02*
G01*
X60126367Y-83714899D01*
X60161103Y-83733466D01*
X60191548Y-83758452D01*
X60216534Y-83788897D01*
X60235101Y-83823633D01*
X60246535Y-83861326D01*
X60251000Y-83906661D01*
X60251000Y-84743339D01*
X60246535Y-84788674D01*
X60235101Y-84826367D01*
X60216534Y-84861103D01*
X60191548Y-84891548D01*
X60161103Y-84916534D01*
X60126367Y-84935101D01*
X60088674Y-84946535D01*
X60043339Y-84951000D01*
X58956661Y-84951000D01*
X58911326Y-84946535D01*
X58873633Y-84935101D01*
X58838897Y-84916534D01*
X58808452Y-84891548D01*
X58783466Y-84861103D01*
X58764899Y-84826367D01*
X58753465Y-84788674D01*
X58749000Y-84743339D01*
X58749000Y-83906661D01*
X58753465Y-83861326D01*
X58764899Y-83823633D01*
X58783466Y-83788897D01*
X58808452Y-83758452D01*
X58838897Y-83733466D01*
X58873633Y-83714899D01*
X58911326Y-83703465D01*
X58956661Y-83699000D01*
X60043339Y-83699000D01*
X60088674Y-83703465D01*
X60088674Y-83703465D01*
G37*
G36*
X86338674Y-83103465D02*
G01*
X86376367Y-83114899D01*
X86411103Y-83133466D01*
X86441548Y-83158452D01*
X86466534Y-83188897D01*
X86485101Y-83223633D01*
X86496535Y-83261326D01*
X86501000Y-83306661D01*
X86501000Y-84143339D01*
X86496535Y-84188674D01*
X86485101Y-84226367D01*
X86466534Y-84261103D01*
X86441548Y-84291548D01*
X86411103Y-84316534D01*
X86376367Y-84335101D01*
X86338674Y-84346535D01*
X86293339Y-84351000D01*
X85206661Y-84351000D01*
X85161326Y-84346535D01*
X85123633Y-84335101D01*
X85088897Y-84316534D01*
X85058452Y-84291548D01*
X85033466Y-84261103D01*
X85014899Y-84226367D01*
X85003465Y-84188674D01*
X84999000Y-84143339D01*
X84999000Y-83306661D01*
X85003465Y-83261326D01*
X85014899Y-83223633D01*
X85033466Y-83188897D01*
X85058452Y-83158452D01*
X85088897Y-83133466D01*
X85123633Y-83114899D01*
X85161326Y-83103465D01*
X85206661Y-83099000D01*
X86293339Y-83099000D01*
X86338674Y-83103465D01*
X86338674Y-83103465D01*
G37*
G36*
X67338674Y-82403465D02*
G01*
X67376367Y-82414899D01*
X67411103Y-82433466D01*
X67441548Y-82458452D01*
X67466534Y-82488897D01*
X67485101Y-82523633D01*
X67496535Y-82561326D01*
X67501000Y-82606661D01*
X67501000Y-83443339D01*
X67496535Y-83488674D01*
X67485101Y-83526367D01*
X67466534Y-83561103D01*
X67441548Y-83591548D01*
X67411103Y-83616534D01*
X67376367Y-83635101D01*
X67338674Y-83646535D01*
X67293339Y-83651000D01*
X66206661Y-83651000D01*
X66161326Y-83646535D01*
X66123633Y-83635101D01*
X66088897Y-83616534D01*
X66058452Y-83591548D01*
X66033466Y-83561103D01*
X66014899Y-83526367D01*
X66003465Y-83488674D01*
X65999000Y-83443339D01*
X65999000Y-82606661D01*
X66003465Y-82561326D01*
X66014899Y-82523633D01*
X66033466Y-82488897D01*
X66058452Y-82458452D01*
X66088897Y-82433466D01*
X66123633Y-82414899D01*
X66161326Y-82403465D01*
X66206661Y-82399000D01*
X67293339Y-82399000D01*
X67338674Y-82403465D01*
X67338674Y-82403465D01*
G37*
G36*
X64051000Y-83501000D02*
G01*
X61949000Y-83501000D01*
X61949000Y-78899000D01*
X64051000Y-78899000D01*
X64051000Y-83501000D01*
X64051000Y-83501000D01*
G37*
G36*
X71345295Y-77300323D02*
G01*
X71352310Y-77302451D01*
X71358776Y-77305908D01*
X71364442Y-77310558D01*
X71369092Y-77316224D01*
X71372549Y-77322690D01*
X71374677Y-77329705D01*
X71376000Y-77343140D01*
X71376000Y-77656860D01*
X71374677Y-77670295D01*
X71372549Y-77677309D01*
X71365190Y-77691077D01*
X71355813Y-77713716D01*
X71351033Y-77737749D01*
X71351033Y-77762253D01*
X71355814Y-77786286D01*
X71365190Y-77808923D01*
X71372549Y-77822691D01*
X71374677Y-77829705D01*
X71376000Y-77843140D01*
X71376000Y-78156860D01*
X71374677Y-78170295D01*
X71372549Y-78177309D01*
X71365190Y-78191077D01*
X71355813Y-78213716D01*
X71351033Y-78237749D01*
X71351033Y-78262253D01*
X71355814Y-78286286D01*
X71365190Y-78308923D01*
X71372549Y-78322691D01*
X71374677Y-78329705D01*
X71376000Y-78343140D01*
X71376000Y-78656860D01*
X71374677Y-78670295D01*
X71372549Y-78677309D01*
X71365190Y-78691077D01*
X71355813Y-78713716D01*
X71351033Y-78737749D01*
X71351033Y-78762253D01*
X71355814Y-78786286D01*
X71365190Y-78808923D01*
X71372549Y-78822691D01*
X71374677Y-78829705D01*
X71376000Y-78843140D01*
X71376000Y-79156860D01*
X71374677Y-79170295D01*
X71372549Y-79177309D01*
X71365190Y-79191077D01*
X71355813Y-79213716D01*
X71351033Y-79237749D01*
X71351033Y-79262253D01*
X71355814Y-79286286D01*
X71365190Y-79308923D01*
X71372549Y-79322691D01*
X71374677Y-79329705D01*
X71376000Y-79343140D01*
X71376000Y-79656860D01*
X71374677Y-79670295D01*
X71372549Y-79677309D01*
X71365190Y-79691077D01*
X71355813Y-79713716D01*
X71351033Y-79737749D01*
X71351033Y-79762253D01*
X71355814Y-79786286D01*
X71365190Y-79808923D01*
X71372549Y-79822691D01*
X71374677Y-79829705D01*
X71376000Y-79843140D01*
X71376000Y-80156860D01*
X71374677Y-80170295D01*
X71372549Y-80177309D01*
X71365190Y-80191077D01*
X71355813Y-80213716D01*
X71351033Y-80237749D01*
X71351033Y-80262253D01*
X71355814Y-80286286D01*
X71365190Y-80308923D01*
X71372549Y-80322691D01*
X71374677Y-80329705D01*
X71376000Y-80343140D01*
X71376000Y-80656860D01*
X71374677Y-80670295D01*
X71372549Y-80677309D01*
X71365190Y-80691077D01*
X71355813Y-80713716D01*
X71351033Y-80737749D01*
X71351033Y-80762253D01*
X71355814Y-80786286D01*
X71365190Y-80808923D01*
X71372549Y-80822691D01*
X71374677Y-80829705D01*
X71376000Y-80843140D01*
X71376000Y-81156860D01*
X71374677Y-81170295D01*
X71372549Y-81177309D01*
X71365190Y-81191077D01*
X71355813Y-81213716D01*
X71351033Y-81237749D01*
X71351033Y-81262253D01*
X71355814Y-81286286D01*
X71365190Y-81308923D01*
X71372549Y-81322691D01*
X71374677Y-81329705D01*
X71376000Y-81343140D01*
X71376000Y-81656860D01*
X71374677Y-81670295D01*
X71372549Y-81677309D01*
X71365190Y-81691077D01*
X71355813Y-81713716D01*
X71351033Y-81737749D01*
X71351033Y-81762253D01*
X71355814Y-81786286D01*
X71365190Y-81808923D01*
X71372549Y-81822691D01*
X71374677Y-81829705D01*
X71376000Y-81843140D01*
X71376000Y-82156860D01*
X71374677Y-82170295D01*
X71372549Y-82177309D01*
X71365190Y-82191077D01*
X71355813Y-82213716D01*
X71351033Y-82237749D01*
X71351033Y-82262253D01*
X71355814Y-82286286D01*
X71365190Y-82308923D01*
X71372549Y-82322691D01*
X71374677Y-82329705D01*
X71376000Y-82343140D01*
X71376000Y-82656860D01*
X71374677Y-82670295D01*
X71372549Y-82677309D01*
X71365190Y-82691077D01*
X71355813Y-82713716D01*
X71351033Y-82737749D01*
X71351033Y-82762253D01*
X71355814Y-82786286D01*
X71365190Y-82808923D01*
X71372549Y-82822691D01*
X71374677Y-82829705D01*
X71376000Y-82843140D01*
X71376000Y-83156860D01*
X71374677Y-83170295D01*
X71372549Y-83177310D01*
X71369092Y-83183776D01*
X71364442Y-83189442D01*
X71358776Y-83194092D01*
X71352310Y-83197549D01*
X71345295Y-83199677D01*
X71331860Y-83201000D01*
X69843140Y-83201000D01*
X69829705Y-83199677D01*
X69822690Y-83197549D01*
X69816224Y-83194092D01*
X69810558Y-83189442D01*
X69805908Y-83183776D01*
X69802451Y-83177310D01*
X69800323Y-83170295D01*
X69799000Y-83156860D01*
X69799000Y-82843140D01*
X69800323Y-82829705D01*
X69802451Y-82822691D01*
X69809810Y-82808923D01*
X69819187Y-82786284D01*
X69823967Y-82762251D01*
X69823967Y-82737747D01*
X69819186Y-82713714D01*
X69809810Y-82691077D01*
X69802451Y-82677309D01*
X69800323Y-82670295D01*
X69799000Y-82656860D01*
X69799000Y-82343140D01*
X69800323Y-82329705D01*
X69802451Y-82322691D01*
X69809810Y-82308923D01*
X69819187Y-82286284D01*
X69823967Y-82262251D01*
X69823967Y-82237747D01*
X69819186Y-82213714D01*
X69809810Y-82191077D01*
X69802451Y-82177309D01*
X69800323Y-82170295D01*
X69799000Y-82156860D01*
X69799000Y-81843140D01*
X69800323Y-81829705D01*
X69802451Y-81822691D01*
X69809810Y-81808923D01*
X69819187Y-81786284D01*
X69823967Y-81762251D01*
X69823967Y-81737747D01*
X69819186Y-81713714D01*
X69809810Y-81691077D01*
X69802451Y-81677309D01*
X69800323Y-81670295D01*
X69799000Y-81656860D01*
X69799000Y-81343140D01*
X69800323Y-81329705D01*
X69802451Y-81322691D01*
X69809810Y-81308923D01*
X69819187Y-81286284D01*
X69823967Y-81262251D01*
X69823967Y-81237747D01*
X69819186Y-81213714D01*
X69809810Y-81191077D01*
X69802451Y-81177309D01*
X69800323Y-81170295D01*
X69799000Y-81156860D01*
X69799000Y-80843140D01*
X69800323Y-80829705D01*
X69802451Y-80822691D01*
X69809810Y-80808923D01*
X69819187Y-80786284D01*
X69823967Y-80762251D01*
X69823967Y-80737747D01*
X69819186Y-80713714D01*
X69809810Y-80691077D01*
X69802451Y-80677309D01*
X69800323Y-80670295D01*
X69799000Y-80656860D01*
X69799000Y-80343140D01*
X69800323Y-80329705D01*
X69802451Y-80322691D01*
X69809810Y-80308923D01*
X69819187Y-80286284D01*
X69823967Y-80262251D01*
X69823967Y-80237747D01*
X69819186Y-80213714D01*
X69809810Y-80191077D01*
X69802451Y-80177309D01*
X69800323Y-80170295D01*
X69799000Y-80156860D01*
X69799000Y-79843140D01*
X69800323Y-79829705D01*
X69802451Y-79822691D01*
X69809810Y-79808923D01*
X69819187Y-79786284D01*
X69823967Y-79762251D01*
X69823967Y-79737747D01*
X69819186Y-79713714D01*
X69809810Y-79691077D01*
X69802451Y-79677309D01*
X69800323Y-79670295D01*
X69799000Y-79656860D01*
X69799000Y-79343140D01*
X69800323Y-79329705D01*
X69802451Y-79322691D01*
X69809810Y-79308923D01*
X69819187Y-79286284D01*
X69823967Y-79262251D01*
X69823967Y-79237747D01*
X69819186Y-79213714D01*
X69809810Y-79191077D01*
X69802451Y-79177309D01*
X69800323Y-79170295D01*
X69799000Y-79156860D01*
X69799000Y-78843140D01*
X69800323Y-78829705D01*
X69802451Y-78822691D01*
X69809810Y-78808923D01*
X69819187Y-78786284D01*
X69823967Y-78762251D01*
X69823967Y-78737747D01*
X69819186Y-78713714D01*
X69809810Y-78691077D01*
X69802451Y-78677309D01*
X69800323Y-78670295D01*
X69799000Y-78656860D01*
X69799000Y-78343140D01*
X69800323Y-78329705D01*
X69802451Y-78322691D01*
X69809810Y-78308923D01*
X69819187Y-78286284D01*
X69823967Y-78262251D01*
X69823967Y-78237747D01*
X69819186Y-78213714D01*
X69809810Y-78191077D01*
X69802451Y-78177309D01*
X69800323Y-78170295D01*
X69799000Y-78156860D01*
X69799000Y-77843140D01*
X69800323Y-77829705D01*
X69802451Y-77822691D01*
X69809810Y-77808923D01*
X69819187Y-77786284D01*
X69823967Y-77762251D01*
X69823967Y-77737747D01*
X69819186Y-77713714D01*
X69809810Y-77691077D01*
X69802451Y-77677309D01*
X69800323Y-77670295D01*
X69799000Y-77656860D01*
X69799000Y-77343140D01*
X69800323Y-77329705D01*
X69802451Y-77322690D01*
X69805908Y-77316224D01*
X69810558Y-77310558D01*
X69816224Y-77305908D01*
X69822690Y-77302451D01*
X69829705Y-77300323D01*
X69843140Y-77299000D01*
X71331860Y-77299000D01*
X71345295Y-77300323D01*
X71345295Y-77300323D01*
G37*
G36*
X79670295Y-77300323D02*
G01*
X79677310Y-77302451D01*
X79683776Y-77305908D01*
X79689442Y-77310558D01*
X79694092Y-77316224D01*
X79697549Y-77322690D01*
X79699677Y-77329705D01*
X79701000Y-77343140D01*
X79701000Y-77656860D01*
X79699677Y-77670295D01*
X79697549Y-77677309D01*
X79690190Y-77691077D01*
X79680813Y-77713716D01*
X79676033Y-77737749D01*
X79676033Y-77762253D01*
X79680814Y-77786286D01*
X79690190Y-77808923D01*
X79697549Y-77822691D01*
X79699677Y-77829705D01*
X79701000Y-77843140D01*
X79701000Y-78156860D01*
X79699677Y-78170295D01*
X79697549Y-78177309D01*
X79690190Y-78191077D01*
X79680813Y-78213716D01*
X79676033Y-78237749D01*
X79676033Y-78262253D01*
X79680814Y-78286286D01*
X79690190Y-78308923D01*
X79697549Y-78322691D01*
X79699677Y-78329705D01*
X79701000Y-78343140D01*
X79701000Y-78656860D01*
X79699677Y-78670295D01*
X79697549Y-78677309D01*
X79690190Y-78691077D01*
X79680813Y-78713716D01*
X79676033Y-78737749D01*
X79676033Y-78762253D01*
X79680814Y-78786286D01*
X79690190Y-78808923D01*
X79697549Y-78822691D01*
X79699677Y-78829705D01*
X79701000Y-78843140D01*
X79701000Y-79156860D01*
X79699677Y-79170295D01*
X79697549Y-79177309D01*
X79690190Y-79191077D01*
X79680813Y-79213716D01*
X79676033Y-79237749D01*
X79676033Y-79262253D01*
X79680814Y-79286286D01*
X79690190Y-79308923D01*
X79697549Y-79322691D01*
X79699677Y-79329705D01*
X79701000Y-79343140D01*
X79701000Y-79656860D01*
X79699677Y-79670295D01*
X79697549Y-79677309D01*
X79690190Y-79691077D01*
X79680813Y-79713716D01*
X79676033Y-79737749D01*
X79676033Y-79762253D01*
X79680814Y-79786286D01*
X79690190Y-79808923D01*
X79697549Y-79822691D01*
X79699677Y-79829705D01*
X79701000Y-79843140D01*
X79701000Y-80156860D01*
X79699677Y-80170295D01*
X79697549Y-80177309D01*
X79690190Y-80191077D01*
X79680813Y-80213716D01*
X79676033Y-80237749D01*
X79676033Y-80262253D01*
X79680814Y-80286286D01*
X79690190Y-80308923D01*
X79697549Y-80322691D01*
X79699677Y-80329705D01*
X79701000Y-80343140D01*
X79701000Y-80656860D01*
X79699677Y-80670295D01*
X79697549Y-80677309D01*
X79690190Y-80691077D01*
X79680813Y-80713716D01*
X79676033Y-80737749D01*
X79676033Y-80762253D01*
X79680814Y-80786286D01*
X79690190Y-80808923D01*
X79697549Y-80822691D01*
X79699677Y-80829705D01*
X79701000Y-80843140D01*
X79701000Y-81156860D01*
X79699677Y-81170295D01*
X79697549Y-81177309D01*
X79690190Y-81191077D01*
X79680813Y-81213716D01*
X79676033Y-81237749D01*
X79676033Y-81262253D01*
X79680814Y-81286286D01*
X79690190Y-81308923D01*
X79697549Y-81322691D01*
X79699677Y-81329705D01*
X79701000Y-81343140D01*
X79701000Y-81656860D01*
X79699677Y-81670295D01*
X79697549Y-81677309D01*
X79690190Y-81691077D01*
X79680813Y-81713716D01*
X79676033Y-81737749D01*
X79676033Y-81762253D01*
X79680814Y-81786286D01*
X79690190Y-81808923D01*
X79697549Y-81822691D01*
X79699677Y-81829705D01*
X79701000Y-81843140D01*
X79701000Y-82156860D01*
X79699677Y-82170295D01*
X79697549Y-82177309D01*
X79690190Y-82191077D01*
X79680813Y-82213716D01*
X79676033Y-82237749D01*
X79676033Y-82262253D01*
X79680814Y-82286286D01*
X79690190Y-82308923D01*
X79697549Y-82322691D01*
X79699677Y-82329705D01*
X79701000Y-82343140D01*
X79701000Y-82656860D01*
X79699677Y-82670295D01*
X79697549Y-82677309D01*
X79690190Y-82691077D01*
X79680813Y-82713716D01*
X79676033Y-82737749D01*
X79676033Y-82762253D01*
X79680814Y-82786286D01*
X79690190Y-82808923D01*
X79697549Y-82822691D01*
X79699677Y-82829705D01*
X79701000Y-82843140D01*
X79701000Y-83156860D01*
X79699677Y-83170295D01*
X79697549Y-83177310D01*
X79694092Y-83183776D01*
X79689442Y-83189442D01*
X79683776Y-83194092D01*
X79677310Y-83197549D01*
X79670295Y-83199677D01*
X79656860Y-83201000D01*
X78168140Y-83201000D01*
X78154705Y-83199677D01*
X78147690Y-83197549D01*
X78141224Y-83194092D01*
X78135558Y-83189442D01*
X78130908Y-83183776D01*
X78127451Y-83177310D01*
X78125323Y-83170295D01*
X78124000Y-83156860D01*
X78124000Y-82843140D01*
X78125323Y-82829705D01*
X78127451Y-82822691D01*
X78134810Y-82808923D01*
X78144187Y-82786284D01*
X78148967Y-82762251D01*
X78148967Y-82737747D01*
X78144186Y-82713714D01*
X78134810Y-82691077D01*
X78127451Y-82677309D01*
X78125323Y-82670295D01*
X78124000Y-82656860D01*
X78124000Y-82343140D01*
X78125323Y-82329705D01*
X78127451Y-82322691D01*
X78134810Y-82308923D01*
X78144187Y-82286284D01*
X78148967Y-82262251D01*
X78148967Y-82237747D01*
X78144186Y-82213714D01*
X78134810Y-82191077D01*
X78127451Y-82177309D01*
X78125323Y-82170295D01*
X78124000Y-82156860D01*
X78124000Y-81843140D01*
X78125323Y-81829705D01*
X78127451Y-81822691D01*
X78134810Y-81808923D01*
X78144187Y-81786284D01*
X78148967Y-81762251D01*
X78148967Y-81737747D01*
X78144186Y-81713714D01*
X78134810Y-81691077D01*
X78127451Y-81677309D01*
X78125323Y-81670295D01*
X78124000Y-81656860D01*
X78124000Y-81343140D01*
X78125323Y-81329705D01*
X78127451Y-81322691D01*
X78134810Y-81308923D01*
X78144187Y-81286284D01*
X78148967Y-81262251D01*
X78148967Y-81237747D01*
X78144186Y-81213714D01*
X78134810Y-81191077D01*
X78127451Y-81177309D01*
X78125323Y-81170295D01*
X78124000Y-81156860D01*
X78124000Y-80843140D01*
X78125323Y-80829705D01*
X78127451Y-80822691D01*
X78134810Y-80808923D01*
X78144187Y-80786284D01*
X78148967Y-80762251D01*
X78148967Y-80737747D01*
X78144186Y-80713714D01*
X78134810Y-80691077D01*
X78127451Y-80677309D01*
X78125323Y-80670295D01*
X78124000Y-80656860D01*
X78124000Y-80343140D01*
X78125323Y-80329705D01*
X78127451Y-80322691D01*
X78134810Y-80308923D01*
X78144187Y-80286284D01*
X78148967Y-80262251D01*
X78148967Y-80237747D01*
X78144186Y-80213714D01*
X78134810Y-80191077D01*
X78127451Y-80177309D01*
X78125323Y-80170295D01*
X78124000Y-80156860D01*
X78124000Y-79843140D01*
X78125323Y-79829705D01*
X78127451Y-79822691D01*
X78134810Y-79808923D01*
X78144187Y-79786284D01*
X78148967Y-79762251D01*
X78148967Y-79737747D01*
X78144186Y-79713714D01*
X78134810Y-79691077D01*
X78127451Y-79677309D01*
X78125323Y-79670295D01*
X78124000Y-79656860D01*
X78124000Y-79343140D01*
X78125323Y-79329705D01*
X78127451Y-79322691D01*
X78134810Y-79308923D01*
X78144187Y-79286284D01*
X78148967Y-79262251D01*
X78148967Y-79237747D01*
X78144186Y-79213714D01*
X78134810Y-79191077D01*
X78127451Y-79177309D01*
X78125323Y-79170295D01*
X78124000Y-79156860D01*
X78124000Y-78843140D01*
X78125323Y-78829705D01*
X78127451Y-78822691D01*
X78134810Y-78808923D01*
X78144187Y-78786284D01*
X78148967Y-78762251D01*
X78148967Y-78737747D01*
X78144186Y-78713714D01*
X78134810Y-78691077D01*
X78127451Y-78677309D01*
X78125323Y-78670295D01*
X78124000Y-78656860D01*
X78124000Y-78343140D01*
X78125323Y-78329705D01*
X78127451Y-78322691D01*
X78134810Y-78308923D01*
X78144187Y-78286284D01*
X78148967Y-78262251D01*
X78148967Y-78237747D01*
X78144186Y-78213714D01*
X78134810Y-78191077D01*
X78127451Y-78177309D01*
X78125323Y-78170295D01*
X78124000Y-78156860D01*
X78124000Y-77843140D01*
X78125323Y-77829705D01*
X78127451Y-77822691D01*
X78134810Y-77808923D01*
X78144187Y-77786284D01*
X78148967Y-77762251D01*
X78148967Y-77737747D01*
X78144186Y-77713714D01*
X78134810Y-77691077D01*
X78127451Y-77677309D01*
X78125323Y-77670295D01*
X78124000Y-77656860D01*
X78124000Y-77343140D01*
X78125323Y-77329705D01*
X78127451Y-77322690D01*
X78130908Y-77316224D01*
X78135558Y-77310558D01*
X78141224Y-77305908D01*
X78147690Y-77302451D01*
X78154705Y-77300323D01*
X78168140Y-77299000D01*
X79656860Y-77299000D01*
X79670295Y-77300323D01*
X79670295Y-77300323D01*
G37*
G36*
X52851000Y-82651000D02*
G01*
X50849000Y-82651000D01*
X50849000Y-81549000D01*
X52851000Y-81549000D01*
X52851000Y-82651000D01*
X52851000Y-82651000D01*
G37*
G36*
X60088674Y-81253465D02*
G01*
X60126367Y-81264899D01*
X60161103Y-81283466D01*
X60191548Y-81308452D01*
X60216534Y-81338897D01*
X60235101Y-81373633D01*
X60246535Y-81411326D01*
X60251000Y-81456661D01*
X60251000Y-82293339D01*
X60246535Y-82338674D01*
X60235101Y-82376367D01*
X60216534Y-82411103D01*
X60191548Y-82441548D01*
X60161103Y-82466534D01*
X60126367Y-82485101D01*
X60088674Y-82496535D01*
X60043339Y-82501000D01*
X58956661Y-82501000D01*
X58911326Y-82496535D01*
X58873633Y-82485101D01*
X58838897Y-82466534D01*
X58808452Y-82441548D01*
X58783466Y-82411103D01*
X58764899Y-82376367D01*
X58753465Y-82338674D01*
X58749000Y-82293339D01*
X58749000Y-81456661D01*
X58753465Y-81411326D01*
X58764899Y-81373633D01*
X58783466Y-81338897D01*
X58808452Y-81308452D01*
X58838897Y-81283466D01*
X58873633Y-81264899D01*
X58911326Y-81253465D01*
X58956661Y-81249000D01*
X60043339Y-81249000D01*
X60088674Y-81253465D01*
X60088674Y-81253465D01*
G37*
G36*
X67338674Y-80353465D02*
G01*
X67376367Y-80364899D01*
X67411103Y-80383466D01*
X67441548Y-80408452D01*
X67466534Y-80438897D01*
X67485101Y-80473633D01*
X67496535Y-80511326D01*
X67501000Y-80556661D01*
X67501000Y-81393339D01*
X67496535Y-81438674D01*
X67485101Y-81476367D01*
X67466534Y-81511103D01*
X67441548Y-81541548D01*
X67411103Y-81566534D01*
X67376367Y-81585101D01*
X67338674Y-81596535D01*
X67293339Y-81601000D01*
X66206661Y-81601000D01*
X66161326Y-81596535D01*
X66123633Y-81585101D01*
X66088897Y-81566534D01*
X66058452Y-81541548D01*
X66033466Y-81511103D01*
X66014899Y-81476367D01*
X66003465Y-81438674D01*
X65999000Y-81393339D01*
X65999000Y-80556661D01*
X66003465Y-80511326D01*
X66014899Y-80473633D01*
X66033466Y-80438897D01*
X66058452Y-80408452D01*
X66088897Y-80383466D01*
X66123633Y-80364899D01*
X66161326Y-80353465D01*
X66206661Y-80349000D01*
X67293339Y-80349000D01*
X67338674Y-80353465D01*
X67338674Y-80353465D01*
G37*
G36*
X86279943Y-78988519D02*
G01*
X86346127Y-78995037D01*
X86515966Y-79046557D01*
X86672491Y-79130222D01*
X86704949Y-79156860D01*
X86809686Y-79242814D01*
X86892020Y-79343140D01*
X86922278Y-79380009D01*
X87005943Y-79536534D01*
X87057463Y-79706373D01*
X87074859Y-79883000D01*
X87057463Y-80059627D01*
X87005943Y-80229466D01*
X87005942Y-80229468D01*
X87001517Y-80237747D01*
X86922278Y-80385991D01*
X86897212Y-80416534D01*
X86809686Y-80523186D01*
X86715477Y-80600500D01*
X86672491Y-80635778D01*
X86515966Y-80719443D01*
X86346127Y-80770963D01*
X86279942Y-80777482D01*
X86213760Y-80784000D01*
X86125240Y-80784000D01*
X86059058Y-80777482D01*
X85992873Y-80770963D01*
X85823034Y-80719443D01*
X85666509Y-80635778D01*
X85623523Y-80600500D01*
X85529314Y-80523186D01*
X85441788Y-80416534D01*
X85416722Y-80385991D01*
X85337483Y-80237747D01*
X85333058Y-80229468D01*
X85333057Y-80229466D01*
X85281537Y-80059627D01*
X85264141Y-79883000D01*
X85281537Y-79706373D01*
X85333057Y-79536534D01*
X85416722Y-79380009D01*
X85446980Y-79343140D01*
X85529314Y-79242814D01*
X85634051Y-79156860D01*
X85666509Y-79130222D01*
X85823034Y-79046557D01*
X85992873Y-78995037D01*
X86059057Y-78988519D01*
X86125240Y-78982000D01*
X86213760Y-78982000D01*
X86279943Y-78988519D01*
X86279943Y-78988519D01*
G37*
G36*
X82438674Y-79009465D02*
G01*
X82476367Y-79020899D01*
X82511103Y-79039466D01*
X82541548Y-79064452D01*
X82566534Y-79094897D01*
X82585101Y-79129633D01*
X82596535Y-79167326D01*
X82601000Y-79212661D01*
X82601000Y-80299339D01*
X82596535Y-80344674D01*
X82585101Y-80382367D01*
X82566534Y-80417103D01*
X82541548Y-80447548D01*
X82511103Y-80472534D01*
X82476367Y-80491101D01*
X82438674Y-80502535D01*
X82393339Y-80507000D01*
X81556661Y-80507000D01*
X81511326Y-80502535D01*
X81473633Y-80491101D01*
X81438897Y-80472534D01*
X81408452Y-80447548D01*
X81383466Y-80417103D01*
X81364899Y-80382367D01*
X81353465Y-80344674D01*
X81349000Y-80299339D01*
X81349000Y-79212661D01*
X81353465Y-79167326D01*
X81364899Y-79129633D01*
X81383466Y-79094897D01*
X81408452Y-79064452D01*
X81438897Y-79039466D01*
X81473633Y-79020899D01*
X81511326Y-79009465D01*
X81556661Y-79005000D01*
X82393339Y-79005000D01*
X82438674Y-79009465D01*
X82438674Y-79009465D01*
G37*
G36*
X84488674Y-79009465D02*
G01*
X84526367Y-79020899D01*
X84561103Y-79039466D01*
X84591548Y-79064452D01*
X84616534Y-79094897D01*
X84635101Y-79129633D01*
X84646535Y-79167326D01*
X84651000Y-79212661D01*
X84651000Y-80299339D01*
X84646535Y-80344674D01*
X84635101Y-80382367D01*
X84616534Y-80417103D01*
X84591548Y-80447548D01*
X84561103Y-80472534D01*
X84526367Y-80491101D01*
X84488674Y-80502535D01*
X84443339Y-80507000D01*
X83606661Y-80507000D01*
X83561326Y-80502535D01*
X83523633Y-80491101D01*
X83488897Y-80472534D01*
X83458452Y-80447548D01*
X83433466Y-80417103D01*
X83414899Y-80382367D01*
X83403465Y-80344674D01*
X83399000Y-80299339D01*
X83399000Y-79212661D01*
X83403465Y-79167326D01*
X83414899Y-79129633D01*
X83433466Y-79094897D01*
X83458452Y-79064452D01*
X83488897Y-79039466D01*
X83523633Y-79020899D01*
X83561326Y-79009465D01*
X83606661Y-79005000D01*
X84443339Y-79005000D01*
X84488674Y-79009465D01*
X84488674Y-79009465D01*
G37*
G36*
X60088674Y-79203465D02*
G01*
X60126367Y-79214899D01*
X60161103Y-79233466D01*
X60191548Y-79258452D01*
X60216534Y-79288897D01*
X60235101Y-79323633D01*
X60246535Y-79361326D01*
X60251000Y-79406661D01*
X60251000Y-80243339D01*
X60246535Y-80288674D01*
X60235101Y-80326367D01*
X60216534Y-80361103D01*
X60191548Y-80391548D01*
X60161103Y-80416534D01*
X60126367Y-80435101D01*
X60088674Y-80446535D01*
X60043339Y-80451000D01*
X58956661Y-80451000D01*
X58911326Y-80446535D01*
X58873633Y-80435101D01*
X58838897Y-80416534D01*
X58808452Y-80391548D01*
X58783466Y-80361103D01*
X58764899Y-80326367D01*
X58753465Y-80288674D01*
X58749000Y-80243339D01*
X58749000Y-79406661D01*
X58753465Y-79361326D01*
X58764899Y-79323633D01*
X58783466Y-79288897D01*
X58808452Y-79258452D01*
X58838897Y-79233466D01*
X58873633Y-79214899D01*
X58911326Y-79203465D01*
X58956661Y-79199000D01*
X60043339Y-79199000D01*
X60088674Y-79203465D01*
X60088674Y-79203465D01*
G37*
G36*
X56151000Y-80111000D02*
G01*
X54149000Y-80111000D01*
X54149000Y-79009000D01*
X56151000Y-79009000D01*
X56151000Y-80111000D01*
X56151000Y-80111000D01*
G37*
G36*
X86279942Y-76448518D02*
G01*
X86346127Y-76455037D01*
X86515966Y-76506557D01*
X86672491Y-76590222D01*
X86706430Y-76618075D01*
X86809686Y-76702814D01*
X86885428Y-76795107D01*
X86922278Y-76840009D01*
X87005943Y-76996534D01*
X87057463Y-77166373D01*
X87074859Y-77343000D01*
X87057463Y-77519627D01*
X87005943Y-77689466D01*
X86922278Y-77845991D01*
X86894455Y-77879893D01*
X86809686Y-77983186D01*
X86708229Y-78066448D01*
X86672491Y-78095778D01*
X86672489Y-78095779D01*
X86519959Y-78177309D01*
X86515966Y-78179443D01*
X86346127Y-78230963D01*
X86279942Y-78237482D01*
X86213760Y-78244000D01*
X86125240Y-78244000D01*
X86059058Y-78237482D01*
X85992873Y-78230963D01*
X85823034Y-78179443D01*
X85819042Y-78177309D01*
X85666511Y-78095779D01*
X85666509Y-78095778D01*
X85630771Y-78066448D01*
X85529314Y-77983186D01*
X85444545Y-77879893D01*
X85416722Y-77845991D01*
X85333057Y-77689466D01*
X85281537Y-77519627D01*
X85264141Y-77343000D01*
X85281537Y-77166373D01*
X85333057Y-76996534D01*
X85416722Y-76840009D01*
X85453572Y-76795107D01*
X85529314Y-76702814D01*
X85632570Y-76618075D01*
X85666509Y-76590222D01*
X85823034Y-76506557D01*
X85992873Y-76455037D01*
X86059058Y-76448518D01*
X86125240Y-76442000D01*
X86213760Y-76442000D01*
X86279942Y-76448518D01*
X86279942Y-76448518D01*
G37*
G36*
X82588674Y-76403465D02*
G01*
X82626367Y-76414899D01*
X82661103Y-76433466D01*
X82691548Y-76458452D01*
X82716534Y-76488897D01*
X82735101Y-76523633D01*
X82746535Y-76561326D01*
X82751000Y-76606661D01*
X82751000Y-77443339D01*
X82746535Y-77488674D01*
X82735101Y-77526367D01*
X82716534Y-77561103D01*
X82691548Y-77591548D01*
X82661103Y-77616534D01*
X82626367Y-77635101D01*
X82588674Y-77646535D01*
X82543339Y-77651000D01*
X81456661Y-77651000D01*
X81411326Y-77646535D01*
X81373633Y-77635101D01*
X81338897Y-77616534D01*
X81308452Y-77591548D01*
X81283466Y-77561103D01*
X81264899Y-77526367D01*
X81253465Y-77488674D01*
X81249000Y-77443339D01*
X81249000Y-76606661D01*
X81253465Y-76561326D01*
X81264899Y-76523633D01*
X81283466Y-76488897D01*
X81308452Y-76458452D01*
X81338897Y-76433466D01*
X81373633Y-76414899D01*
X81411326Y-76403465D01*
X81456661Y-76399000D01*
X82543339Y-76399000D01*
X82588674Y-76403465D01*
X82588674Y-76403465D01*
G37*
G36*
X52851000Y-77571000D02*
G01*
X50849000Y-77571000D01*
X50849000Y-76469000D01*
X52851000Y-76469000D01*
X52851000Y-77571000D01*
X52851000Y-77571000D01*
G37*
G36*
X68601000Y-77201000D02*
G01*
X66599000Y-77201000D01*
X66599000Y-75799000D01*
X68601000Y-75799000D01*
X68601000Y-77201000D01*
X68601000Y-77201000D01*
G37*
G36*
X65401000Y-77201000D02*
G01*
X63399000Y-77201000D01*
X63399000Y-75799000D01*
X65401000Y-75799000D01*
X65401000Y-77201000D01*
X65401000Y-77201000D01*
G37*
G36*
X72170295Y-75300323D02*
G01*
X72177309Y-75302451D01*
X72191077Y-75309810D01*
X72213716Y-75319187D01*
X72237749Y-75323967D01*
X72262253Y-75323967D01*
X72286286Y-75319186D01*
X72308923Y-75309810D01*
X72322691Y-75302451D01*
X72329705Y-75300323D01*
X72343140Y-75299000D01*
X72656860Y-75299000D01*
X72670295Y-75300323D01*
X72677309Y-75302451D01*
X72691077Y-75309810D01*
X72713716Y-75319187D01*
X72737749Y-75323967D01*
X72762253Y-75323967D01*
X72786286Y-75319186D01*
X72808923Y-75309810D01*
X72822691Y-75302451D01*
X72829705Y-75300323D01*
X72843140Y-75299000D01*
X73156860Y-75299000D01*
X73170295Y-75300323D01*
X73177309Y-75302451D01*
X73191077Y-75309810D01*
X73213716Y-75319187D01*
X73237749Y-75323967D01*
X73262253Y-75323967D01*
X73286286Y-75319186D01*
X73308923Y-75309810D01*
X73322691Y-75302451D01*
X73329705Y-75300323D01*
X73343140Y-75299000D01*
X73656860Y-75299000D01*
X73670295Y-75300323D01*
X73677309Y-75302451D01*
X73691077Y-75309810D01*
X73713716Y-75319187D01*
X73737749Y-75323967D01*
X73762253Y-75323967D01*
X73786286Y-75319186D01*
X73808923Y-75309810D01*
X73822691Y-75302451D01*
X73829705Y-75300323D01*
X73843140Y-75299000D01*
X74156860Y-75299000D01*
X74170295Y-75300323D01*
X74177309Y-75302451D01*
X74191077Y-75309810D01*
X74213716Y-75319187D01*
X74237749Y-75323967D01*
X74262253Y-75323967D01*
X74286286Y-75319186D01*
X74308923Y-75309810D01*
X74322691Y-75302451D01*
X74329705Y-75300323D01*
X74343140Y-75299000D01*
X74656860Y-75299000D01*
X74670295Y-75300323D01*
X74677309Y-75302451D01*
X74691077Y-75309810D01*
X74713716Y-75319187D01*
X74737749Y-75323967D01*
X74762253Y-75323967D01*
X74786286Y-75319186D01*
X74808923Y-75309810D01*
X74822691Y-75302451D01*
X74829705Y-75300323D01*
X74843140Y-75299000D01*
X75156860Y-75299000D01*
X75170295Y-75300323D01*
X75177309Y-75302451D01*
X75191077Y-75309810D01*
X75213716Y-75319187D01*
X75237749Y-75323967D01*
X75262253Y-75323967D01*
X75286286Y-75319186D01*
X75308923Y-75309810D01*
X75322691Y-75302451D01*
X75329705Y-75300323D01*
X75343140Y-75299000D01*
X75656860Y-75299000D01*
X75670295Y-75300323D01*
X75677309Y-75302451D01*
X75691077Y-75309810D01*
X75713716Y-75319187D01*
X75737749Y-75323967D01*
X75762253Y-75323967D01*
X75786286Y-75319186D01*
X75808923Y-75309810D01*
X75822691Y-75302451D01*
X75829705Y-75300323D01*
X75843140Y-75299000D01*
X76156860Y-75299000D01*
X76170295Y-75300323D01*
X76177309Y-75302451D01*
X76191077Y-75309810D01*
X76213716Y-75319187D01*
X76237749Y-75323967D01*
X76262253Y-75323967D01*
X76286286Y-75319186D01*
X76308923Y-75309810D01*
X76322691Y-75302451D01*
X76329705Y-75300323D01*
X76343140Y-75299000D01*
X76656860Y-75299000D01*
X76670295Y-75300323D01*
X76677309Y-75302451D01*
X76691077Y-75309810D01*
X76713716Y-75319187D01*
X76737749Y-75323967D01*
X76762253Y-75323967D01*
X76786286Y-75319186D01*
X76808923Y-75309810D01*
X76822691Y-75302451D01*
X76829705Y-75300323D01*
X76843140Y-75299000D01*
X77156860Y-75299000D01*
X77170295Y-75300323D01*
X77177309Y-75302451D01*
X77191077Y-75309810D01*
X77213716Y-75319187D01*
X77237749Y-75323967D01*
X77262253Y-75323967D01*
X77286286Y-75319186D01*
X77308923Y-75309810D01*
X77322691Y-75302451D01*
X77329705Y-75300323D01*
X77343140Y-75299000D01*
X77656860Y-75299000D01*
X77670295Y-75300323D01*
X77677310Y-75302451D01*
X77683776Y-75305908D01*
X77689442Y-75310558D01*
X77694092Y-75316224D01*
X77697549Y-75322690D01*
X77699677Y-75329705D01*
X77701000Y-75343140D01*
X77701000Y-76831860D01*
X77699677Y-76845295D01*
X77697549Y-76852310D01*
X77694092Y-76858776D01*
X77689442Y-76864442D01*
X77683776Y-76869092D01*
X77677310Y-76872549D01*
X77670295Y-76874677D01*
X77656860Y-76876000D01*
X77343140Y-76876000D01*
X77329705Y-76874677D01*
X77322691Y-76872549D01*
X77308923Y-76865190D01*
X77286284Y-76855813D01*
X77262251Y-76851033D01*
X77237747Y-76851033D01*
X77213714Y-76855814D01*
X77191077Y-76865190D01*
X77177309Y-76872549D01*
X77170295Y-76874677D01*
X77156860Y-76876000D01*
X76843140Y-76876000D01*
X76829705Y-76874677D01*
X76822691Y-76872549D01*
X76808923Y-76865190D01*
X76786284Y-76855813D01*
X76762251Y-76851033D01*
X76737747Y-76851033D01*
X76713714Y-76855814D01*
X76691077Y-76865190D01*
X76677309Y-76872549D01*
X76670295Y-76874677D01*
X76656860Y-76876000D01*
X76343140Y-76876000D01*
X76329705Y-76874677D01*
X76322691Y-76872549D01*
X76308923Y-76865190D01*
X76286284Y-76855813D01*
X76262251Y-76851033D01*
X76237747Y-76851033D01*
X76213714Y-76855814D01*
X76191077Y-76865190D01*
X76177309Y-76872549D01*
X76170295Y-76874677D01*
X76156860Y-76876000D01*
X75843140Y-76876000D01*
X75829705Y-76874677D01*
X75822691Y-76872549D01*
X75808923Y-76865190D01*
X75786284Y-76855813D01*
X75762251Y-76851033D01*
X75737747Y-76851033D01*
X75713714Y-76855814D01*
X75691077Y-76865190D01*
X75677309Y-76872549D01*
X75670295Y-76874677D01*
X75656860Y-76876000D01*
X75343140Y-76876000D01*
X75329705Y-76874677D01*
X75322691Y-76872549D01*
X75308923Y-76865190D01*
X75286284Y-76855813D01*
X75262251Y-76851033D01*
X75237747Y-76851033D01*
X75213714Y-76855814D01*
X75191077Y-76865190D01*
X75177309Y-76872549D01*
X75170295Y-76874677D01*
X75156860Y-76876000D01*
X74843140Y-76876000D01*
X74829705Y-76874677D01*
X74822691Y-76872549D01*
X74808923Y-76865190D01*
X74786284Y-76855813D01*
X74762251Y-76851033D01*
X74737747Y-76851033D01*
X74713714Y-76855814D01*
X74691077Y-76865190D01*
X74677309Y-76872549D01*
X74670295Y-76874677D01*
X74656860Y-76876000D01*
X74343140Y-76876000D01*
X74329705Y-76874677D01*
X74322691Y-76872549D01*
X74308923Y-76865190D01*
X74286284Y-76855813D01*
X74262251Y-76851033D01*
X74237747Y-76851033D01*
X74213714Y-76855814D01*
X74191077Y-76865190D01*
X74177309Y-76872549D01*
X74170295Y-76874677D01*
X74156860Y-76876000D01*
X73843140Y-76876000D01*
X73829705Y-76874677D01*
X73822691Y-76872549D01*
X73808923Y-76865190D01*
X73786284Y-76855813D01*
X73762251Y-76851033D01*
X73737747Y-76851033D01*
X73713714Y-76855814D01*
X73691077Y-76865190D01*
X73677309Y-76872549D01*
X73670295Y-76874677D01*
X73656860Y-76876000D01*
X73343140Y-76876000D01*
X73329705Y-76874677D01*
X73322691Y-76872549D01*
X73308923Y-76865190D01*
X73286284Y-76855813D01*
X73262251Y-76851033D01*
X73237747Y-76851033D01*
X73213714Y-76855814D01*
X73191077Y-76865190D01*
X73177309Y-76872549D01*
X73170295Y-76874677D01*
X73156860Y-76876000D01*
X72843140Y-76876000D01*
X72829705Y-76874677D01*
X72822691Y-76872549D01*
X72808923Y-76865190D01*
X72786284Y-76855813D01*
X72762251Y-76851033D01*
X72737747Y-76851033D01*
X72713714Y-76855814D01*
X72691077Y-76865190D01*
X72677309Y-76872549D01*
X72670295Y-76874677D01*
X72656860Y-76876000D01*
X72343140Y-76876000D01*
X72329705Y-76874677D01*
X72322691Y-76872549D01*
X72308923Y-76865190D01*
X72286284Y-76855813D01*
X72262251Y-76851033D01*
X72237747Y-76851033D01*
X72213714Y-76855814D01*
X72191077Y-76865190D01*
X72177309Y-76872549D01*
X72170295Y-76874677D01*
X72156860Y-76876000D01*
X71843140Y-76876000D01*
X71829705Y-76874677D01*
X71822690Y-76872549D01*
X71816224Y-76869092D01*
X71810558Y-76864442D01*
X71805908Y-76858776D01*
X71802451Y-76852310D01*
X71800323Y-76845295D01*
X71799000Y-76831860D01*
X71799000Y-75343140D01*
X71800323Y-75329705D01*
X71802451Y-75322690D01*
X71805908Y-75316224D01*
X71810558Y-75310558D01*
X71816224Y-75305908D01*
X71822690Y-75302451D01*
X71829705Y-75300323D01*
X71843140Y-75299000D01*
X72156860Y-75299000D01*
X72170295Y-75300323D01*
X72170295Y-75300323D01*
G37*
G36*
X61988674Y-75253465D02*
G01*
X62026367Y-75264899D01*
X62061103Y-75283466D01*
X62091548Y-75308452D01*
X62116534Y-75338897D01*
X62135101Y-75373633D01*
X62146535Y-75411326D01*
X62151000Y-75456661D01*
X62151000Y-76543339D01*
X62146535Y-76588674D01*
X62135101Y-76626367D01*
X62116534Y-76661103D01*
X62091548Y-76691548D01*
X62061103Y-76716534D01*
X62026367Y-76735101D01*
X61988674Y-76746535D01*
X61943339Y-76751000D01*
X61106661Y-76751000D01*
X61061326Y-76746535D01*
X61023633Y-76735101D01*
X60988897Y-76716534D01*
X60958452Y-76691548D01*
X60933466Y-76661103D01*
X60914899Y-76626367D01*
X60903465Y-76588674D01*
X60899000Y-76543339D01*
X60899000Y-75456661D01*
X60903465Y-75411326D01*
X60914899Y-75373633D01*
X60933466Y-75338897D01*
X60958452Y-75308452D01*
X60988897Y-75283466D01*
X61023633Y-75264899D01*
X61061326Y-75253465D01*
X61106661Y-75249000D01*
X61943339Y-75249000D01*
X61988674Y-75253465D01*
X61988674Y-75253465D01*
G37*
G36*
X59938674Y-75253465D02*
G01*
X59976367Y-75264899D01*
X60011103Y-75283466D01*
X60041548Y-75308452D01*
X60066534Y-75338897D01*
X60085101Y-75373633D01*
X60096535Y-75411326D01*
X60101000Y-75456661D01*
X60101000Y-76543339D01*
X60096535Y-76588674D01*
X60085101Y-76626367D01*
X60066534Y-76661103D01*
X60041548Y-76691548D01*
X60011103Y-76716534D01*
X59976367Y-76735101D01*
X59938674Y-76746535D01*
X59893339Y-76751000D01*
X59056661Y-76751000D01*
X59011326Y-76746535D01*
X58973633Y-76735101D01*
X58938897Y-76716534D01*
X58908452Y-76691548D01*
X58883466Y-76661103D01*
X58864899Y-76626367D01*
X58853465Y-76588674D01*
X58849000Y-76543339D01*
X58849000Y-75456661D01*
X58853465Y-75411326D01*
X58864899Y-75373633D01*
X58883466Y-75338897D01*
X58908452Y-75308452D01*
X58938897Y-75283466D01*
X58973633Y-75264899D01*
X59011326Y-75253465D01*
X59056661Y-75249000D01*
X59893339Y-75249000D01*
X59938674Y-75253465D01*
X59938674Y-75253465D01*
G37*
G36*
X86279942Y-73908518D02*
G01*
X86346127Y-73915037D01*
X86515966Y-73966557D01*
X86515968Y-73966558D01*
X86578533Y-74000000D01*
X86672491Y-74050222D01*
X86708229Y-74079552D01*
X86809686Y-74162814D01*
X86892948Y-74264271D01*
X86922278Y-74300009D01*
X87005943Y-74456534D01*
X87057463Y-74626373D01*
X87074859Y-74803000D01*
X87057463Y-74979627D01*
X87005943Y-75149466D01*
X86922278Y-75305991D01*
X86903626Y-75328718D01*
X86809686Y-75443186D01*
X86714657Y-75521173D01*
X86672491Y-75555778D01*
X86515966Y-75639443D01*
X86346127Y-75690963D01*
X86279942Y-75697482D01*
X86213760Y-75704000D01*
X86125240Y-75704000D01*
X86059058Y-75697482D01*
X85992873Y-75690963D01*
X85823034Y-75639443D01*
X85666509Y-75555778D01*
X85624343Y-75521173D01*
X85529314Y-75443186D01*
X85435374Y-75328718D01*
X85416722Y-75305991D01*
X85333057Y-75149466D01*
X85281537Y-74979627D01*
X85264141Y-74803000D01*
X85281537Y-74626373D01*
X85333057Y-74456534D01*
X85416722Y-74300009D01*
X85446052Y-74264271D01*
X85529314Y-74162814D01*
X85630771Y-74079552D01*
X85666509Y-74050222D01*
X85760467Y-74000000D01*
X85823032Y-73966558D01*
X85823034Y-73966557D01*
X85992873Y-73915037D01*
X86059058Y-73908518D01*
X86125240Y-73902000D01*
X86213760Y-73902000D01*
X86279942Y-73908518D01*
X86279942Y-73908518D01*
G37*
G36*
X80588674Y-74403465D02*
G01*
X80626367Y-74414899D01*
X80661103Y-74433466D01*
X80691548Y-74458452D01*
X80716534Y-74488897D01*
X80735101Y-74523633D01*
X80746535Y-74561326D01*
X80751000Y-74606661D01*
X80751000Y-75443339D01*
X80746535Y-75488674D01*
X80735101Y-75526367D01*
X80716534Y-75561103D01*
X80691548Y-75591548D01*
X80661103Y-75616534D01*
X80626367Y-75635101D01*
X80588674Y-75646535D01*
X80543339Y-75651000D01*
X79456661Y-75651000D01*
X79411326Y-75646535D01*
X79373633Y-75635101D01*
X79338897Y-75616534D01*
X79308452Y-75591548D01*
X79283466Y-75561103D01*
X79264899Y-75526367D01*
X79253465Y-75488674D01*
X79249000Y-75443339D01*
X79249000Y-74606661D01*
X79253465Y-74561326D01*
X79264899Y-74523633D01*
X79283466Y-74488897D01*
X79308452Y-74458452D01*
X79338897Y-74433466D01*
X79373633Y-74414899D01*
X79411326Y-74403465D01*
X79456661Y-74399000D01*
X80543339Y-74399000D01*
X80588674Y-74403465D01*
X80588674Y-74403465D01*
G37*
G36*
X82588674Y-74353465D02*
G01*
X82626367Y-74364899D01*
X82661103Y-74383466D01*
X82691548Y-74408452D01*
X82716534Y-74438897D01*
X82735101Y-74473633D01*
X82746535Y-74511326D01*
X82751000Y-74556661D01*
X82751000Y-75393339D01*
X82746535Y-75438674D01*
X82735101Y-75476367D01*
X82716534Y-75511103D01*
X82691548Y-75541548D01*
X82661103Y-75566534D01*
X82626367Y-75585101D01*
X82588674Y-75596535D01*
X82543339Y-75601000D01*
X81456661Y-75601000D01*
X81411326Y-75596535D01*
X81373633Y-75585101D01*
X81338897Y-75566534D01*
X81308452Y-75541548D01*
X81283466Y-75511103D01*
X81264899Y-75476367D01*
X81253465Y-75438674D01*
X81249000Y-75393339D01*
X81249000Y-74556661D01*
X81253465Y-74511326D01*
X81264899Y-74473633D01*
X81283466Y-74438897D01*
X81308452Y-74408452D01*
X81338897Y-74383466D01*
X81373633Y-74364899D01*
X81411326Y-74353465D01*
X81456661Y-74349000D01*
X82543339Y-74349000D01*
X82588674Y-74353465D01*
X82588674Y-74353465D01*
G37*
G36*
X56151000Y-75031000D02*
G01*
X54149000Y-75031000D01*
X54149000Y-73929000D01*
X56151000Y-73929000D01*
X56151000Y-75031000D01*
X56151000Y-75031000D01*
G37*
G36*
X70588674Y-73153465D02*
G01*
X70626367Y-73164899D01*
X70661103Y-73183466D01*
X70691548Y-73208452D01*
X70716534Y-73238897D01*
X70735101Y-73273633D01*
X70746535Y-73311326D01*
X70751000Y-73356661D01*
X70751000Y-74193339D01*
X70746535Y-74238674D01*
X70735101Y-74276367D01*
X70716534Y-74311103D01*
X70691548Y-74341548D01*
X70661103Y-74366534D01*
X70626367Y-74385101D01*
X70588674Y-74396535D01*
X70543339Y-74401000D01*
X69456661Y-74401000D01*
X69411326Y-74396535D01*
X69373633Y-74385101D01*
X69338897Y-74366534D01*
X69308452Y-74341548D01*
X69283466Y-74311103D01*
X69264899Y-74276367D01*
X69253465Y-74238674D01*
X69249000Y-74193339D01*
X69249000Y-73356661D01*
X69253465Y-73311326D01*
X69264899Y-73273633D01*
X69283466Y-73238897D01*
X69308452Y-73208452D01*
X69338897Y-73183466D01*
X69373633Y-73164899D01*
X69411326Y-73153465D01*
X69456661Y-73149000D01*
X70543339Y-73149000D01*
X70588674Y-73153465D01*
X70588674Y-73153465D01*
G37*
G36*
X75784999Y-72449737D02*
G01*
X75794608Y-72452652D01*
X75803472Y-72457390D01*
X75811212Y-72463742D01*
X75811213Y-72463743D01*
X75811237Y-72463763D01*
X75817640Y-72471573D01*
X75817677Y-72471628D01*
X75825480Y-72481147D01*
X75825511Y-72481122D01*
X75836853Y-72494972D01*
X75855779Y-72510537D01*
X75877377Y-72522111D01*
X75900819Y-72529249D01*
X75925202Y-72531676D01*
X75949591Y-72529300D01*
X75973047Y-72522211D01*
X75994670Y-72510682D01*
X76013628Y-72495157D01*
X76029193Y-72476231D01*
X76031029Y-72473175D01*
X76032418Y-72471486D01*
X76032419Y-72471484D01*
X76038801Y-72463725D01*
X76041392Y-72461603D01*
X76046575Y-72457358D01*
X76055399Y-72452654D01*
X76055438Y-72452633D01*
X76065055Y-72449727D01*
X76065085Y-72449718D01*
X76081113Y-72448148D01*
X77218860Y-72448148D01*
X77234999Y-72449737D01*
X77244608Y-72452652D01*
X77253472Y-72457390D01*
X77261237Y-72463763D01*
X77267610Y-72471528D01*
X77272348Y-72480392D01*
X77275263Y-72490001D01*
X77276852Y-72506140D01*
X77276852Y-73993860D01*
X77275263Y-74009999D01*
X77272348Y-74019608D01*
X77267610Y-74028472D01*
X77261237Y-74036237D01*
X77253472Y-74042610D01*
X77244608Y-74047348D01*
X77234999Y-74050263D01*
X77218860Y-74051852D01*
X76081140Y-74051852D01*
X76065001Y-74050263D01*
X76055392Y-74047348D01*
X76046528Y-74042610D01*
X76038763Y-74036237D01*
X76028116Y-74023263D01*
X76021947Y-74014032D01*
X76004619Y-73996706D01*
X75984244Y-73983093D01*
X75961605Y-73973717D01*
X75937572Y-73968937D01*
X75913068Y-73968938D01*
X75889035Y-73973720D01*
X75866396Y-73983098D01*
X75846022Y-73996713D01*
X75828696Y-74014041D01*
X75821825Y-74023317D01*
X75817640Y-74028427D01*
X75811275Y-74036199D01*
X75803516Y-74042581D01*
X75794661Y-74047326D01*
X75791623Y-74048251D01*
X75785085Y-74050242D01*
X75785082Y-74050242D01*
X75785050Y-74050252D01*
X75775000Y-74051247D01*
X75774935Y-74051247D01*
X75768825Y-74051852D01*
X74781140Y-74051852D01*
X74765001Y-74050263D01*
X74755392Y-74047348D01*
X74746528Y-74042610D01*
X74738763Y-74036237D01*
X74732390Y-74028472D01*
X74727652Y-74019608D01*
X74724737Y-74009999D01*
X74723148Y-73993860D01*
X74723148Y-72506140D01*
X74724737Y-72490001D01*
X74727652Y-72480392D01*
X74732390Y-72471528D01*
X74738763Y-72463763D01*
X74746528Y-72457390D01*
X74755392Y-72452652D01*
X74765001Y-72449737D01*
X74781140Y-72448148D01*
X75768860Y-72448148D01*
X75784999Y-72449737D01*
X75784999Y-72449737D01*
G37*
G36*
X62588674Y-72403465D02*
G01*
X62626367Y-72414899D01*
X62661103Y-72433466D01*
X62691548Y-72458452D01*
X62716534Y-72488897D01*
X62735101Y-72523633D01*
X62746535Y-72561326D01*
X62751000Y-72606661D01*
X62751000Y-73443339D01*
X62746535Y-73488674D01*
X62735101Y-73526367D01*
X62716534Y-73561103D01*
X62691548Y-73591548D01*
X62661103Y-73616534D01*
X62626367Y-73635101D01*
X62588674Y-73646535D01*
X62543339Y-73651000D01*
X61456661Y-73651000D01*
X61411326Y-73646535D01*
X61373633Y-73635101D01*
X61338897Y-73616534D01*
X61308452Y-73591548D01*
X61283466Y-73561103D01*
X61264899Y-73526367D01*
X61253465Y-73488674D01*
X61249000Y-73443339D01*
X61249000Y-72606661D01*
X61253465Y-72561326D01*
X61264899Y-72523633D01*
X61283466Y-72488897D01*
X61308452Y-72458452D01*
X61338897Y-72433466D01*
X61373633Y-72414899D01*
X61411326Y-72403465D01*
X61456661Y-72399000D01*
X62543339Y-72399000D01*
X62588674Y-72403465D01*
X62588674Y-72403465D01*
G37*
G36*
X80588674Y-72353465D02*
G01*
X80626367Y-72364899D01*
X80661103Y-72383466D01*
X80691548Y-72408452D01*
X80716534Y-72438897D01*
X80735101Y-72473633D01*
X80746535Y-72511326D01*
X80751000Y-72556661D01*
X80751000Y-73393339D01*
X80746535Y-73438674D01*
X80735101Y-73476367D01*
X80716534Y-73511103D01*
X80691548Y-73541548D01*
X80661103Y-73566534D01*
X80626367Y-73585101D01*
X80588674Y-73596535D01*
X80543339Y-73601000D01*
X79456661Y-73601000D01*
X79411326Y-73596535D01*
X79373633Y-73585101D01*
X79338897Y-73566534D01*
X79308452Y-73541548D01*
X79283466Y-73511103D01*
X79264899Y-73476367D01*
X79253465Y-73438674D01*
X79249000Y-73393339D01*
X79249000Y-72556661D01*
X79253465Y-72511326D01*
X79264899Y-72473633D01*
X79283466Y-72438897D01*
X79308452Y-72408452D01*
X79338897Y-72383466D01*
X79373633Y-72364899D01*
X79411326Y-72353465D01*
X79456661Y-72349000D01*
X80543339Y-72349000D01*
X80588674Y-72353465D01*
X80588674Y-72353465D01*
G37*
G36*
X60501000Y-73401000D02*
G01*
X59499000Y-73401000D01*
X59499000Y-72499000D01*
X60501000Y-72499000D01*
X60501000Y-73401000D01*
X60501000Y-73401000D01*
G37*
G36*
X87070500Y-73164000D02*
G01*
X85268500Y-73164000D01*
X85268500Y-71362000D01*
X87070500Y-71362000D01*
X87070500Y-73164000D01*
X87070500Y-73164000D01*
G37*
G36*
X52851000Y-72491000D02*
G01*
X50849000Y-72491000D01*
X50849000Y-71389000D01*
X52851000Y-71389000D01*
X52851000Y-72491000D01*
X52851000Y-72491000D01*
G37*
G36*
X58501000Y-72451000D02*
G01*
X57499000Y-72451000D01*
X57499000Y-71549000D01*
X58501000Y-71549000D01*
X58501000Y-72451000D01*
X58501000Y-72451000D01*
G37*
G36*
X70588674Y-71103465D02*
G01*
X70626367Y-71114899D01*
X70661103Y-71133466D01*
X70691548Y-71158452D01*
X70716534Y-71188897D01*
X70735101Y-71223633D01*
X70746535Y-71261326D01*
X70751000Y-71306661D01*
X70751000Y-72143339D01*
X70746535Y-72188674D01*
X70735101Y-72226367D01*
X70716534Y-72261103D01*
X70691548Y-72291548D01*
X70661103Y-72316534D01*
X70626367Y-72335101D01*
X70588674Y-72346535D01*
X70543339Y-72351000D01*
X69456661Y-72351000D01*
X69411326Y-72346535D01*
X69373633Y-72335101D01*
X69338897Y-72316534D01*
X69308452Y-72291548D01*
X69283466Y-72261103D01*
X69264899Y-72226367D01*
X69253465Y-72188674D01*
X69249000Y-72143339D01*
X69249000Y-71306661D01*
X69253465Y-71261326D01*
X69264899Y-71223633D01*
X69283466Y-71188897D01*
X69308452Y-71158452D01*
X69338897Y-71133466D01*
X69373633Y-71114899D01*
X69411326Y-71103465D01*
X69456661Y-71099000D01*
X70543339Y-71099000D01*
X70588674Y-71103465D01*
X70588674Y-71103465D01*
G37*
G36*
X65401000Y-71701000D02*
G01*
X63399000Y-71701000D01*
X63399000Y-70299000D01*
X65401000Y-70299000D01*
X65401000Y-71701000D01*
X65401000Y-71701000D01*
G37*
G36*
X68601000Y-71701000D02*
G01*
X66599000Y-71701000D01*
X66599000Y-70299000D01*
X68601000Y-70299000D01*
X68601000Y-71701000D01*
X68601000Y-71701000D01*
G37*
G36*
X62588674Y-70353465D02*
G01*
X62626367Y-70364899D01*
X62661103Y-70383466D01*
X62691548Y-70408452D01*
X62716534Y-70438897D01*
X62735101Y-70473633D01*
X62746535Y-70511326D01*
X62751000Y-70556661D01*
X62751000Y-71393339D01*
X62746535Y-71438674D01*
X62735101Y-71476367D01*
X62716534Y-71511103D01*
X62691548Y-71541548D01*
X62661103Y-71566534D01*
X62626367Y-71585101D01*
X62588674Y-71596535D01*
X62543339Y-71601000D01*
X61456661Y-71601000D01*
X61411326Y-71596535D01*
X61373633Y-71585101D01*
X61338897Y-71566534D01*
X61308452Y-71541548D01*
X61283466Y-71511103D01*
X61264899Y-71476367D01*
X61253465Y-71438674D01*
X61249000Y-71393339D01*
X61249000Y-70556661D01*
X61253465Y-70511326D01*
X61264899Y-70473633D01*
X61283466Y-70438897D01*
X61308452Y-70408452D01*
X61338897Y-70383466D01*
X61373633Y-70364899D01*
X61411326Y-70353465D01*
X61456661Y-70349000D01*
X62543339Y-70349000D01*
X62588674Y-70353465D01*
X62588674Y-70353465D01*
G37*
G36*
X60501000Y-71501000D02*
G01*
X59499000Y-71501000D01*
X59499000Y-70599000D01*
X60501000Y-70599000D01*
X60501000Y-71501000D01*
X60501000Y-71501000D01*
G37*
G36*
X56151000Y-69951000D02*
G01*
X54149000Y-69951000D01*
X54149000Y-68849000D01*
X56151000Y-68849000D01*
X56151000Y-69951000D01*
X56151000Y-69951000D01*
G37*
G36*
X69110443Y-66105519D02*
G01*
X69176627Y-66112037D01*
X69346466Y-66163557D01*
X69502991Y-66247222D01*
X69538729Y-66276552D01*
X69640186Y-66359814D01*
X69723448Y-66461271D01*
X69752778Y-66497009D01*
X69836443Y-66653534D01*
X69887963Y-66823373D01*
X69905359Y-67000000D01*
X69887963Y-67176627D01*
X69836443Y-67346466D01*
X69752778Y-67502991D01*
X69723448Y-67538729D01*
X69640186Y-67640186D01*
X69538729Y-67723448D01*
X69502991Y-67752778D01*
X69346466Y-67836443D01*
X69176627Y-67887963D01*
X69110442Y-67894482D01*
X69044260Y-67901000D01*
X68955740Y-67901000D01*
X68889558Y-67894482D01*
X68823373Y-67887963D01*
X68653534Y-67836443D01*
X68497009Y-67752778D01*
X68461271Y-67723448D01*
X68359814Y-67640186D01*
X68276552Y-67538729D01*
X68247222Y-67502991D01*
X68163557Y-67346466D01*
X68112037Y-67176627D01*
X68094641Y-67000000D01*
X68112037Y-66823373D01*
X68163557Y-66653534D01*
X68247222Y-66497009D01*
X68276552Y-66461271D01*
X68359814Y-66359814D01*
X68461271Y-66276552D01*
X68497009Y-66247222D01*
X68653534Y-66163557D01*
X68823373Y-66112037D01*
X68889557Y-66105519D01*
X68955740Y-66099000D01*
X69044260Y-66099000D01*
X69110443Y-66105519D01*
X69110443Y-66105519D01*
G37*
G36*
X63088674Y-66653465D02*
G01*
X63126367Y-66664899D01*
X63161103Y-66683466D01*
X63191548Y-66708452D01*
X63216534Y-66738897D01*
X63235101Y-66773633D01*
X63246535Y-66811326D01*
X63251000Y-66856661D01*
X63251000Y-67693339D01*
X63246535Y-67738674D01*
X63235101Y-67776367D01*
X63216534Y-67811103D01*
X63191548Y-67841548D01*
X63161103Y-67866534D01*
X63126367Y-67885101D01*
X63088674Y-67896535D01*
X63043339Y-67901000D01*
X61956661Y-67901000D01*
X61911326Y-67896535D01*
X61873633Y-67885101D01*
X61838897Y-67866534D01*
X61808452Y-67841548D01*
X61783466Y-67811103D01*
X61764899Y-67776367D01*
X61753465Y-67738674D01*
X61749000Y-67693339D01*
X61749000Y-66856661D01*
X61753465Y-66811326D01*
X61764899Y-66773633D01*
X61783466Y-66738897D01*
X61808452Y-66708452D01*
X61838897Y-66683466D01*
X61873633Y-66664899D01*
X61911326Y-66653465D01*
X61956661Y-66649000D01*
X63043339Y-66649000D01*
X63088674Y-66653465D01*
X63088674Y-66653465D01*
G37*
G36*
X67361000Y-67901000D02*
G01*
X65559000Y-67901000D01*
X65559000Y-66099000D01*
X67361000Y-66099000D01*
X67361000Y-67901000D01*
X67361000Y-67901000D01*
G37*
G36*
X60501000Y-67651000D02*
G01*
X59499000Y-67651000D01*
X59499000Y-66749000D01*
X60501000Y-66749000D01*
X60501000Y-67651000D01*
X60501000Y-67651000D01*
G37*
G36*
X52851000Y-67411000D02*
G01*
X50849000Y-67411000D01*
X50849000Y-66309000D01*
X52851000Y-66309000D01*
X52851000Y-67411000D01*
X52851000Y-67411000D01*
G37*
G36*
X84624928Y-64951764D02*
G01*
X84646009Y-64958160D01*
X84665445Y-64968548D01*
X84682476Y-64982524D01*
X84696452Y-64999555D01*
X84706840Y-65018991D01*
X84713236Y-65040072D01*
X84716000Y-65068140D01*
X84716000Y-66881860D01*
X84713236Y-66909928D01*
X84706840Y-66931009D01*
X84696452Y-66950445D01*
X84682476Y-66967476D01*
X84665445Y-66981452D01*
X84646009Y-66991840D01*
X84624928Y-66998236D01*
X84596860Y-67001000D01*
X84133140Y-67001000D01*
X84105072Y-66998236D01*
X84083991Y-66991840D01*
X84064555Y-66981452D01*
X84047524Y-66967476D01*
X84033548Y-66950445D01*
X84023160Y-66931009D01*
X84016764Y-66909928D01*
X84014000Y-66881860D01*
X84014000Y-65068140D01*
X84016764Y-65040072D01*
X84023160Y-65018991D01*
X84033548Y-64999555D01*
X84047524Y-64982524D01*
X84064555Y-64968548D01*
X84083991Y-64958160D01*
X84105072Y-64951764D01*
X84133140Y-64949000D01*
X84596860Y-64949000D01*
X84624928Y-64951764D01*
X84624928Y-64951764D01*
G37*
G36*
X87164928Y-64951764D02*
G01*
X87186009Y-64958160D01*
X87205445Y-64968548D01*
X87222476Y-64982524D01*
X87236452Y-64999555D01*
X87246840Y-65018991D01*
X87253236Y-65040072D01*
X87256000Y-65068140D01*
X87256000Y-66881860D01*
X87253236Y-66909928D01*
X87246840Y-66931009D01*
X87236452Y-66950445D01*
X87222476Y-66967476D01*
X87205445Y-66981452D01*
X87186009Y-66991840D01*
X87164928Y-66998236D01*
X87136860Y-67001000D01*
X86673140Y-67001000D01*
X86645072Y-66998236D01*
X86623991Y-66991840D01*
X86604555Y-66981452D01*
X86587524Y-66967476D01*
X86573548Y-66950445D01*
X86563160Y-66931009D01*
X86556764Y-66909928D01*
X86554000Y-66881860D01*
X86554000Y-65068140D01*
X86556764Y-65040072D01*
X86563160Y-65018991D01*
X86573548Y-64999555D01*
X86587524Y-64982524D01*
X86604555Y-64968548D01*
X86623991Y-64958160D01*
X86645072Y-64951764D01*
X86673140Y-64949000D01*
X87136860Y-64949000D01*
X87164928Y-64951764D01*
X87164928Y-64951764D01*
G37*
G36*
X85894928Y-64951764D02*
G01*
X85916009Y-64958160D01*
X85935445Y-64968548D01*
X85952476Y-64982524D01*
X85966452Y-64999555D01*
X85976840Y-65018991D01*
X85983236Y-65040072D01*
X85986000Y-65068140D01*
X85986000Y-66881860D01*
X85983236Y-66909928D01*
X85976840Y-66931009D01*
X85966452Y-66950445D01*
X85952476Y-66967476D01*
X85935445Y-66981452D01*
X85916009Y-66991840D01*
X85894928Y-66998236D01*
X85866860Y-67001000D01*
X85403140Y-67001000D01*
X85375072Y-66998236D01*
X85353991Y-66991840D01*
X85334555Y-66981452D01*
X85317524Y-66967476D01*
X85303548Y-66950445D01*
X85293160Y-66931009D01*
X85286764Y-66909928D01*
X85284000Y-66881860D01*
X85284000Y-65068140D01*
X85286764Y-65040072D01*
X85293160Y-65018991D01*
X85303548Y-64999555D01*
X85317524Y-64982524D01*
X85334555Y-64968548D01*
X85353991Y-64958160D01*
X85375072Y-64951764D01*
X85403140Y-64949000D01*
X85866860Y-64949000D01*
X85894928Y-64951764D01*
X85894928Y-64951764D01*
G37*
G36*
X83354928Y-64951764D02*
G01*
X83376009Y-64958160D01*
X83395445Y-64968548D01*
X83412476Y-64982524D01*
X83426452Y-64999555D01*
X83436840Y-65018991D01*
X83443236Y-65040072D01*
X83446000Y-65068140D01*
X83446000Y-66881860D01*
X83443236Y-66909928D01*
X83436840Y-66931009D01*
X83426452Y-66950445D01*
X83412476Y-66967476D01*
X83395445Y-66981452D01*
X83376009Y-66991840D01*
X83354928Y-66998236D01*
X83326860Y-67001000D01*
X82863140Y-67001000D01*
X82835072Y-66998236D01*
X82813991Y-66991840D01*
X82794555Y-66981452D01*
X82777524Y-66967476D01*
X82763548Y-66950445D01*
X82753160Y-66931009D01*
X82746764Y-66909928D01*
X82744000Y-66881860D01*
X82744000Y-65068140D01*
X82746764Y-65040072D01*
X82753160Y-65018991D01*
X82763548Y-64999555D01*
X82777524Y-64982524D01*
X82794555Y-64968548D01*
X82813991Y-64958160D01*
X82835072Y-64951764D01*
X82863140Y-64949000D01*
X83326860Y-64949000D01*
X83354928Y-64951764D01*
X83354928Y-64951764D01*
G37*
G36*
X58501000Y-66701000D02*
G01*
X57499000Y-66701000D01*
X57499000Y-65799000D01*
X58501000Y-65799000D01*
X58501000Y-66701000D01*
X58501000Y-66701000D01*
G37*
G36*
X63088674Y-64603465D02*
G01*
X63126367Y-64614899D01*
X63161103Y-64633466D01*
X63191548Y-64658452D01*
X63216534Y-64688897D01*
X63235101Y-64723633D01*
X63246535Y-64761326D01*
X63251000Y-64806661D01*
X63251000Y-65643339D01*
X63246535Y-65688674D01*
X63235101Y-65726367D01*
X63216534Y-65761103D01*
X63191548Y-65791548D01*
X63161103Y-65816534D01*
X63126367Y-65835101D01*
X63088674Y-65846535D01*
X63043339Y-65851000D01*
X61956661Y-65851000D01*
X61911326Y-65846535D01*
X61873633Y-65835101D01*
X61838897Y-65816534D01*
X61808452Y-65791548D01*
X61783466Y-65761103D01*
X61764899Y-65726367D01*
X61753465Y-65688674D01*
X61749000Y-65643339D01*
X61749000Y-64806661D01*
X61753465Y-64761326D01*
X61764899Y-64723633D01*
X61783466Y-64688897D01*
X61808452Y-64658452D01*
X61838897Y-64633466D01*
X61873633Y-64614899D01*
X61911326Y-64603465D01*
X61956661Y-64599000D01*
X63043339Y-64599000D01*
X63088674Y-64603465D01*
X63088674Y-64603465D01*
G37*
G36*
X60501000Y-65751000D02*
G01*
X59499000Y-65751000D01*
X59499000Y-64849000D01*
X60501000Y-64849000D01*
X60501000Y-65751000D01*
X60501000Y-65751000D01*
G37*
G36*
X65601000Y-65401000D02*
G01*
X64599000Y-65401000D01*
X64599000Y-64099000D01*
X65601000Y-64099000D01*
X65601000Y-65401000D01*
X65601000Y-65401000D01*
G37*
G36*
X68901000Y-65401000D02*
G01*
X67899000Y-65401000D01*
X67899000Y-64099000D01*
X68901000Y-64099000D01*
X68901000Y-65401000D01*
X68901000Y-65401000D01*
G37*
G36*
X74688674Y-63753465D02*
G01*
X74726367Y-63764899D01*
X74761103Y-63783466D01*
X74791548Y-63808452D01*
X74816534Y-63838897D01*
X74835101Y-63873633D01*
X74846535Y-63911326D01*
X74851000Y-63956661D01*
X74851000Y-65043339D01*
X74846535Y-65088674D01*
X74835101Y-65126367D01*
X74816534Y-65161103D01*
X74791548Y-65191548D01*
X74761103Y-65216534D01*
X74726367Y-65235101D01*
X74688674Y-65246535D01*
X74643339Y-65251000D01*
X73806661Y-65251000D01*
X73761326Y-65246535D01*
X73723633Y-65235101D01*
X73688897Y-65216534D01*
X73658452Y-65191548D01*
X73633466Y-65161103D01*
X73614899Y-65126367D01*
X73603465Y-65088674D01*
X73599000Y-65043339D01*
X73599000Y-63956661D01*
X73603465Y-63911326D01*
X73614899Y-63873633D01*
X73633466Y-63838897D01*
X73658452Y-63808452D01*
X73688897Y-63783466D01*
X73723633Y-63764899D01*
X73761326Y-63753465D01*
X73806661Y-63749000D01*
X74643339Y-63749000D01*
X74688674Y-63753465D01*
X74688674Y-63753465D01*
G37*
G36*
X76738674Y-63753465D02*
G01*
X76776367Y-63764899D01*
X76811103Y-63783466D01*
X76841548Y-63808452D01*
X76866534Y-63838897D01*
X76885101Y-63873633D01*
X76896535Y-63911326D01*
X76901000Y-63956661D01*
X76901000Y-65043339D01*
X76896535Y-65088674D01*
X76885101Y-65126367D01*
X76866534Y-65161103D01*
X76841548Y-65191548D01*
X76811103Y-65216534D01*
X76776367Y-65235101D01*
X76738674Y-65246535D01*
X76693339Y-65251000D01*
X75856661Y-65251000D01*
X75811326Y-65246535D01*
X75773633Y-65235101D01*
X75738897Y-65216534D01*
X75708452Y-65191548D01*
X75683466Y-65161103D01*
X75664899Y-65126367D01*
X75653465Y-65088674D01*
X75649000Y-65043339D01*
X75649000Y-63956661D01*
X75653465Y-63911326D01*
X75664899Y-63873633D01*
X75683466Y-63838897D01*
X75708452Y-63808452D01*
X75738897Y-63783466D01*
X75773633Y-63764899D01*
X75811326Y-63753465D01*
X75856661Y-63749000D01*
X76693339Y-63749000D01*
X76738674Y-63753465D01*
X76738674Y-63753465D01*
G37*
G36*
X56151000Y-64871000D02*
G01*
X54149000Y-64871000D01*
X54149000Y-63769000D01*
X56151000Y-63769000D01*
X56151000Y-64871000D01*
X56151000Y-64871000D01*
G37*
G36*
X70338674Y-61903465D02*
G01*
X70376367Y-61914899D01*
X70411103Y-61933466D01*
X70441548Y-61958452D01*
X70466534Y-61988897D01*
X70485101Y-62023633D01*
X70496535Y-62061326D01*
X70501000Y-62106661D01*
X70501000Y-62943339D01*
X70496535Y-62988674D01*
X70485101Y-63026367D01*
X70466534Y-63061103D01*
X70441548Y-63091548D01*
X70411103Y-63116534D01*
X70376367Y-63135101D01*
X70338674Y-63146535D01*
X70293339Y-63151000D01*
X69206661Y-63151000D01*
X69161326Y-63146535D01*
X69123633Y-63135101D01*
X69088897Y-63116534D01*
X69058452Y-63091548D01*
X69033466Y-63061103D01*
X69014899Y-63026367D01*
X69003465Y-62988674D01*
X68999000Y-62943339D01*
X68999000Y-62106661D01*
X69003465Y-62061326D01*
X69014899Y-62023633D01*
X69033466Y-61988897D01*
X69058452Y-61958452D01*
X69088897Y-61933466D01*
X69123633Y-61914899D01*
X69161326Y-61903465D01*
X69206661Y-61899000D01*
X70293339Y-61899000D01*
X70338674Y-61903465D01*
X70338674Y-61903465D01*
G37*
G36*
X74751000Y-63001000D02*
G01*
X73849000Y-63001000D01*
X73849000Y-61999000D01*
X74751000Y-61999000D01*
X74751000Y-63001000D01*
X74751000Y-63001000D01*
G37*
G36*
X76651000Y-63001000D02*
G01*
X75749000Y-63001000D01*
X75749000Y-61999000D01*
X76651000Y-61999000D01*
X76651000Y-63001000D01*
X76651000Y-63001000D01*
G37*
G36*
X68181000Y-62826000D02*
G01*
X67019000Y-62826000D01*
X67019000Y-62074000D01*
X68181000Y-62074000D01*
X68181000Y-62826000D01*
X68181000Y-62826000D01*
G37*
G36*
X65981000Y-62826000D02*
G01*
X64819000Y-62826000D01*
X64819000Y-60174000D01*
X65981000Y-60174000D01*
X65981000Y-62826000D01*
X65981000Y-62826000D01*
G37*
G36*
X63088674Y-61403465D02*
G01*
X63126367Y-61414899D01*
X63161103Y-61433466D01*
X63191548Y-61458452D01*
X63216534Y-61488897D01*
X63235101Y-61523633D01*
X63246535Y-61561326D01*
X63251000Y-61606661D01*
X63251000Y-62443339D01*
X63246535Y-62488674D01*
X63235101Y-62526367D01*
X63216534Y-62561103D01*
X63191548Y-62591548D01*
X63161103Y-62616534D01*
X63126367Y-62635101D01*
X63088674Y-62646535D01*
X63043339Y-62651000D01*
X61956661Y-62651000D01*
X61911326Y-62646535D01*
X61873633Y-62635101D01*
X61838897Y-62616534D01*
X61808452Y-62591548D01*
X61783466Y-62561103D01*
X61764899Y-62526367D01*
X61753465Y-62488674D01*
X61749000Y-62443339D01*
X61749000Y-61606661D01*
X61753465Y-61561326D01*
X61764899Y-61523633D01*
X61783466Y-61488897D01*
X61808452Y-61458452D01*
X61838897Y-61433466D01*
X61873633Y-61414899D01*
X61911326Y-61403465D01*
X61956661Y-61399000D01*
X63043339Y-61399000D01*
X63088674Y-61403465D01*
X63088674Y-61403465D01*
G37*
G36*
X60501000Y-62401000D02*
G01*
X59499000Y-62401000D01*
X59499000Y-61499000D01*
X60501000Y-61499000D01*
X60501000Y-62401000D01*
X60501000Y-62401000D01*
G37*
G36*
X80901000Y-62401000D02*
G01*
X79599000Y-62401000D01*
X79599000Y-61399000D01*
X80901000Y-61399000D01*
X80901000Y-62401000D01*
X80901000Y-62401000D01*
G37*
G36*
X52851000Y-62331000D02*
G01*
X50849000Y-62331000D01*
X50849000Y-61229000D01*
X52851000Y-61229000D01*
X52851000Y-62331000D01*
X52851000Y-62331000D01*
G37*
G36*
X72838674Y-60878465D02*
G01*
X72876367Y-60889899D01*
X72911103Y-60908466D01*
X72941548Y-60933452D01*
X72966534Y-60963897D01*
X72985101Y-60998633D01*
X72996535Y-61036326D01*
X73001000Y-61081661D01*
X73001000Y-61918339D01*
X72996535Y-61963674D01*
X72985101Y-62001367D01*
X72966534Y-62036103D01*
X72941548Y-62066548D01*
X72911103Y-62091534D01*
X72876367Y-62110101D01*
X72838674Y-62121535D01*
X72793339Y-62126000D01*
X71706661Y-62126000D01*
X71661326Y-62121535D01*
X71623633Y-62110101D01*
X71588897Y-62091534D01*
X71558452Y-62066548D01*
X71533466Y-62036103D01*
X71514899Y-62001367D01*
X71503465Y-61963674D01*
X71499000Y-61918339D01*
X71499000Y-61081661D01*
X71503465Y-61036326D01*
X71514899Y-60998633D01*
X71533466Y-60963897D01*
X71558452Y-60933452D01*
X71588897Y-60908466D01*
X71623633Y-60889899D01*
X71661326Y-60878465D01*
X71706661Y-60874000D01*
X72793339Y-60874000D01*
X72838674Y-60878465D01*
X72838674Y-60878465D01*
G37*
G36*
X83354928Y-60001764D02*
G01*
X83376009Y-60008160D01*
X83395445Y-60018548D01*
X83412476Y-60032524D01*
X83426452Y-60049555D01*
X83436840Y-60068991D01*
X83443236Y-60090072D01*
X83446000Y-60118140D01*
X83446000Y-61931860D01*
X83443236Y-61959928D01*
X83436840Y-61981009D01*
X83426452Y-62000445D01*
X83412476Y-62017476D01*
X83395445Y-62031452D01*
X83376009Y-62041840D01*
X83354928Y-62048236D01*
X83326860Y-62051000D01*
X82863140Y-62051000D01*
X82835072Y-62048236D01*
X82813991Y-62041840D01*
X82794555Y-62031452D01*
X82777524Y-62017476D01*
X82763548Y-62000445D01*
X82753160Y-61981009D01*
X82746764Y-61959928D01*
X82744000Y-61931860D01*
X82744000Y-60118140D01*
X82746764Y-60090072D01*
X82753160Y-60068991D01*
X82763548Y-60049555D01*
X82777524Y-60032524D01*
X82794555Y-60018548D01*
X82813991Y-60008160D01*
X82835072Y-60001764D01*
X82863140Y-59999000D01*
X83326860Y-59999000D01*
X83354928Y-60001764D01*
X83354928Y-60001764D01*
G37*
G36*
X87164928Y-60001764D02*
G01*
X87186009Y-60008160D01*
X87205445Y-60018548D01*
X87222476Y-60032524D01*
X87236452Y-60049555D01*
X87246840Y-60068991D01*
X87253236Y-60090072D01*
X87256000Y-60118140D01*
X87256000Y-61931860D01*
X87253236Y-61959928D01*
X87246840Y-61981009D01*
X87236452Y-62000445D01*
X87222476Y-62017476D01*
X87205445Y-62031452D01*
X87186009Y-62041840D01*
X87164928Y-62048236D01*
X87136860Y-62051000D01*
X86673140Y-62051000D01*
X86645072Y-62048236D01*
X86623991Y-62041840D01*
X86604555Y-62031452D01*
X86587524Y-62017476D01*
X86573548Y-62000445D01*
X86563160Y-61981009D01*
X86556764Y-61959928D01*
X86554000Y-61931860D01*
X86554000Y-60118140D01*
X86556764Y-60090072D01*
X86563160Y-60068991D01*
X86573548Y-60049555D01*
X86587524Y-60032524D01*
X86604555Y-60018548D01*
X86623991Y-60008160D01*
X86645072Y-60001764D01*
X86673140Y-59999000D01*
X87136860Y-59999000D01*
X87164928Y-60001764D01*
X87164928Y-60001764D01*
G37*
G36*
X85894928Y-60001764D02*
G01*
X85916009Y-60008160D01*
X85935445Y-60018548D01*
X85952476Y-60032524D01*
X85966452Y-60049555D01*
X85976840Y-60068991D01*
X85983236Y-60090072D01*
X85986000Y-60118140D01*
X85986000Y-61931860D01*
X85983236Y-61959928D01*
X85976840Y-61981009D01*
X85966452Y-62000445D01*
X85952476Y-62017476D01*
X85935445Y-62031452D01*
X85916009Y-62041840D01*
X85894928Y-62048236D01*
X85866860Y-62051000D01*
X85403140Y-62051000D01*
X85375072Y-62048236D01*
X85353991Y-62041840D01*
X85334555Y-62031452D01*
X85317524Y-62017476D01*
X85303548Y-62000445D01*
X85293160Y-61981009D01*
X85286764Y-61959928D01*
X85284000Y-61931860D01*
X85284000Y-60118140D01*
X85286764Y-60090072D01*
X85293160Y-60068991D01*
X85303548Y-60049555D01*
X85317524Y-60032524D01*
X85334555Y-60018548D01*
X85353991Y-60008160D01*
X85375072Y-60001764D01*
X85403140Y-59999000D01*
X85866860Y-59999000D01*
X85894928Y-60001764D01*
X85894928Y-60001764D01*
G37*
G36*
X84624928Y-60001764D02*
G01*
X84646009Y-60008160D01*
X84665445Y-60018548D01*
X84682476Y-60032524D01*
X84696452Y-60049555D01*
X84706840Y-60068991D01*
X84713236Y-60090072D01*
X84716000Y-60118140D01*
X84716000Y-61931860D01*
X84713236Y-61959928D01*
X84706840Y-61981009D01*
X84696452Y-62000445D01*
X84682476Y-62017476D01*
X84665445Y-62031452D01*
X84646009Y-62041840D01*
X84624928Y-62048236D01*
X84596860Y-62051000D01*
X84133140Y-62051000D01*
X84105072Y-62048236D01*
X84083991Y-62041840D01*
X84064555Y-62031452D01*
X84047524Y-62017476D01*
X84033548Y-62000445D01*
X84023160Y-61981009D01*
X84016764Y-61959928D01*
X84014000Y-61931860D01*
X84014000Y-60118140D01*
X84016764Y-60090072D01*
X84023160Y-60068991D01*
X84033548Y-60049555D01*
X84047524Y-60032524D01*
X84064555Y-60018548D01*
X84083991Y-60008160D01*
X84105072Y-60001764D01*
X84133140Y-59999000D01*
X84596860Y-59999000D01*
X84624928Y-60001764D01*
X84624928Y-60001764D01*
G37*
G36*
X97588674Y-60428465D02*
G01*
X97626367Y-60439899D01*
X97661103Y-60458466D01*
X97691548Y-60483452D01*
X97716534Y-60513897D01*
X97735101Y-60548633D01*
X97746535Y-60586326D01*
X97751000Y-60631661D01*
X97751000Y-61468339D01*
X97746535Y-61513674D01*
X97735101Y-61551367D01*
X97716534Y-61586103D01*
X97691548Y-61616548D01*
X97661103Y-61641534D01*
X97626367Y-61660101D01*
X97588674Y-61671535D01*
X97543339Y-61676000D01*
X96456661Y-61676000D01*
X96411326Y-61671535D01*
X96373633Y-61660101D01*
X96338897Y-61641534D01*
X96308452Y-61616548D01*
X96283466Y-61586103D01*
X96264899Y-61551367D01*
X96253465Y-61513674D01*
X96249000Y-61468339D01*
X96249000Y-60631661D01*
X96253465Y-60586326D01*
X96264899Y-60548633D01*
X96283466Y-60513897D01*
X96308452Y-60483452D01*
X96338897Y-60458466D01*
X96373633Y-60439899D01*
X96411326Y-60428465D01*
X96456661Y-60424000D01*
X97543339Y-60424000D01*
X97588674Y-60428465D01*
X97588674Y-60428465D01*
G37*
G36*
X121588674Y-60428465D02*
G01*
X121626367Y-60439899D01*
X121661103Y-60458466D01*
X121691548Y-60483452D01*
X121716534Y-60513897D01*
X121735101Y-60548633D01*
X121746535Y-60586326D01*
X121751000Y-60631661D01*
X121751000Y-61468339D01*
X121746535Y-61513674D01*
X121735101Y-61551367D01*
X121716534Y-61586103D01*
X121691548Y-61616548D01*
X121661103Y-61641534D01*
X121626367Y-61660101D01*
X121588674Y-61671535D01*
X121543339Y-61676000D01*
X120456661Y-61676000D01*
X120411326Y-61671535D01*
X120373633Y-61660101D01*
X120338897Y-61641534D01*
X120308452Y-61616548D01*
X120283466Y-61586103D01*
X120264899Y-61551367D01*
X120253465Y-61513674D01*
X120249000Y-61468339D01*
X120249000Y-60631661D01*
X120253465Y-60586326D01*
X120264899Y-60548633D01*
X120283466Y-60513897D01*
X120308452Y-60483452D01*
X120338897Y-60458466D01*
X120373633Y-60439899D01*
X120411326Y-60428465D01*
X120456661Y-60424000D01*
X121543339Y-60424000D01*
X121588674Y-60428465D01*
X121588674Y-60428465D01*
G37*
G36*
X109588674Y-60403465D02*
G01*
X109626367Y-60414899D01*
X109661103Y-60433466D01*
X109691548Y-60458452D01*
X109716534Y-60488897D01*
X109735101Y-60523633D01*
X109746535Y-60561326D01*
X109751000Y-60606661D01*
X109751000Y-61443339D01*
X109746535Y-61488674D01*
X109735101Y-61526367D01*
X109716534Y-61561103D01*
X109691548Y-61591548D01*
X109661103Y-61616534D01*
X109626367Y-61635101D01*
X109588674Y-61646535D01*
X109543339Y-61651000D01*
X108456661Y-61651000D01*
X108411326Y-61646535D01*
X108373633Y-61635101D01*
X108338897Y-61616534D01*
X108308452Y-61591548D01*
X108283466Y-61561103D01*
X108264899Y-61526367D01*
X108253465Y-61488674D01*
X108249000Y-61443339D01*
X108249000Y-60606661D01*
X108253465Y-60561326D01*
X108264899Y-60523633D01*
X108283466Y-60488897D01*
X108308452Y-60458452D01*
X108338897Y-60433466D01*
X108373633Y-60414899D01*
X108411326Y-60403465D01*
X108456661Y-60399000D01*
X109543339Y-60399000D01*
X109588674Y-60403465D01*
X109588674Y-60403465D01*
G37*
G36*
X78838674Y-60403465D02*
G01*
X78876367Y-60414899D01*
X78911103Y-60433466D01*
X78941548Y-60458452D01*
X78966534Y-60488897D01*
X78985101Y-60523633D01*
X78996535Y-60561326D01*
X79001000Y-60606661D01*
X79001000Y-61443339D01*
X78996535Y-61488674D01*
X78985101Y-61526367D01*
X78966534Y-61561103D01*
X78941548Y-61591548D01*
X78911103Y-61616534D01*
X78876367Y-61635101D01*
X78838674Y-61646535D01*
X78793339Y-61651000D01*
X77706661Y-61651000D01*
X77661326Y-61646535D01*
X77623633Y-61635101D01*
X77588897Y-61616534D01*
X77558452Y-61591548D01*
X77533466Y-61561103D01*
X77514899Y-61526367D01*
X77503465Y-61488674D01*
X77499000Y-61443339D01*
X77499000Y-60606661D01*
X77503465Y-60561326D01*
X77514899Y-60523633D01*
X77533466Y-60488897D01*
X77558452Y-60458452D01*
X77588897Y-60433466D01*
X77623633Y-60414899D01*
X77661326Y-60403465D01*
X77706661Y-60399000D01*
X78793339Y-60399000D01*
X78838674Y-60403465D01*
X78838674Y-60403465D01*
G37*
G36*
X100088674Y-60403465D02*
G01*
X100126367Y-60414899D01*
X100161103Y-60433466D01*
X100191548Y-60458452D01*
X100216534Y-60488897D01*
X100235101Y-60523633D01*
X100246535Y-60561326D01*
X100251000Y-60606661D01*
X100251000Y-61443339D01*
X100246535Y-61488674D01*
X100235101Y-61526367D01*
X100216534Y-61561103D01*
X100191548Y-61591548D01*
X100161103Y-61616534D01*
X100126367Y-61635101D01*
X100088674Y-61646535D01*
X100043339Y-61651000D01*
X98956661Y-61651000D01*
X98911326Y-61646535D01*
X98873633Y-61635101D01*
X98838897Y-61616534D01*
X98808452Y-61591548D01*
X98783466Y-61561103D01*
X98764899Y-61526367D01*
X98753465Y-61488674D01*
X98749000Y-61443339D01*
X98749000Y-60606661D01*
X98753465Y-60561326D01*
X98764899Y-60523633D01*
X98783466Y-60488897D01*
X98808452Y-60458452D01*
X98838897Y-60433466D01*
X98873633Y-60414899D01*
X98911326Y-60403465D01*
X98956661Y-60399000D01*
X100043339Y-60399000D01*
X100088674Y-60403465D01*
X100088674Y-60403465D01*
G37*
G36*
X112088674Y-60403465D02*
G01*
X112126367Y-60414899D01*
X112161103Y-60433466D01*
X112191548Y-60458452D01*
X112216534Y-60488897D01*
X112235101Y-60523633D01*
X112246535Y-60561326D01*
X112251000Y-60606661D01*
X112251000Y-61443339D01*
X112246535Y-61488674D01*
X112235101Y-61526367D01*
X112216534Y-61561103D01*
X112191548Y-61591548D01*
X112161103Y-61616534D01*
X112126367Y-61635101D01*
X112088674Y-61646535D01*
X112043339Y-61651000D01*
X110956661Y-61651000D01*
X110911326Y-61646535D01*
X110873633Y-61635101D01*
X110838897Y-61616534D01*
X110808452Y-61591548D01*
X110783466Y-61561103D01*
X110764899Y-61526367D01*
X110753465Y-61488674D01*
X110749000Y-61443339D01*
X110749000Y-60606661D01*
X110753465Y-60561326D01*
X110764899Y-60523633D01*
X110783466Y-60488897D01*
X110808452Y-60458452D01*
X110838897Y-60433466D01*
X110873633Y-60414899D01*
X110911326Y-60403465D01*
X110956661Y-60399000D01*
X112043339Y-60399000D01*
X112088674Y-60403465D01*
X112088674Y-60403465D01*
G37*
G36*
X124088674Y-60403465D02*
G01*
X124126367Y-60414899D01*
X124161103Y-60433466D01*
X124191548Y-60458452D01*
X124216534Y-60488897D01*
X124235101Y-60523633D01*
X124246535Y-60561326D01*
X124251000Y-60606661D01*
X124251000Y-61443339D01*
X124246535Y-61488674D01*
X124235101Y-61526367D01*
X124216534Y-61561103D01*
X124191548Y-61591548D01*
X124161103Y-61616534D01*
X124126367Y-61635101D01*
X124088674Y-61646535D01*
X124043339Y-61651000D01*
X122956661Y-61651000D01*
X122911326Y-61646535D01*
X122873633Y-61635101D01*
X122838897Y-61616534D01*
X122808452Y-61591548D01*
X122783466Y-61561103D01*
X122764899Y-61526367D01*
X122753465Y-61488674D01*
X122749000Y-61443339D01*
X122749000Y-60606661D01*
X122753465Y-60561326D01*
X122764899Y-60523633D01*
X122783466Y-60488897D01*
X122808452Y-60458452D01*
X122838897Y-60433466D01*
X122873633Y-60414899D01*
X122911326Y-60403465D01*
X122956661Y-60399000D01*
X124043339Y-60399000D01*
X124088674Y-60403465D01*
X124088674Y-60403465D01*
G37*
G36*
X119084468Y-60403565D02*
G01*
X119123138Y-60415296D01*
X119158777Y-60434346D01*
X119190017Y-60459983D01*
X119215654Y-60491223D01*
X119234704Y-60526862D01*
X119246435Y-60565532D01*
X119251000Y-60611888D01*
X119251000Y-61263112D01*
X119246435Y-61309468D01*
X119234704Y-61348138D01*
X119215654Y-61383777D01*
X119190017Y-61415017D01*
X119158777Y-61440654D01*
X119123138Y-61459704D01*
X119084468Y-61471435D01*
X119038112Y-61476000D01*
X117961888Y-61476000D01*
X117915532Y-61471435D01*
X117876862Y-61459704D01*
X117841223Y-61440654D01*
X117809983Y-61415017D01*
X117784346Y-61383777D01*
X117765296Y-61348138D01*
X117753565Y-61309468D01*
X117749000Y-61263112D01*
X117749000Y-60611888D01*
X117753565Y-60565532D01*
X117765296Y-60526862D01*
X117784346Y-60491223D01*
X117809983Y-60459983D01*
X117841223Y-60434346D01*
X117876862Y-60415296D01*
X117915532Y-60403565D01*
X117961888Y-60399000D01*
X119038112Y-60399000D01*
X119084468Y-60403565D01*
X119084468Y-60403565D01*
G37*
G36*
X107084468Y-60403565D02*
G01*
X107123138Y-60415296D01*
X107158777Y-60434346D01*
X107190017Y-60459983D01*
X107215654Y-60491223D01*
X107234704Y-60526862D01*
X107246435Y-60565532D01*
X107251000Y-60611888D01*
X107251000Y-61263112D01*
X107246435Y-61309468D01*
X107234704Y-61348138D01*
X107215654Y-61383777D01*
X107190017Y-61415017D01*
X107158777Y-61440654D01*
X107123138Y-61459704D01*
X107084468Y-61471435D01*
X107038112Y-61476000D01*
X105961888Y-61476000D01*
X105915532Y-61471435D01*
X105876862Y-61459704D01*
X105841223Y-61440654D01*
X105809983Y-61415017D01*
X105784346Y-61383777D01*
X105765296Y-61348138D01*
X105753565Y-61309468D01*
X105749000Y-61263112D01*
X105749000Y-60611888D01*
X105753565Y-60565532D01*
X105765296Y-60526862D01*
X105784346Y-60491223D01*
X105809983Y-60459983D01*
X105841223Y-60434346D01*
X105876862Y-60415296D01*
X105915532Y-60403565D01*
X105961888Y-60399000D01*
X107038112Y-60399000D01*
X107084468Y-60403565D01*
X107084468Y-60403565D01*
G37*
G36*
X58501000Y-61451000D02*
G01*
X57499000Y-61451000D01*
X57499000Y-60549000D01*
X58501000Y-60549000D01*
X58501000Y-61451000D01*
X58501000Y-61451000D01*
G37*
G36*
X95082598Y-60153565D02*
G01*
X95121268Y-60165296D01*
X95156907Y-60184346D01*
X95188147Y-60209983D01*
X95213784Y-60241223D01*
X95232834Y-60276862D01*
X95244565Y-60315532D01*
X95249130Y-60361888D01*
X95249130Y-61013112D01*
X95244565Y-61059468D01*
X95232834Y-61098138D01*
X95213784Y-61133777D01*
X95188147Y-61165017D01*
X95156907Y-61190654D01*
X95121268Y-61209704D01*
X95082598Y-61221435D01*
X95036242Y-61226000D01*
X93960018Y-61226000D01*
X93913662Y-61221435D01*
X93874992Y-61209704D01*
X93839353Y-61190654D01*
X93808113Y-61165017D01*
X93782476Y-61133777D01*
X93763426Y-61098138D01*
X93751695Y-61059468D01*
X93747130Y-61013112D01*
X93747130Y-60361888D01*
X93751695Y-60315532D01*
X93763426Y-60276862D01*
X93782476Y-60241223D01*
X93808113Y-60209983D01*
X93839353Y-60184346D01*
X93874992Y-60165296D01*
X93913662Y-60153565D01*
X93960018Y-60149000D01*
X95036242Y-60149000D01*
X95082598Y-60153565D01*
X95082598Y-60153565D01*
G37*
G36*
X70338674Y-59853465D02*
G01*
X70376367Y-59864899D01*
X70411103Y-59883466D01*
X70441548Y-59908452D01*
X70466534Y-59938897D01*
X70485101Y-59973633D01*
X70496535Y-60011326D01*
X70501000Y-60056661D01*
X70501000Y-60893339D01*
X70496535Y-60938674D01*
X70485101Y-60976367D01*
X70466534Y-61011103D01*
X70441548Y-61041548D01*
X70411103Y-61066534D01*
X70376367Y-61085101D01*
X70338674Y-61096535D01*
X70293339Y-61101000D01*
X69206661Y-61101000D01*
X69161326Y-61096535D01*
X69123633Y-61085101D01*
X69088897Y-61066534D01*
X69058452Y-61041548D01*
X69033466Y-61011103D01*
X69014899Y-60976367D01*
X69003465Y-60938674D01*
X68999000Y-60893339D01*
X68999000Y-60056661D01*
X69003465Y-60011326D01*
X69014899Y-59973633D01*
X69033466Y-59938897D01*
X69058452Y-59908452D01*
X69088897Y-59883466D01*
X69123633Y-59864899D01*
X69161326Y-59853465D01*
X69206661Y-59849000D01*
X70293339Y-59849000D01*
X70338674Y-59853465D01*
X70338674Y-59853465D01*
G37*
G36*
X75701000Y-61001000D02*
G01*
X74799000Y-61001000D01*
X74799000Y-59999000D01*
X75701000Y-59999000D01*
X75701000Y-61001000D01*
X75701000Y-61001000D01*
G37*
G36*
X68181000Y-60926000D02*
G01*
X67019000Y-60926000D01*
X67019000Y-60174000D01*
X68181000Y-60174000D01*
X68181000Y-60926000D01*
X68181000Y-60926000D01*
G37*
G36*
X63088674Y-59353465D02*
G01*
X63126367Y-59364899D01*
X63161103Y-59383466D01*
X63191548Y-59408452D01*
X63216534Y-59438897D01*
X63235101Y-59473633D01*
X63246535Y-59511326D01*
X63251000Y-59556661D01*
X63251000Y-60393339D01*
X63246535Y-60438674D01*
X63235101Y-60476367D01*
X63216534Y-60511103D01*
X63191548Y-60541548D01*
X63161103Y-60566534D01*
X63126367Y-60585101D01*
X63088674Y-60596535D01*
X63043339Y-60601000D01*
X61956661Y-60601000D01*
X61911326Y-60596535D01*
X61873633Y-60585101D01*
X61838897Y-60566534D01*
X61808452Y-60541548D01*
X61783466Y-60511103D01*
X61764899Y-60476367D01*
X61753465Y-60438674D01*
X61749000Y-60393339D01*
X61749000Y-59556661D01*
X61753465Y-59511326D01*
X61764899Y-59473633D01*
X61783466Y-59438897D01*
X61808452Y-59408452D01*
X61838897Y-59383466D01*
X61873633Y-59364899D01*
X61911326Y-59353465D01*
X61956661Y-59349000D01*
X63043339Y-59349000D01*
X63088674Y-59353465D01*
X63088674Y-59353465D01*
G37*
G36*
X60501000Y-60501000D02*
G01*
X59499000Y-60501000D01*
X59499000Y-59599000D01*
X60501000Y-59599000D01*
X60501000Y-60501000D01*
X60501000Y-60501000D01*
G37*
G36*
X72838674Y-58828465D02*
G01*
X72876367Y-58839899D01*
X72911103Y-58858466D01*
X72941548Y-58883452D01*
X72966534Y-58913897D01*
X72985101Y-58948633D01*
X72996535Y-58986326D01*
X73001000Y-59031661D01*
X73001000Y-59868339D01*
X72996535Y-59913674D01*
X72985101Y-59951367D01*
X72966534Y-59986103D01*
X72941548Y-60016548D01*
X72911103Y-60041534D01*
X72876367Y-60060101D01*
X72838674Y-60071535D01*
X72793339Y-60076000D01*
X71706661Y-60076000D01*
X71661326Y-60071535D01*
X71623633Y-60060101D01*
X71588897Y-60041534D01*
X71558452Y-60016548D01*
X71533466Y-59986103D01*
X71514899Y-59951367D01*
X71503465Y-59913674D01*
X71499000Y-59868339D01*
X71499000Y-59031661D01*
X71503465Y-58986326D01*
X71514899Y-58948633D01*
X71533466Y-58913897D01*
X71558452Y-58883452D01*
X71588897Y-58858466D01*
X71623633Y-58839899D01*
X71661326Y-58828465D01*
X71706661Y-58824000D01*
X72793339Y-58824000D01*
X72838674Y-58828465D01*
X72838674Y-58828465D01*
G37*
G36*
X56151000Y-59791000D02*
G01*
X54149000Y-59791000D01*
X54149000Y-58689000D01*
X56151000Y-58689000D01*
X56151000Y-59791000D01*
X56151000Y-59791000D01*
G37*
G36*
X121588674Y-58378465D02*
G01*
X121626367Y-58389899D01*
X121661103Y-58408466D01*
X121691548Y-58433452D01*
X121716534Y-58463897D01*
X121735101Y-58498633D01*
X121746535Y-58536326D01*
X121751000Y-58581661D01*
X121751000Y-59418339D01*
X121746535Y-59463674D01*
X121735101Y-59501367D01*
X121716534Y-59536103D01*
X121691548Y-59566548D01*
X121661103Y-59591534D01*
X121626367Y-59610101D01*
X121588674Y-59621535D01*
X121543339Y-59626000D01*
X120456661Y-59626000D01*
X120411326Y-59621535D01*
X120373633Y-59610101D01*
X120338897Y-59591534D01*
X120308452Y-59566548D01*
X120283466Y-59536103D01*
X120264899Y-59501367D01*
X120253465Y-59463674D01*
X120249000Y-59418339D01*
X120249000Y-58581661D01*
X120253465Y-58536326D01*
X120264899Y-58498633D01*
X120283466Y-58463897D01*
X120308452Y-58433452D01*
X120338897Y-58408466D01*
X120373633Y-58389899D01*
X120411326Y-58378465D01*
X120456661Y-58374000D01*
X121543339Y-58374000D01*
X121588674Y-58378465D01*
X121588674Y-58378465D01*
G37*
G36*
X97588674Y-58378465D02*
G01*
X97626367Y-58389899D01*
X97661103Y-58408466D01*
X97691548Y-58433452D01*
X97716534Y-58463897D01*
X97735101Y-58498633D01*
X97746535Y-58536326D01*
X97751000Y-58581661D01*
X97751000Y-59418339D01*
X97746535Y-59463674D01*
X97735101Y-59501367D01*
X97716534Y-59536103D01*
X97691548Y-59566548D01*
X97661103Y-59591534D01*
X97626367Y-59610101D01*
X97588674Y-59621535D01*
X97543339Y-59626000D01*
X96456661Y-59626000D01*
X96411326Y-59621535D01*
X96373633Y-59610101D01*
X96338897Y-59591534D01*
X96308452Y-59566548D01*
X96283466Y-59536103D01*
X96264899Y-59501367D01*
X96253465Y-59463674D01*
X96249000Y-59418339D01*
X96249000Y-58581661D01*
X96253465Y-58536326D01*
X96264899Y-58498633D01*
X96283466Y-58463897D01*
X96308452Y-58433452D01*
X96338897Y-58408466D01*
X96373633Y-58389899D01*
X96411326Y-58378465D01*
X96456661Y-58374000D01*
X97543339Y-58374000D01*
X97588674Y-58378465D01*
X97588674Y-58378465D01*
G37*
G36*
X124088674Y-58353465D02*
G01*
X124126367Y-58364899D01*
X124161103Y-58383466D01*
X124191548Y-58408452D01*
X124216534Y-58438897D01*
X124235101Y-58473633D01*
X124246535Y-58511326D01*
X124251000Y-58556661D01*
X124251000Y-59393339D01*
X124246535Y-59438674D01*
X124235101Y-59476367D01*
X124216534Y-59511103D01*
X124191548Y-59541548D01*
X124161103Y-59566534D01*
X124126367Y-59585101D01*
X124088674Y-59596535D01*
X124043339Y-59601000D01*
X122956661Y-59601000D01*
X122911326Y-59596535D01*
X122873633Y-59585101D01*
X122838897Y-59566534D01*
X122808452Y-59541548D01*
X122783466Y-59511103D01*
X122764899Y-59476367D01*
X122753465Y-59438674D01*
X122749000Y-59393339D01*
X122749000Y-58556661D01*
X122753465Y-58511326D01*
X122764899Y-58473633D01*
X122783466Y-58438897D01*
X122808452Y-58408452D01*
X122838897Y-58383466D01*
X122873633Y-58364899D01*
X122911326Y-58353465D01*
X122956661Y-58349000D01*
X124043339Y-58349000D01*
X124088674Y-58353465D01*
X124088674Y-58353465D01*
G37*
G36*
X78838674Y-58353465D02*
G01*
X78876367Y-58364899D01*
X78911103Y-58383466D01*
X78941548Y-58408452D01*
X78966534Y-58438897D01*
X78985101Y-58473633D01*
X78996535Y-58511326D01*
X79001000Y-58556661D01*
X79001000Y-59393339D01*
X78996535Y-59438674D01*
X78985101Y-59476367D01*
X78966534Y-59511103D01*
X78941548Y-59541548D01*
X78911103Y-59566534D01*
X78876367Y-59585101D01*
X78838674Y-59596535D01*
X78793339Y-59601000D01*
X77706661Y-59601000D01*
X77661326Y-59596535D01*
X77623633Y-59585101D01*
X77588897Y-59566534D01*
X77558452Y-59541548D01*
X77533466Y-59511103D01*
X77514899Y-59476367D01*
X77503465Y-59438674D01*
X77499000Y-59393339D01*
X77499000Y-58556661D01*
X77503465Y-58511326D01*
X77514899Y-58473633D01*
X77533466Y-58438897D01*
X77558452Y-58408452D01*
X77588897Y-58383466D01*
X77623633Y-58364899D01*
X77661326Y-58353465D01*
X77706661Y-58349000D01*
X78793339Y-58349000D01*
X78838674Y-58353465D01*
X78838674Y-58353465D01*
G37*
G36*
X100088674Y-58353465D02*
G01*
X100126367Y-58364899D01*
X100161103Y-58383466D01*
X100191548Y-58408452D01*
X100216534Y-58438897D01*
X100235101Y-58473633D01*
X100246535Y-58511326D01*
X100251000Y-58556661D01*
X100251000Y-59393339D01*
X100246535Y-59438674D01*
X100235101Y-59476367D01*
X100216534Y-59511103D01*
X100191548Y-59541548D01*
X100161103Y-59566534D01*
X100126367Y-59585101D01*
X100088674Y-59596535D01*
X100043339Y-59601000D01*
X98956661Y-59601000D01*
X98911326Y-59596535D01*
X98873633Y-59585101D01*
X98838897Y-59566534D01*
X98808452Y-59541548D01*
X98783466Y-59511103D01*
X98764899Y-59476367D01*
X98753465Y-59438674D01*
X98749000Y-59393339D01*
X98749000Y-58556661D01*
X98753465Y-58511326D01*
X98764899Y-58473633D01*
X98783466Y-58438897D01*
X98808452Y-58408452D01*
X98838897Y-58383466D01*
X98873633Y-58364899D01*
X98911326Y-58353465D01*
X98956661Y-58349000D01*
X100043339Y-58349000D01*
X100088674Y-58353465D01*
X100088674Y-58353465D01*
G37*
G36*
X112088674Y-58353465D02*
G01*
X112126367Y-58364899D01*
X112161103Y-58383466D01*
X112191548Y-58408452D01*
X112216534Y-58438897D01*
X112235101Y-58473633D01*
X112246535Y-58511326D01*
X112251000Y-58556661D01*
X112251000Y-59393339D01*
X112246535Y-59438674D01*
X112235101Y-59476367D01*
X112216534Y-59511103D01*
X112191548Y-59541548D01*
X112161103Y-59566534D01*
X112126367Y-59585101D01*
X112088674Y-59596535D01*
X112043339Y-59601000D01*
X110956661Y-59601000D01*
X110911326Y-59596535D01*
X110873633Y-59585101D01*
X110838897Y-59566534D01*
X110808452Y-59541548D01*
X110783466Y-59511103D01*
X110764899Y-59476367D01*
X110753465Y-59438674D01*
X110749000Y-59393339D01*
X110749000Y-58556661D01*
X110753465Y-58511326D01*
X110764899Y-58473633D01*
X110783466Y-58438897D01*
X110808452Y-58408452D01*
X110838897Y-58383466D01*
X110873633Y-58364899D01*
X110911326Y-58353465D01*
X110956661Y-58349000D01*
X112043339Y-58349000D01*
X112088674Y-58353465D01*
X112088674Y-58353465D01*
G37*
G36*
X107084468Y-58528565D02*
G01*
X107123138Y-58540296D01*
X107158777Y-58559346D01*
X107190017Y-58584983D01*
X107215654Y-58616223D01*
X107234704Y-58651862D01*
X107246435Y-58690532D01*
X107251000Y-58736888D01*
X107251000Y-59388112D01*
X107246435Y-59434468D01*
X107234704Y-59473138D01*
X107215654Y-59508777D01*
X107190017Y-59540017D01*
X107158777Y-59565654D01*
X107123138Y-59584704D01*
X107084468Y-59596435D01*
X107038112Y-59601000D01*
X105961888Y-59601000D01*
X105915532Y-59596435D01*
X105876862Y-59584704D01*
X105841223Y-59565654D01*
X105809983Y-59540017D01*
X105784346Y-59508777D01*
X105765296Y-59473138D01*
X105753565Y-59434468D01*
X105749000Y-59388112D01*
X105749000Y-58736888D01*
X105753565Y-58690532D01*
X105765296Y-58651862D01*
X105784346Y-58616223D01*
X105809983Y-58584983D01*
X105841223Y-58559346D01*
X105876862Y-58540296D01*
X105915532Y-58528565D01*
X105961888Y-58524000D01*
X107038112Y-58524000D01*
X107084468Y-58528565D01*
X107084468Y-58528565D01*
G37*
G36*
X119084468Y-58528565D02*
G01*
X119123138Y-58540296D01*
X119158777Y-58559346D01*
X119190017Y-58584983D01*
X119215654Y-58616223D01*
X119234704Y-58651862D01*
X119246435Y-58690532D01*
X119251000Y-58736888D01*
X119251000Y-59388112D01*
X119246435Y-59434468D01*
X119234704Y-59473138D01*
X119215654Y-59508777D01*
X119190017Y-59540017D01*
X119158777Y-59565654D01*
X119123138Y-59584704D01*
X119084468Y-59596435D01*
X119038112Y-59601000D01*
X117961888Y-59601000D01*
X117915532Y-59596435D01*
X117876862Y-59584704D01*
X117841223Y-59565654D01*
X117809983Y-59540017D01*
X117784346Y-59508777D01*
X117765296Y-59473138D01*
X117753565Y-59434468D01*
X117749000Y-59388112D01*
X117749000Y-58736888D01*
X117753565Y-58690532D01*
X117765296Y-58651862D01*
X117784346Y-58616223D01*
X117809983Y-58584983D01*
X117841223Y-58559346D01*
X117876862Y-58540296D01*
X117915532Y-58528565D01*
X117961888Y-58524000D01*
X119038112Y-58524000D01*
X119084468Y-58528565D01*
X119084468Y-58528565D01*
G37*
G36*
X109588674Y-58353465D02*
G01*
X109626367Y-58364899D01*
X109661103Y-58383466D01*
X109691548Y-58408452D01*
X109716534Y-58438897D01*
X109735101Y-58473633D01*
X109746535Y-58511326D01*
X109751000Y-58556661D01*
X109751000Y-59393339D01*
X109746535Y-59438674D01*
X109735101Y-59476367D01*
X109716534Y-59511103D01*
X109691548Y-59541548D01*
X109661103Y-59566534D01*
X109626367Y-59585101D01*
X109588674Y-59596535D01*
X109543339Y-59601000D01*
X108456661Y-59601000D01*
X108411326Y-59596535D01*
X108373633Y-59585101D01*
X108338897Y-59566534D01*
X108308452Y-59541548D01*
X108283466Y-59511103D01*
X108264899Y-59476367D01*
X108253465Y-59438674D01*
X108249000Y-59393339D01*
X108249000Y-58556661D01*
X108253465Y-58511326D01*
X108264899Y-58473633D01*
X108283466Y-58438897D01*
X108308452Y-58408452D01*
X108338897Y-58383466D01*
X108373633Y-58364899D01*
X108411326Y-58353465D01*
X108456661Y-58349000D01*
X109543339Y-58349000D01*
X109588674Y-58353465D01*
X109588674Y-58353465D01*
G37*
G36*
X95082598Y-58278565D02*
G01*
X95121268Y-58290296D01*
X95156907Y-58309346D01*
X95188147Y-58334983D01*
X95213784Y-58366223D01*
X95232834Y-58401862D01*
X95244565Y-58440532D01*
X95249130Y-58486888D01*
X95249130Y-59138112D01*
X95244565Y-59184468D01*
X95232834Y-59223138D01*
X95213784Y-59258777D01*
X95188147Y-59290017D01*
X95156907Y-59315654D01*
X95121268Y-59334704D01*
X95082598Y-59346435D01*
X95036242Y-59351000D01*
X93960018Y-59351000D01*
X93913662Y-59346435D01*
X93874992Y-59334704D01*
X93839353Y-59315654D01*
X93808113Y-59290017D01*
X93782476Y-59258777D01*
X93763426Y-59223138D01*
X93751695Y-59184468D01*
X93747130Y-59138112D01*
X93747130Y-58486888D01*
X93751695Y-58440532D01*
X93763426Y-58401862D01*
X93782476Y-58366223D01*
X93808113Y-58334983D01*
X93839353Y-58309346D01*
X93874992Y-58290296D01*
X93913662Y-58278565D01*
X93960018Y-58274000D01*
X95036242Y-58274000D01*
X95082598Y-58278565D01*
X95082598Y-58278565D01*
G37*
G36*
X80901000Y-59101000D02*
G01*
X79599000Y-59101000D01*
X79599000Y-58099000D01*
X80901000Y-58099000D01*
X80901000Y-59101000D01*
X80901000Y-59101000D01*
G37*
G36*
X52851000Y-57251000D02*
G01*
X50849000Y-57251000D01*
X50849000Y-56149000D01*
X52851000Y-56149000D01*
X52851000Y-57251000D01*
X52851000Y-57251000D01*
G37*
G36*
X58176627Y-54962037D02*
G01*
X58346466Y-55013557D01*
X58502991Y-55097222D01*
X58526359Y-55116400D01*
X58640186Y-55209814D01*
X58723448Y-55311271D01*
X58752778Y-55347009D01*
X58836443Y-55503534D01*
X58887963Y-55673374D01*
X58901000Y-55805743D01*
X58901000Y-56194258D01*
X58887963Y-56326627D01*
X58836443Y-56496466D01*
X58752778Y-56652991D01*
X58723448Y-56688729D01*
X58640186Y-56790186D01*
X58502989Y-56902779D01*
X58370120Y-56973799D01*
X58346465Y-56986443D01*
X58176626Y-57037963D01*
X58000000Y-57055359D01*
X57823373Y-57037963D01*
X57653534Y-56986443D01*
X57497009Y-56902778D01*
X57447822Y-56862411D01*
X57359814Y-56790186D01*
X57247221Y-56652989D01*
X57163558Y-56496467D01*
X57163557Y-56496465D01*
X57112037Y-56326626D01*
X57099000Y-56194257D01*
X57099000Y-55805742D01*
X57112037Y-55673373D01*
X57163557Y-55503534D01*
X57247222Y-55347009D01*
X57359815Y-55209815D01*
X57497010Y-55097222D01*
X57653535Y-55013557D01*
X57823374Y-54962037D01*
X58000000Y-54944641D01*
X58176627Y-54962037D01*
X58176627Y-54962037D01*
G37*
G36*
X61258600Y-54952989D02*
G01*
X61291652Y-54963015D01*
X61322103Y-54979292D01*
X61348799Y-55001201D01*
X61370708Y-55027897D01*
X61386985Y-55058348D01*
X61397011Y-55091400D01*
X61401000Y-55131903D01*
X61401000Y-56868097D01*
X61397011Y-56908600D01*
X61386985Y-56941652D01*
X61370708Y-56972103D01*
X61348799Y-56998799D01*
X61322103Y-57020708D01*
X61291652Y-57036985D01*
X61258600Y-57047011D01*
X61218097Y-57051000D01*
X59781903Y-57051000D01*
X59741400Y-57047011D01*
X59708348Y-57036985D01*
X59677897Y-57020708D01*
X59651201Y-56998799D01*
X59629292Y-56972103D01*
X59613015Y-56941652D01*
X59602989Y-56908600D01*
X59599000Y-56868097D01*
X59599000Y-55131903D01*
X59602989Y-55091400D01*
X59613015Y-55058348D01*
X59629292Y-55027897D01*
X59651201Y-55001201D01*
X59677897Y-54979292D01*
X59708348Y-54963015D01*
X59741400Y-54952989D01*
X59781903Y-54949000D01*
X61218097Y-54949000D01*
X61258600Y-54952989D01*
X61258600Y-54952989D01*
G37*
G36*
X72676627Y-54987037D02*
G01*
X72846466Y-55038557D01*
X73002991Y-55122222D01*
X73038729Y-55151552D01*
X73140186Y-55234814D01*
X73223448Y-55336271D01*
X73252778Y-55372009D01*
X73336443Y-55528534D01*
X73387963Y-55698374D01*
X73387963Y-55698376D01*
X73398538Y-55805740D01*
X73401000Y-55830743D01*
X73401000Y-56169258D01*
X73387963Y-56301627D01*
X73336443Y-56471466D01*
X73252778Y-56627991D01*
X73232262Y-56652990D01*
X73140186Y-56765186D01*
X73002989Y-56877779D01*
X72846467Y-56961442D01*
X72846465Y-56961443D01*
X72676626Y-57012963D01*
X72500000Y-57030359D01*
X72323373Y-57012963D01*
X72153534Y-56961443D01*
X71997009Y-56877778D01*
X71948173Y-56837699D01*
X71859814Y-56765186D01*
X71747221Y-56627989D01*
X71663558Y-56471467D01*
X71663557Y-56471465D01*
X71612037Y-56301626D01*
X71605519Y-56235442D01*
X71599000Y-56169259D01*
X71599000Y-55830740D01*
X71612037Y-55698375D01*
X71612037Y-55698373D01*
X71663557Y-55528534D01*
X71747222Y-55372009D01*
X71859815Y-55234815D01*
X71997010Y-55122222D01*
X72153535Y-55038557D01*
X72323374Y-54987037D01*
X72500000Y-54969641D01*
X72676627Y-54987037D01*
X72676627Y-54987037D01*
G37*
G36*
X118676627Y-54987037D02*
G01*
X118846466Y-55038557D01*
X119002991Y-55122222D01*
X119038729Y-55151552D01*
X119140186Y-55234814D01*
X119223448Y-55336271D01*
X119252778Y-55372009D01*
X119336443Y-55528534D01*
X119387963Y-55698374D01*
X119387963Y-55698376D01*
X119398538Y-55805740D01*
X119401000Y-55830743D01*
X119401000Y-56169258D01*
X119387963Y-56301627D01*
X119336443Y-56471466D01*
X119252778Y-56627991D01*
X119232262Y-56652990D01*
X119140186Y-56765186D01*
X119002989Y-56877779D01*
X118846467Y-56961442D01*
X118846465Y-56961443D01*
X118676626Y-57012963D01*
X118500000Y-57030359D01*
X118323373Y-57012963D01*
X118153534Y-56961443D01*
X117997009Y-56877778D01*
X117948173Y-56837699D01*
X117859814Y-56765186D01*
X117747221Y-56627989D01*
X117663558Y-56471467D01*
X117663557Y-56471465D01*
X117612037Y-56301626D01*
X117605519Y-56235442D01*
X117599000Y-56169259D01*
X117599000Y-55830740D01*
X117612037Y-55698375D01*
X117612037Y-55698373D01*
X117663557Y-55528534D01*
X117747222Y-55372009D01*
X117859815Y-55234815D01*
X117997010Y-55122222D01*
X118153535Y-55038557D01*
X118323374Y-54987037D01*
X118500000Y-54969641D01*
X118676627Y-54987037D01*
X118676627Y-54987037D01*
G37*
G36*
X116176627Y-54987037D02*
G01*
X116346466Y-55038557D01*
X116502991Y-55122222D01*
X116538729Y-55151552D01*
X116640186Y-55234814D01*
X116723448Y-55336271D01*
X116752778Y-55372009D01*
X116836443Y-55528534D01*
X116887963Y-55698374D01*
X116887963Y-55698376D01*
X116898538Y-55805740D01*
X116901000Y-55830743D01*
X116901000Y-56169258D01*
X116887963Y-56301627D01*
X116836443Y-56471466D01*
X116752778Y-56627991D01*
X116732262Y-56652990D01*
X116640186Y-56765186D01*
X116502989Y-56877779D01*
X116346467Y-56961442D01*
X116346465Y-56961443D01*
X116176626Y-57012963D01*
X116000000Y-57030359D01*
X115823373Y-57012963D01*
X115653534Y-56961443D01*
X115497009Y-56877778D01*
X115448173Y-56837699D01*
X115359814Y-56765186D01*
X115247221Y-56627989D01*
X115163558Y-56471467D01*
X115163557Y-56471465D01*
X115112037Y-56301626D01*
X115105519Y-56235442D01*
X115099000Y-56169259D01*
X115099000Y-55830740D01*
X115112037Y-55698375D01*
X115112037Y-55698373D01*
X115163557Y-55528534D01*
X115247222Y-55372009D01*
X115359815Y-55234815D01*
X115497010Y-55122222D01*
X115653535Y-55038557D01*
X115823374Y-54987037D01*
X116000000Y-54969641D01*
X116176627Y-54987037D01*
X116176627Y-54987037D01*
G37*
G36*
X106676627Y-54987037D02*
G01*
X106846466Y-55038557D01*
X107002991Y-55122222D01*
X107038729Y-55151552D01*
X107140186Y-55234814D01*
X107223448Y-55336271D01*
X107252778Y-55372009D01*
X107336443Y-55528534D01*
X107387963Y-55698374D01*
X107387963Y-55698376D01*
X107398538Y-55805740D01*
X107401000Y-55830743D01*
X107401000Y-56169258D01*
X107387963Y-56301627D01*
X107336443Y-56471466D01*
X107252778Y-56627991D01*
X107232262Y-56652990D01*
X107140186Y-56765186D01*
X107002989Y-56877779D01*
X106846467Y-56961442D01*
X106846465Y-56961443D01*
X106676626Y-57012963D01*
X106500000Y-57030359D01*
X106323373Y-57012963D01*
X106153534Y-56961443D01*
X105997009Y-56877778D01*
X105948173Y-56837699D01*
X105859814Y-56765186D01*
X105747221Y-56627989D01*
X105663558Y-56471467D01*
X105663557Y-56471465D01*
X105612037Y-56301626D01*
X105605519Y-56235442D01*
X105599000Y-56169259D01*
X105599000Y-55830740D01*
X105612037Y-55698375D01*
X105612037Y-55698373D01*
X105663557Y-55528534D01*
X105747222Y-55372009D01*
X105859815Y-55234815D01*
X105997010Y-55122222D01*
X106153535Y-55038557D01*
X106323374Y-54987037D01*
X106500000Y-54969641D01*
X106676627Y-54987037D01*
X106676627Y-54987037D01*
G37*
G36*
X94676627Y-54987037D02*
G01*
X94846466Y-55038557D01*
X95002991Y-55122222D01*
X95038729Y-55151552D01*
X95140186Y-55234814D01*
X95223448Y-55336271D01*
X95252778Y-55372009D01*
X95336443Y-55528534D01*
X95387963Y-55698374D01*
X95387963Y-55698376D01*
X95398538Y-55805740D01*
X95401000Y-55830743D01*
X95401000Y-56169258D01*
X95387963Y-56301627D01*
X95336443Y-56471466D01*
X95252778Y-56627991D01*
X95232262Y-56652990D01*
X95140186Y-56765186D01*
X95002989Y-56877779D01*
X94846467Y-56961442D01*
X94846465Y-56961443D01*
X94676626Y-57012963D01*
X94500000Y-57030359D01*
X94323373Y-57012963D01*
X94153534Y-56961443D01*
X93997009Y-56877778D01*
X93948173Y-56837699D01*
X93859814Y-56765186D01*
X93747221Y-56627989D01*
X93663558Y-56471467D01*
X93663557Y-56471465D01*
X93612037Y-56301626D01*
X93605519Y-56235442D01*
X93599000Y-56169259D01*
X93599000Y-55830740D01*
X93612037Y-55698375D01*
X93612037Y-55698373D01*
X93663557Y-55528534D01*
X93747222Y-55372009D01*
X93859815Y-55234815D01*
X93997010Y-55122222D01*
X94153535Y-55038557D01*
X94323374Y-54987037D01*
X94500000Y-54969641D01*
X94676627Y-54987037D01*
X94676627Y-54987037D01*
G37*
G36*
X82676627Y-54987037D02*
G01*
X82846466Y-55038557D01*
X83002991Y-55122222D01*
X83038729Y-55151552D01*
X83140186Y-55234814D01*
X83223448Y-55336271D01*
X83252778Y-55372009D01*
X83336443Y-55528534D01*
X83387963Y-55698374D01*
X83387963Y-55698376D01*
X83398538Y-55805740D01*
X83401000Y-55830743D01*
X83401000Y-56169258D01*
X83387963Y-56301627D01*
X83336443Y-56471466D01*
X83252778Y-56627991D01*
X83232262Y-56652990D01*
X83140186Y-56765186D01*
X83002989Y-56877779D01*
X82846467Y-56961442D01*
X82846465Y-56961443D01*
X82676626Y-57012963D01*
X82500000Y-57030359D01*
X82323373Y-57012963D01*
X82153534Y-56961443D01*
X81997009Y-56877778D01*
X81948173Y-56837699D01*
X81859814Y-56765186D01*
X81747221Y-56627989D01*
X81663558Y-56471467D01*
X81663557Y-56471465D01*
X81612037Y-56301626D01*
X81605519Y-56235442D01*
X81599000Y-56169259D01*
X81599000Y-55830740D01*
X81612037Y-55698375D01*
X81612037Y-55698373D01*
X81663557Y-55528534D01*
X81747222Y-55372009D01*
X81859815Y-55234815D01*
X81997010Y-55122222D01*
X82153535Y-55038557D01*
X82323374Y-54987037D01*
X82500000Y-54969641D01*
X82676627Y-54987037D01*
X82676627Y-54987037D01*
G37*
G36*
X104176627Y-54987037D02*
G01*
X104346466Y-55038557D01*
X104502991Y-55122222D01*
X104538729Y-55151552D01*
X104640186Y-55234814D01*
X104723448Y-55336271D01*
X104752778Y-55372009D01*
X104836443Y-55528534D01*
X104887963Y-55698374D01*
X104887963Y-55698376D01*
X104898538Y-55805740D01*
X104901000Y-55830743D01*
X104901000Y-56169258D01*
X104887963Y-56301627D01*
X104836443Y-56471466D01*
X104752778Y-56627991D01*
X104732262Y-56652990D01*
X104640186Y-56765186D01*
X104502989Y-56877779D01*
X104346467Y-56961442D01*
X104346465Y-56961443D01*
X104176626Y-57012963D01*
X104000000Y-57030359D01*
X103823373Y-57012963D01*
X103653534Y-56961443D01*
X103497009Y-56877778D01*
X103448173Y-56837699D01*
X103359814Y-56765186D01*
X103247221Y-56627989D01*
X103163558Y-56471467D01*
X103163557Y-56471465D01*
X103112037Y-56301626D01*
X103105519Y-56235442D01*
X103099000Y-56169259D01*
X103099000Y-55830740D01*
X103112037Y-55698375D01*
X103112037Y-55698373D01*
X103163557Y-55528534D01*
X103247222Y-55372009D01*
X103359815Y-55234815D01*
X103497010Y-55122222D01*
X103653535Y-55038557D01*
X103823374Y-54987037D01*
X104000000Y-54969641D01*
X104176627Y-54987037D01*
X104176627Y-54987037D01*
G37*
G36*
X77676627Y-54987037D02*
G01*
X77846466Y-55038557D01*
X78002991Y-55122222D01*
X78038729Y-55151552D01*
X78140186Y-55234814D01*
X78223448Y-55336271D01*
X78252778Y-55372009D01*
X78336443Y-55528534D01*
X78387963Y-55698374D01*
X78387963Y-55698376D01*
X78398538Y-55805740D01*
X78401000Y-55830743D01*
X78401000Y-56169258D01*
X78387963Y-56301627D01*
X78336443Y-56471466D01*
X78252778Y-56627991D01*
X78232262Y-56652990D01*
X78140186Y-56765186D01*
X78002989Y-56877779D01*
X77846467Y-56961442D01*
X77846465Y-56961443D01*
X77676626Y-57012963D01*
X77500000Y-57030359D01*
X77323373Y-57012963D01*
X77153534Y-56961443D01*
X76997009Y-56877778D01*
X76948173Y-56837699D01*
X76859814Y-56765186D01*
X76747221Y-56627989D01*
X76663558Y-56471467D01*
X76663557Y-56471465D01*
X76612037Y-56301626D01*
X76605519Y-56235442D01*
X76599000Y-56169259D01*
X76599000Y-55830740D01*
X76612037Y-55698375D01*
X76612037Y-55698373D01*
X76663557Y-55528534D01*
X76747222Y-55372009D01*
X76859815Y-55234815D01*
X76997010Y-55122222D01*
X77153535Y-55038557D01*
X77323374Y-54987037D01*
X77500000Y-54969641D01*
X77676627Y-54987037D01*
X77676627Y-54987037D01*
G37*
G36*
X75176627Y-54987037D02*
G01*
X75346466Y-55038557D01*
X75502991Y-55122222D01*
X75538729Y-55151552D01*
X75640186Y-55234814D01*
X75723448Y-55336271D01*
X75752778Y-55372009D01*
X75836443Y-55528534D01*
X75887963Y-55698374D01*
X75887963Y-55698376D01*
X75898538Y-55805740D01*
X75901000Y-55830743D01*
X75901000Y-56169258D01*
X75887963Y-56301627D01*
X75836443Y-56471466D01*
X75752778Y-56627991D01*
X75732262Y-56652990D01*
X75640186Y-56765186D01*
X75502989Y-56877779D01*
X75346467Y-56961442D01*
X75346465Y-56961443D01*
X75176626Y-57012963D01*
X75000000Y-57030359D01*
X74823373Y-57012963D01*
X74653534Y-56961443D01*
X74497009Y-56877778D01*
X74448173Y-56837699D01*
X74359814Y-56765186D01*
X74247221Y-56627989D01*
X74163558Y-56471467D01*
X74163557Y-56471465D01*
X74112037Y-56301626D01*
X74105519Y-56235442D01*
X74099000Y-56169259D01*
X74099000Y-55830740D01*
X74112037Y-55698375D01*
X74112037Y-55698373D01*
X74163557Y-55528534D01*
X74247222Y-55372009D01*
X74359815Y-55234815D01*
X74497010Y-55122222D01*
X74653535Y-55038557D01*
X74823374Y-54987037D01*
X75000000Y-54969641D01*
X75176627Y-54987037D01*
X75176627Y-54987037D01*
G37*
G36*
X92176627Y-54987037D02*
G01*
X92346466Y-55038557D01*
X92502991Y-55122222D01*
X92538729Y-55151552D01*
X92640186Y-55234814D01*
X92723448Y-55336271D01*
X92752778Y-55372009D01*
X92836443Y-55528534D01*
X92887963Y-55698374D01*
X92887963Y-55698376D01*
X92898538Y-55805740D01*
X92901000Y-55830743D01*
X92901000Y-56169258D01*
X92887963Y-56301627D01*
X92836443Y-56471466D01*
X92752778Y-56627991D01*
X92732262Y-56652990D01*
X92640186Y-56765186D01*
X92502989Y-56877779D01*
X92346467Y-56961442D01*
X92346465Y-56961443D01*
X92176626Y-57012963D01*
X92000000Y-57030359D01*
X91823373Y-57012963D01*
X91653534Y-56961443D01*
X91497009Y-56877778D01*
X91448173Y-56837699D01*
X91359814Y-56765186D01*
X91247221Y-56627989D01*
X91163558Y-56471467D01*
X91163557Y-56471465D01*
X91112037Y-56301626D01*
X91105519Y-56235442D01*
X91099000Y-56169259D01*
X91099000Y-55830740D01*
X91112037Y-55698375D01*
X91112037Y-55698373D01*
X91163557Y-55528534D01*
X91247222Y-55372009D01*
X91359815Y-55234815D01*
X91497010Y-55122222D01*
X91653535Y-55038557D01*
X91823374Y-54987037D01*
X92000000Y-54969641D01*
X92176627Y-54987037D01*
X92176627Y-54987037D01*
G37*
G36*
X70176627Y-54987037D02*
G01*
X70346466Y-55038557D01*
X70502991Y-55122222D01*
X70538729Y-55151552D01*
X70640186Y-55234814D01*
X70723448Y-55336271D01*
X70752778Y-55372009D01*
X70836443Y-55528534D01*
X70887963Y-55698374D01*
X70887963Y-55698376D01*
X70898538Y-55805740D01*
X70901000Y-55830743D01*
X70901000Y-56169258D01*
X70887963Y-56301627D01*
X70836443Y-56471466D01*
X70752778Y-56627991D01*
X70732262Y-56652990D01*
X70640186Y-56765186D01*
X70502989Y-56877779D01*
X70346467Y-56961442D01*
X70346465Y-56961443D01*
X70176626Y-57012963D01*
X70000000Y-57030359D01*
X69823373Y-57012963D01*
X69653534Y-56961443D01*
X69497009Y-56877778D01*
X69448173Y-56837699D01*
X69359814Y-56765186D01*
X69247221Y-56627989D01*
X69163558Y-56471467D01*
X69163557Y-56471465D01*
X69112037Y-56301626D01*
X69105519Y-56235442D01*
X69099000Y-56169259D01*
X69099000Y-55830740D01*
X69112037Y-55698375D01*
X69112037Y-55698373D01*
X69163557Y-55528534D01*
X69247222Y-55372009D01*
X69359815Y-55234815D01*
X69497010Y-55122222D01*
X69653535Y-55038557D01*
X69823374Y-54987037D01*
X70000000Y-54969641D01*
X70176627Y-54987037D01*
X70176627Y-54987037D01*
G37*
G36*
X67676627Y-54987037D02*
G01*
X67846466Y-55038557D01*
X68002991Y-55122222D01*
X68038729Y-55151552D01*
X68140186Y-55234814D01*
X68223448Y-55336271D01*
X68252778Y-55372009D01*
X68336443Y-55528534D01*
X68387963Y-55698374D01*
X68387963Y-55698376D01*
X68398538Y-55805740D01*
X68401000Y-55830743D01*
X68401000Y-56169258D01*
X68387963Y-56301627D01*
X68336443Y-56471466D01*
X68252778Y-56627991D01*
X68232262Y-56652990D01*
X68140186Y-56765186D01*
X68002989Y-56877779D01*
X67846467Y-56961442D01*
X67846465Y-56961443D01*
X67676626Y-57012963D01*
X67500000Y-57030359D01*
X67323373Y-57012963D01*
X67153534Y-56961443D01*
X66997009Y-56877778D01*
X66948173Y-56837699D01*
X66859814Y-56765186D01*
X66747221Y-56627989D01*
X66663558Y-56471467D01*
X66663557Y-56471465D01*
X66612037Y-56301626D01*
X66605519Y-56235442D01*
X66599000Y-56169259D01*
X66599000Y-55830740D01*
X66612037Y-55698375D01*
X66612037Y-55698373D01*
X66663557Y-55528534D01*
X66747222Y-55372009D01*
X66859815Y-55234815D01*
X66997010Y-55122222D01*
X67153535Y-55038557D01*
X67323374Y-54987037D01*
X67500000Y-54969641D01*
X67676627Y-54987037D01*
X67676627Y-54987037D01*
G37*
G36*
X80176627Y-54987037D02*
G01*
X80346466Y-55038557D01*
X80502991Y-55122222D01*
X80538729Y-55151552D01*
X80640186Y-55234814D01*
X80723448Y-55336271D01*
X80752778Y-55372009D01*
X80836443Y-55528534D01*
X80887963Y-55698374D01*
X80887963Y-55698376D01*
X80898538Y-55805740D01*
X80901000Y-55830743D01*
X80901000Y-56169258D01*
X80887963Y-56301627D01*
X80836443Y-56471466D01*
X80752778Y-56627991D01*
X80732262Y-56652990D01*
X80640186Y-56765186D01*
X80502989Y-56877779D01*
X80346467Y-56961442D01*
X80346465Y-56961443D01*
X80176626Y-57012963D01*
X80000000Y-57030359D01*
X79823373Y-57012963D01*
X79653534Y-56961443D01*
X79497009Y-56877778D01*
X79448173Y-56837699D01*
X79359814Y-56765186D01*
X79247221Y-56627989D01*
X79163558Y-56471467D01*
X79163557Y-56471465D01*
X79112037Y-56301626D01*
X79105519Y-56235442D01*
X79099000Y-56169259D01*
X79099000Y-55830740D01*
X79112037Y-55698375D01*
X79112037Y-55698373D01*
X79163557Y-55528534D01*
X79247222Y-55372009D01*
X79359815Y-55234815D01*
X79497010Y-55122222D01*
X79653535Y-55038557D01*
X79823374Y-54987037D01*
X80000000Y-54969641D01*
X80176627Y-54987037D01*
X80176627Y-54987037D01*
G37*
G36*
X109758600Y-54977989D02*
G01*
X109791652Y-54988015D01*
X109822103Y-55004292D01*
X109848799Y-55026201D01*
X109870708Y-55052897D01*
X109886985Y-55083348D01*
X109897011Y-55116400D01*
X109901000Y-55156903D01*
X109901000Y-56843097D01*
X109897011Y-56883600D01*
X109886985Y-56916652D01*
X109870708Y-56947103D01*
X109848799Y-56973799D01*
X109822103Y-56995708D01*
X109791652Y-57011985D01*
X109758600Y-57022011D01*
X109718097Y-57026000D01*
X108281903Y-57026000D01*
X108241400Y-57022011D01*
X108208348Y-57011985D01*
X108177897Y-56995708D01*
X108151201Y-56973799D01*
X108129292Y-56947103D01*
X108113015Y-56916652D01*
X108102989Y-56883600D01*
X108099000Y-56843097D01*
X108099000Y-55156903D01*
X108102989Y-55116400D01*
X108113015Y-55083348D01*
X108129292Y-55052897D01*
X108151201Y-55026201D01*
X108177897Y-55004292D01*
X108208348Y-54988015D01*
X108241400Y-54977989D01*
X108281903Y-54974000D01*
X109718097Y-54974000D01*
X109758600Y-54977989D01*
X109758600Y-54977989D01*
G37*
G36*
X121758600Y-54977989D02*
G01*
X121791652Y-54988015D01*
X121822103Y-55004292D01*
X121848799Y-55026201D01*
X121870708Y-55052897D01*
X121886985Y-55083348D01*
X121897011Y-55116400D01*
X121901000Y-55156903D01*
X121901000Y-56843097D01*
X121897011Y-56883600D01*
X121886985Y-56916652D01*
X121870708Y-56947103D01*
X121848799Y-56973799D01*
X121822103Y-56995708D01*
X121791652Y-57011985D01*
X121758600Y-57022011D01*
X121718097Y-57026000D01*
X120281903Y-57026000D01*
X120241400Y-57022011D01*
X120208348Y-57011985D01*
X120177897Y-56995708D01*
X120151201Y-56973799D01*
X120129292Y-56947103D01*
X120113015Y-56916652D01*
X120102989Y-56883600D01*
X120099000Y-56843097D01*
X120099000Y-55156903D01*
X120102989Y-55116400D01*
X120113015Y-55083348D01*
X120129292Y-55052897D01*
X120151201Y-55026201D01*
X120177897Y-55004292D01*
X120208348Y-54988015D01*
X120241400Y-54977989D01*
X120281903Y-54974000D01*
X121718097Y-54974000D01*
X121758600Y-54977989D01*
X121758600Y-54977989D01*
G37*
G36*
X97758600Y-54977989D02*
G01*
X97791652Y-54988015D01*
X97822103Y-55004292D01*
X97848799Y-55026201D01*
X97870708Y-55052897D01*
X97886985Y-55083348D01*
X97897011Y-55116400D01*
X97901000Y-55156903D01*
X97901000Y-56843097D01*
X97897011Y-56883600D01*
X97886985Y-56916652D01*
X97870708Y-56947103D01*
X97848799Y-56973799D01*
X97822103Y-56995708D01*
X97791652Y-57011985D01*
X97758600Y-57022011D01*
X97718097Y-57026000D01*
X96281903Y-57026000D01*
X96241400Y-57022011D01*
X96208348Y-57011985D01*
X96177897Y-56995708D01*
X96151201Y-56973799D01*
X96129292Y-56947103D01*
X96113015Y-56916652D01*
X96102989Y-56883600D01*
X96099000Y-56843097D01*
X96099000Y-55156903D01*
X96102989Y-55116400D01*
X96113015Y-55083348D01*
X96129292Y-55052897D01*
X96151201Y-55026201D01*
X96177897Y-55004292D01*
X96208348Y-54988015D01*
X96241400Y-54977989D01*
X96281903Y-54974000D01*
X97718097Y-54974000D01*
X97758600Y-54977989D01*
X97758600Y-54977989D01*
G37*
G36*
X85758600Y-54977989D02*
G01*
X85791652Y-54988015D01*
X85822103Y-55004292D01*
X85848799Y-55026201D01*
X85870708Y-55052897D01*
X85886985Y-55083348D01*
X85897011Y-55116400D01*
X85901000Y-55156903D01*
X85901000Y-56843097D01*
X85897011Y-56883600D01*
X85886985Y-56916652D01*
X85870708Y-56947103D01*
X85848799Y-56973799D01*
X85822103Y-56995708D01*
X85791652Y-57011985D01*
X85758600Y-57022011D01*
X85718097Y-57026000D01*
X84281903Y-57026000D01*
X84241400Y-57022011D01*
X84208348Y-57011985D01*
X84177897Y-56995708D01*
X84151201Y-56973799D01*
X84129292Y-56947103D01*
X84113015Y-56916652D01*
X84102989Y-56883600D01*
X84099000Y-56843097D01*
X84099000Y-55156903D01*
X84102989Y-55116400D01*
X84113015Y-55083348D01*
X84129292Y-55052897D01*
X84151201Y-55026201D01*
X84177897Y-55004292D01*
X84208348Y-54988015D01*
X84241400Y-54977989D01*
X84281903Y-54974000D01*
X85718097Y-54974000D01*
X85758600Y-54977989D01*
X85758600Y-54977989D01*
G37*
M02*
